<?xml version="1.0" encoding="UTF-8"?>
<svg xmlns="http://www.w3.org/2000/svg" xmlns:xlink="http://www.w3.org/1999/xlink" viewBox="0 0 147.88 128.87">
  <defs>
    <style>
      .cls-1 {
        fill: #e53550;
      }

      .cls-2 {
        fill: #0d5c84;
      }

      .cls-3 {
        fill: #ed6f23;
      }

      .cls-4 {
        fill: #fff;
      }

      .cls-5 {
        fill: #95bd3d;
      }

      .cls-6 {
        fill: #0d2b27;
      }

      .cls-7 {
        fill: #049ba6;
      }

      .cls-8 {
        fill: #082c27;
      }

      .cls-9 {
        fill: none;
      }

      .cls-10 {
        fill: #067dad;
      }

      .cls-11 {
        clip-path: url(#clippath-1);
      }

      .cls-12 {
        fill: #663379;
      }

      .cls-13 {
        isolation: isolate;
      }

      .cls-14 {
        fill: #03838b;
      }

      .cls-15 {
        fill: #863f8c;
      }

      .cls-16 {
        fill: #1db04b;
      }

      .cls-17 {
        mix-blend-mode: soft-light;
        opacity: .11;
      }

      .cls-18 {
        fill: #e12e27;
      }

      .cls-19 {
        fill: #f6921e;
      }

      .cls-20 {
        clip-path: url(#clippath-2);
      }

      .cls-21 {
        clip-path: url(#clippath);
      }
    </style>
    <clipPath id="clippath">
      <rect class="cls-9" x="687.89" y="30.35" width="360" height="506.64"/>
    </clipPath>
    <clipPath id="clippath-1">
      <rect class="cls-9" x="277.55" y="-116.28" width="1295.74" height="729.17"/>
    </clipPath>
    <clipPath id="clippath-2">
      <rect class="cls-9" width="147.88" height="128.87"/>
    </clipPath>
  </defs>
  <g class="cls-13">
    <g id="Layer_1" data-name="Layer 1">
      <g>
        <g class="cls-21">
          <g class="cls-11">
            <g>
              <g class="cls-17">
                <path class="cls-4" d="M1684.93-154.1l-183.71-236.13c-141.33,144.04-244.51,261.99-367.58,218.43-52.77-18.68-80.03-51.6-175.35,60.04-212.19,248.52-213.44,74.95-278.94,67.91-46.65-5.01-94.99,71.01-125.71,100.98-30.23,29.49-78.38,50.15-113.94,27.37-10.3-6.6-18.4-16.24-28.77-22.74-28.02-17.55-65.92-7.83-92.65,11.63-46.15,33.59-89.25,117.51-158.58,106.36-55.77-8.96-54.8-41.6-154.39,173.36l21.39,61.15,31.56,79.88c19.55,43.48,82.03,60.25,120.72,32.41,43.28-31.15,56.07-103.7,108.8-111.6,29.13-4.36,56.15,14.79,84.92,21.1,105.69,23.18,173.89-110.16,204.33-155.41,23.54-34.99,38.77-34.11,72.51-19.03,207.38,92.68,264.77-113.45,323.73-133.95,19.11-6.64,39.67,2.43,58.34,10.2,229.39,95.41,239.1-112.07,358.9-142.29,78.54-19.81,187.73,37.77,269.68,3.5,19.58-8.19,82.36-39.65,82.36-39.65l-57.63-113.53-162.32-174.98,162.32,174.98Z"/>
              </g>
              <g class="cls-17">
                <path class="cls-4" d="M1624.3-129.36c-70.79,71.65-192.52,49.64-282.53,94.81-40.93,20.54-69.39,67.16-105.8,94.95-98.26,74.97-144.43,37.1-186.23,29.24-166.72-31.36-201.62,139.85-292.3,152.64-75.13,10.59-115.22-63.19-162.42-46.67-55.71,19.5-73.38,119.65-153.38,156.69-80.41,37.23-200.3-66.75-262.39,62.24-18.08,37.56-55.18,74.25-96.38,68l-16.69-23.31c43.39-72.82,81.84-191.1,148.97-242.83,149.26-115.03,174.09,13.12,245.88-26.62,96.17-53.23,103.95-105.16,180.03-121.71,64.81-14.1,98.01,56.32,190.19,24.05,77.18-27.02,134.29-157.22,205.36-195.53,128.71-69.38,185.99,102.45,454.16-102.55l133.53,76.61Z"/>
              </g>
            </g>
          </g>
        </g>
        <g class="cls-20">
          <g>
            <g>
              <path class="cls-8" d="M30.55,19.52c1.03-.74,2.8-1.42,3.91-2.15.03-.35-2.49-5.78-2.77-6.03-.78-.68-3.48-.11-4.24-2.59-1.6-5.22,4.85-8.04,7.27-4.05,1.64,2.7-.33,3.9-.12,5.04.24,1.3,2.97,4.66,3.13,6.47,7.02-1.34,14.21-.82,20.55,2.66.99-2.02,2.04-4.03,3.16-5.99.38-.67,1.72-2.26,1.82-2.75.17-.79-.61-1.52-.52-2.46.51-5.45,9.01-5.18,8.02,1.21-.57,3.71-3.85,2.49-5.01,3.45-.54.45-4.6,7.77-4.65,8.39-.07.72,1.79,1.75,2.39,2.38,1.96,2.08,4.22,5.52,5.11,8.25,4.18,12.8-5.55,29.69-18.91,31.62-.17.78.13.53.42.73,3.44,2.37,6.27,4.95,7.69,9.07l1.64-2.1c4.91-3.67,8.54,5.22,3.25,6.54-1.03.26-2.45-.26-2.63.96-.05.33,1.01,5.9,1.2,6.64.55,2.17,1.78,4.17,2.03,6.45.58,5.26-.66,10.42-4.05,14.47-.75.9-3.29,2.85-3.52,3.31-.73,1.47.1,3.98-1.47,4.72,1.51,1.97,4.01,4.79,3.24,7.35,3.52.68,2.74-4.82,4.54-5.72,1.52-.76,2.17.76,2.43.77.21,0,1.52-1.36,2.92-1.28,1.83.1,1.15,1.46,1.53,1.92.16.2,1.07.07,1.4.71.43.82-.08,1.51-.01,2.13.04.41.62.74.51,1.61-.27,2.11-5.85,3.48-7.45,4.3-1.78.91-3.34,2.59-5.22,3.4h-6.16l-.65-12.41c.74-.19.76.29.88.89.33,1.61.38,3.66.42,5.31.42.44,4.06-2.26,4.16-2.82.22-1.2-5.21-8.82-6.57-8.91-2.25-.14-1.74,1.18-2.65,2.23-2.09,2.42-6.07.95-7.77-1.27-.45-.59-.97-2.17-1.31-2.26-.38-.1-3.06.93-3.6,1.21-2.39,1.24-7.79,7.41-7.83,10.08-.03,1.82,6.48,3.43,8.02,3.34.51-1.76.71-3.64,1.32-5.38.2-.56.13-1.34.97-1.13-.13,1.35-.99,6.87-1.95,7.35-.4.2-1.2.1-1.28.18-.13.13-.23,3.03-.34,3.58h-.97l.65-3.92c-2.02-.04-3.8-1.01-5.65-1.65l-1.16,5.56h-.97c-.23-1.74.96-3.83.99-5.41.02-1.06-.69-1.46-.67-2.23.02-.51,1.01-3.21,1.3-3.8.18-.36,1.98-2.3,1.62-2.61-4.36.09-8.77-.64-12.97-1.8-1.31-.36-2.62-1.13-3.74-1.46-.83-.25-.42,1.41-.47,1.95-.55,5.05-.49,10.26-.65,15.35h-.97c.06-1.25-.09-2.52-.01-3.77.03-.42.34-.85.34-.97v-8.49c0-.58.34-1.73.32-2.78-.03-2.72-.14-1.38-1.87-3.14l1.18-7.42c-5.27-3.72-6.63-7.22-5.31-13.62.39-1.91,1.86-4.68,2.07-6.12.21-1.52-1.88-1.13.05-4.98,3.04-6.08,9.2-13.48,15.46-16.29,1.48-.66,8.04-2.18,8.21-3.19-2.75-3.23-5.73-5.9-7.44-9.93-.7-1.64-1.78-5.45-1.95-7.19-.17-1.83.01-4.71.32-6.53.48-2.8,2.31-7.12,3.89-9.47,1.07-1.59,3.66-4.44,5.19-5.55ZM30.46,3.9c-3.33.74-3.12,7.34,1.79,6.06,3.51-.91,2.44-7-1.79-6.06ZM66.15,4.89c-4.04.78-2.49,6.96,1.47,6.07,3.58-.8,2.64-6.87-1.47-6.07ZM34.09,10.39c-.22-.16-1.61.24-1.61.48,0,.31,2.24,4.42,2.61,5.53.48,1.42,1.02,2.87.97,4.41-1.38.23-.7-2.14-1.47-2.29-14.9,7.34-16.57,27.59-3.88,38.21,12.31,10.3,28.82,5.93,35.47-8.37,9.15-19.69-9.27-35.69-28.18-31.15l.65,2.61c-.27-.04-.87.07-.96,0-.16-.13-.74-3.2-1.06-4-.27-.68-2.3-5.27-2.54-5.45ZM59.09,19.84s1,.31,1.1.29c.5-.11,2-3.67,2.42-4.42.39-.7,3.36-4.24,1.84-4.68-.63-.18-.76.19-1.09.53-.72.75-4.62,7.81-4.26,8.29ZM32.17,59.04c-.21-.1-.38-.34-.65-.17-.23.81-2.36,1.33-2.22,1.91,1.34,5.52,13.87,10.92,15.85,3.81.09-.33.56-.7.32-1.31-3.46.17-7.06-.88-10.17-2.33-1.15-.54-2.15-1.47-3.13-1.91ZM46.44,63.62c-.52,6.33-6.78,6.02-11.35,4.08-3.28-1.39-5.48-3.81-7.03-6.99-8.01,1.11-14.47,7.62-18.55,14.25-.68,1.11-2.82,4.61-2.53,5.66.71,2.55,11.88,7.03,13.82,6.05,1.27-.64,3.39-11.72,4.13-13.84.18-.53-.17-.87.73-.72.14,2.1-3.08,14.97-4.21,15.52-.6.29-1.86.07-1.95.16-.18.18-.72,4.51-.63,5.04.43,2.79,7.49,5.94,10.04,6.72-2.32-7.26-.03-15.29,6.45-19.43.02-.25-2.4-4.22-2.62-4.34-.45-.25-2-.09-3.08-.66-4.68-2.47.6-9.95,4.46-5.79,1.94,2.09.56,2.9,1.02,4.51.26.9,2.71,3.22,3.07,4.51,4.59-1.7,9.74-1.92,14.39-.35l-.97-6.86c.82-.15.59.13.79.65.64,1.62.97,6.1,1.81,7.01.18.2.69.49.97.36.19-.09,2.31-3.16,2.43-3.47.29-.76-.51-2.21-.86-3.04-1.79-4.13-5.64-8.6-10.34-9.03ZM30.78,69.24c-3.09.71-2.17,6.03,1.15,5.43s3.04-6.4-1.15-5.43ZM61.29,70.86c-3.36.55-2.85,5.97.86,5.49,3.32-.43,2.67-6.06-.86-5.49ZM38.01,81.26c-.12-.11-.51-2.36-.92-3.16-.27-.55-2.51-3.7-2.81-3.69-.06,0-.75.69-.79.86-.07.39,3.87,5.58,3.54,6.98-.96.24-.66-1.12-1.45-.99-2.27.37-5.41,5.87-6.02,8.01-5.38,18.85,23.24,29.92,31.33,12.27,6.22-13.56-5.5-26.54-19.64-23.04-.39.1-2.49.74-2.57.85-.3.42.45,1.8.3,1.93-.04.03-.94.04-.97,0ZM58.64,76.05c-.42.09-3.76,4.06-1.66,4.55.38-.96,2.45-2.85,2.63-3.57.11-.44-.6-1.06-.97-.98ZM59.42,79.3c-2.85,1.27-1.17,2.98.65,4.25l-.65-4.25ZM7.84,83.22c-.06-.02-.09-.58-.32-.16s-.61,1.59-.8,2.13c-3.06,8.98-1.89,13.89,6.85,17.91,6.37,2.93,13.89,4.27,20.88,3.96-.78-1.19-2.01-2.02-2.91-3.11-.66-.79-1.46-2.6-2.11-3.11-.91-.71-4.4-1.72-5.91-2.55-5.15-2.82-6.31-3.95-4.97-9.86.06-.26.43-.58.33-.98-2.05-.25-4.35-.92-6.25-1.71-1.68-.7-3.24-1.99-4.78-2.54ZM37.36,109.02c-2.04-1.82-6.15-.78-8.92-.98-5.89-.42-11.78-2.69-17.19-4.9-.43,1.36-1.73,5.68-.82,6.71,1.05,1.19,8.15,3,9.99,3.34,2.07.38,6.43,1.13,8.36,1.09,1-.02,3.33-2.77,4.58-3.55,1.17-.73,2.65-1.37,4-1.7ZM47.41,111.31c-2.56.22-5-.63-7.45-1.15.99,3.12,6.33,5.25,7.45,1.15ZM54.23,110.01l-2.59.66c1.87,2.38,2.87,3.44,2.59-.66ZM67.85,115.89c-2.26-.9-3.4,2.61-4.06,2.94-1.01.5.03-1.82-.31-2.29-1.37-1.93-2.34,3.63-3.08,4.43-1.81,1.96-2.86.54-4.24.93-.18.05-2.98,1.99-3.07,2.16-.97,1.73,1.24,4.02,2.99,4.17,2.81.25,4.91-2.66,6.93-3.65,1.15-.57,6.15-1.84,6.71-2.88,1.42-2.6-3.31-.23-3.51-.39-.1-.08-1.24-2.19-1.28-2.32-.05-.15,0-.32,0-.48.84.29,3.63-1.93,2.92-2.61ZM69.06,117.57c-.56.03-2.95,1.48-2.82,2.07.41,1.91,5.68-2.2,2.82-2.07Z"/>
              <path class="cls-14" d="M26,121.31c.02-.51,1.01-3.21,1.3-3.8-1.48-.69-3.38-.48-4.94-.74-3.65-.61-7.22-1.78-10.63-3.18-.55,5.05-.49,10.26-.65,15.35h3.16c0,.09,0,.19,0,.28.07.51.12,1,.28,1.48.05.2.13.37.23.54-.03.04-.05.07-.08.11-.23.39-.34.81-.34,1.27.03.22.06.45.09.67.06.21.14.41.25.59.03.09.05.19.1.27.1.31.27.58.52.81.23.25.49.42.8.52.3.16.62.23.96.22.22-.03.44-.06.66-.09.42-.12.79-.33,1.1-.65.13-.17.26-.34.39-.51.23-.39.34-.81.34-1.27,0-.03,0-.05,0-.08,0-.01,0-.03,0-.04,0,0,0-.01,0-.02-.03-.21-.06-.47-.09-.68,0-.05-.02-.11-.04-.16-.04-.1-.09-.21-.13-.31-.04-.09-.09-.21-.13-.32,0-.01-.01-.02-.02-.04-.01-.02-.03-.05-.04-.07,0-.01-.02-.02-.02-.03-.01-.01-.02-.03-.04-.05.02-.03.05-.05.07-.09.08-.2.17-.4.25-.6.12-.45.12-.89,0-1.34-.05-.14-.07-.29-.1-.43h6.43c-.23-1.74.96-3.83.99-5.41.02-1.06-.69-1.46-.67-2.23Z"/>
              <g>
                <path class="cls-7" d="M34.09,10.39c.24.18,2.28,4.77,2.54,5.45.31.8.9,3.87,1.06,4,.09.07.7-.04.96,0l-.65-2.61c18.91-4.54,37.33,11.45,28.18,31.15-6.64,14.3-23.16,18.67-35.47,8.37-12.69-10.63-11.03-30.87,3.88-38.21.77.15.09,2.52,1.47,2.29.05-1.54-.49-2.99-.97-4.41-.37-1.11-2.6-5.23-2.61-5.53,0-.24,1.39-.64,1.61-.48ZM44.8,26.08c-.66-1.04-6.3-.47-5.49,1.93,1.09-.33,1.93-1.15,3.18-1.24.86-.06,1.5.31,2.34.26-.04-.28.09-.78-.02-.95ZM63.31,29.64c.82-2.51-4.78-3.74-5.49-2.59-.89,1.46,2.02.8,2.99,1.02,1.12.25,1.41,1.47,2.5,1.56ZM41.83,32c-7.51.6-8.5,15.31-.09,15.31s8.57-15.99.09-15.31ZM59.01,34.29c-5.6,1.17-6.88,14.3-.07,14.3,6.92,0,8.96-16.16.07-14.3ZM41.47,49.94c-1.76.58-.43,5.55.25,6.83,2.15,4.03,7.74,4.13,10.85,1.09.95-.93,3.86-5.86,1.78-6.26-2.58.47-5.38.36-7.92-.23-1.27-.29-3.95-1.77-4.96-1.44Z"/>
                <path class="cls-7" d="M30.46,3.9c4.23-.94,5.31,5.15,1.79,6.06-4.92,1.27-5.12-5.32-1.79-6.06Z"/>
                <path class="cls-7" d="M66.15,4.89c4.11-.8,5.06,5.27,1.47,6.07-3.97.89-5.51-5.29-1.47-6.07Z"/>
                <path class="cls-7" d="M59.09,19.84c-.36-.48,3.54-7.53,4.26-8.29.33-.34.46-.71,1.09-.53,1.53.43-1.45,3.98-1.84,4.68-.42.76-1.91,4.31-2.42,4.42-.1.02-1.06-.24-1.1-.29Z"/>
                <path class="cls-8" d="M41.83,32c8.48-.68,8.57,15.31-.09,15.31s-7.42-14.71.09-15.31ZM44.07,40.48c-1.55.44-.91,3.29.54,2.87.96-.28,1.57-3.47-.54-2.87Z"/>
                <path class="cls-8" d="M59.01,34.29c8.89-1.86,6.85,14.3-.07,14.3-6.8,0-5.52-13.13.07-14.3ZM61.33,41.76c-.96-.61-2.26.69-1.86,2.02.75,2.51,3.12-1.21,1.86-2.02Z"/>
                <path class="cls-8" d="M41.47,49.94c1.01-.33,3.69,1.15,4.96,1.44,2.55.59,5.34.69,7.92.23,2.08.4-.83,5.33-1.78,6.26-3.11,3.04-8.7,2.94-10.85-1.09-.69-1.29-2.01-6.25-.25-6.83ZM48.71,59.04c.27-3.48-4.03-4.58-6.81-4.57.54,3.38,3.54,5.07,6.81,4.57Z"/>
                <path class="cls-8" d="M63.31,29.64c-1.09-.09-1.38-1.31-2.5-1.56-.97-.22-3.89.44-2.99-1.02.71-1.16,6.31.07,5.49,2.59Z"/>
                <path class="cls-8" d="M44.8,26.08c.11.17-.02.67.02.95-.83.05-1.48-.32-2.34-.26-1.24.09-2.08.91-3.18,1.24-.81-2.4,4.83-2.97,5.49-1.93Z"/>
                <path class="cls-4" d="M44.07,40.48c2.11-.6,1.5,2.59.54,2.87-1.45.42-2.09-2.42-.54-2.87Z"/>
                <path class="cls-4" d="M61.33,41.76c1.26.81-1.11,4.53-1.86,2.02-.4-1.33.9-2.63,1.86-2.02Z"/>
                <path class="cls-1" d="M48.71,59.04c-3.27.5-6.27-1.19-6.81-4.57,2.78-.01,7.08,1.09,6.81,4.57Z"/>
              </g>
              <path class="cls-3" d="M46.44,63.62c4.69.44,8.55,4.9,10.34,9.03.36.83,1.15,2.27.86,3.04-.12.31-2.24,3.38-2.43,3.47-.28.14-.79-.16-.97-.36-.84-.91-1.17-5.4-1.81-7.01-.21-.53.03-.8-.79-.65l.97,6.86c-4.65-1.56-9.8-1.34-14.39.35-.36-1.29-2.81-3.61-3.07-4.51-.46-1.62.92-2.43-1.02-4.51-3.86-4.15-9.14,3.32-4.46,5.79,1.08.57,2.63.41,3.08.66.22.12,2.65,4.09,2.62,4.34-6.48,4.14-8.77,12.17-6.45,19.43-2.55-.78-9.61-3.92-10.04-6.72-.08-.53.45-4.86.63-5.04.09-.09,1.35.13,1.95-.16,1.13-.55,4.35-13.42,4.21-15.52-.9-.16-.55.19-.73.72-.74,2.12-2.86,13.2-4.13,13.84-1.94.98-13.12-3.5-13.82-6.05-.29-1.05,1.85-4.55,2.53-5.66,4.08-6.63,10.54-13.14,18.55-14.25,1.54,3.18,3.75,5.6,7.03,6.99,4.57,1.94,10.83,2.25,11.35-4.08Z"/>
              <path class="cls-7" d="M7.84,83.22c-.03.73.44.87.87,1.25,2.43,2.12,6.62,4.01,9.84,3.98-1.34,5.91-.18,7.04,4.97,9.86,1.51.82,5,1.84,5.91,2.55.65.51,1.45,2.31,2.11,3.11.9,1.08,2.13,1.91,2.91,3.11-6.99.31-14.51-1.03-20.88-3.96-8.74-4.02-9.9-8.93-6.85-17.91.19-.54.57-1.72.8-2.13s.26.14.32.16Z"/>
              <path class="cls-3" d="M37.36,109.02c-1.35.33-2.83.96-4,1.7-1.25.78-3.58,3.53-4.58,3.55-1.93.04-6.29-.71-8.36-1.09-1.83-.34-8.93-2.15-9.99-3.34-.91-1.03.4-5.35.82-6.71,5.41,2.21,11.3,4.48,17.19,4.9,2.76.2,6.88-.84,8.92.98Z"/>
              <path class="cls-7" d="M32.17,59.04c1.29,4.66,8.78,7.6,12.98,5.55-1.98,7.11-14.51,1.7-15.85-3.81-.14-.58,2-1.1,2.22-1.91.27-.17.44.08.65.17Z"/>
              <path class="cls-2" d="M11.73,113.6c.06-.54-.35-2.2.47-1.95,1.12.33,2.43,1.1,3.74,1.46,4.2,1.16,8.61,1.88,12.97,1.8.36.31-1.44,2.25-1.62,2.61-1.48-.69-3.38-.48-4.94-.74-3.65-.61-7.22-1.78-10.63-3.18Z"/>
              <path class="cls-14" d="M32.17,59.04c.98.44,1.98,1.38,3.13,1.91,3.12,1.46,6.72,2.5,10.17,2.33.23.6-.23.97-.32,1.31-4.2,2.05-11.68-.89-12.98-5.55Z"/>
              <path class="cls-14" d="M7.84,83.22c1.54.54,3.1,1.84,4.78,2.54,1.9.79,4.2,1.46,6.25,1.71.11.4-.27.72-.33.98-3.22.03-7.41-1.86-9.84-3.98-.43-.37-.9-.51-.87-1.25Z"/>
              <g>
                <path class="cls-18" d="M50.2,111.01c-2.25-.14-1.74,1.18-2.65,2.23-2.09,2.42-6.07.95-7.77-1.27-.45-.59-.97-2.17-1.31-2.26-.38-.1-3.06.93-3.6,1.21-2.39,1.24-7.79,7.41-7.83,10.08-.03,1.82,6.48,3.43,8.02,3.34.51-1.76.71-3.64,1.32-5.38.2-.56.13-1.34.97-1.13-.13,1.35-.99,6.87-1.95,7.35-.39.2-1.2.1-1.28.18-.13.13-.23,3.03-.34,3.58h11.39c-.08.57-.02,1.17.29,1.66.03.04.06.07.09.11-.12.27-.23.54-.32.82-.17.58-.2,1.16-.13,1.74-.02.12-.04.24-.03.36.03.22.06.45.09.67.12.43.33.8.64,1.11.17.13.34.26.51.39.39.23.81.34,1.26.34h.11c.34.01.67-.06.96-.22.31-.1.58-.27.8-.52.24-.23.42-.5.52-.81.16-.3.23-.62.22-.97-.03-.22-.06-.45-.09-.67,0-.03-.02-.05-.03-.07,0-.01,0-.02,0-.03.02-.08.05-.16.08-.24.34-.76.67-1.54.59-2.4-.04-.46-.11-.88-.27-1.28h1.48l-.65-12.41c.74-.19.76.29.88.89.33,1.61.38,3.66.42,5.31.42.44,4.06-2.26,4.16-2.82.22-1.2-5.21-8.82-6.57-8.91Z"/>
                <path class="cls-16" d="M26.65,128.95l1.16-5.56c1.86.63,3.63,1.61,5.65,1.65l-.65,3.92h-6.16Z"/>
                <path class="cls-16" d="M38.01,81.26s.93.03.97,0c.15-.13-.59-1.51-.3-1.93.08-.11,2.18-.75,2.57-.85,14.14-3.5,25.86,9.48,19.64,23.04-8.09,17.65-36.71,6.58-31.33-12.27.61-2.14,3.75-7.64,6.02-8.01.79-.13.49,1.24,1.45.99.33-1.4-3.61-6.59-3.54-6.98.03-.17.73-.86.79-.86.3,0,2.54,3.15,2.81,3.69.4.81.8,3.05.92,3.16ZM58.68,87.23c-.83-.84-4.26-1.64-4.45.23.89.04,1.8-.11,2.68.08.36.07,4.02,1.99,1.77-.31ZM44.15,86.84c-.64-1.04-5.33.26-4.84,2.26.94-.03,1.21-1.02,2.17-1.24s3.54.4,2.67-1.02ZM43.11,91.46c-5.46.95-4.84,10.58.89,10.39,6.43-.2,5.67-11.54-.89-10.39ZM59.31,92.15c-4.44-4.25-9.36,6.27-4.02,8.46,4.67,1.92,6.73-5.86,4.02-8.46ZM53.9,104.45c-2.17,1-3.49,1.35-5.83.49-.92-.34-2.63-2.29-2.55,0,.18,5.43,8.28,4.57,8.39-.49Z"/>
                <path class="cls-16" d="M67.85,115.89c.71.68-2.08,2.9-2.92,2.61,0,.15-.04.33,0,.48.04.13,1.18,2.24,1.28,2.32.2.16,4.93-2.21,3.51.39-.57,1.03-5.56,2.31-6.71,2.88-2.02,1-4.12,3.9-6.93,3.65-1.75-.15-3.96-2.44-2.99-4.17.09-.16,2.89-2.11,3.07-2.16,1.38-.39,2.43,1.03,4.24-.93.74-.8,1.71-6.36,3.08-4.43.33.47-.7,2.79.31,2.29.65-.32,1.8-3.84,4.06-2.94Z"/>
                <path class="cls-16" d="M30.78,69.24c4.19-.97,4.53,4.83,1.15,5.43s-4.24-4.72-1.15-5.43Z"/>
                <path class="cls-16" d="M61.29,70.86c3.53-.57,4.18,5.07.86,5.49-3.71.47-4.22-4.94-.86-5.49Z"/>
                <path class="cls-16" d="M47.41,111.31c-1.12,4.1-6.47,1.97-7.45-1.15,2.46.52,4.9,1.37,7.45,1.15Z"/>
                <path class="cls-16" d="M58.64,76.05c.37-.08,1.08.54.97.98-.17.72-2.25,2.61-2.63,3.57-2.11-.49,1.24-4.46,1.66-4.55Z"/>
                <path class="cls-3" d="M59.42,79.3l.65,4.25c-1.81-1.26-3.5-2.98-.65-4.25Z"/>
                <path class="cls-16" d="M69.06,117.57c2.86-.13-2.41,3.98-2.82,2.07-.13-.59,2.27-2.04,2.82-2.07Z"/>
                <path class="cls-3" d="M54.23,110.01c.28,4.1-.72,3.03-2.59.66l2.59-.66Z"/>
                <path class="cls-8" d="M43.11,91.46c6.56-1.15,7.32,10.19.89,10.39-5.73.18-6.34-9.44-.89-10.39ZM45.5,98.86c1.61,1.01,2.2-2.24,1.09-2.58-1.45-.44-1.77,2.15-1.09,2.58Z"/>
                <path class="cls-8" d="M59.31,92.15c2.71,2.6.65,10.38-4.02,8.46-5.33-2.19-.41-12.71,4.02-8.46ZM58.72,98.19c.95-1.54-1.4-3.62-1.6-1.09-.12,1.5,1.13,1.86,1.6,1.09Z"/>
                <path class="cls-8" d="M53.9,104.45c-.11,5.06-8.2,5.92-8.39.49-.08-2.29,1.63-.34,2.55,0,2.34.87,3.66.51,5.83-.49ZM50.33,108.04c-.19-1.57-2.01-1.76-3.24-1.63.19,1.57,2.01,1.76,3.24,1.63Z"/>
                <path class="cls-8" d="M44.15,86.84c.87,1.42-1.74.81-2.67,1.02s-1.24,1.2-2.17,1.24c-.49-2,4.2-3.29,4.84-2.26Z"/>
                <path class="cls-8" d="M58.68,87.23c2.25,2.29-1.41.38-1.77.31-.88-.18-1.79-.04-2.68-.08.19-1.88,3.62-1.08,4.45-.23Z"/>
                <path class="cls-4" d="M45.5,98.86c-.68-.43-.36-3.01,1.09-2.58,1.11.33.52,3.58-1.09,2.58Z"/>
                <path class="cls-4" d="M58.72,98.19c-.47.76-1.72.4-1.6-1.09.2-2.53,2.55-.44,1.6,1.09Z"/>
                <path class="cls-1" d="M50.33,108.04c-1.24.13-3.06-.06-3.24-1.63,1.24-.13,3.06.06,3.24,1.63Z"/>
              </g>
            </g>
            <g>
              <path class="cls-19" d="M89.38,116.64c-.91,1.31-.05,2.58.54,3.82-2.1.03-4.43.19-6.27-1.03-.45-.3-1.56-1.12-1.03-1.58,1.2,1.01,2.55,1.1,4.06.98.17-1-.27-.51-.79-.65s-2.85-.7-3.04-1.03c-.89-1.53.91-1.33,2.01-1.21,1.51.16,4.06,1.61,4.42-.69-5.55-1.56,2.38-3.66.92.77-.14.42-.69.45-.81.63Z"/>
              <g>
                <path class="cls-6" d="M138.89,72.59c-1.9,2.05-.29,3.29-.79,4.41-.19.42-1.36,1.28-1.79,1.82-.62.79-2.83,4.42-3.41,4.41-.45,0-.97-.65-1.47-.83-2.63-1-5.27-1.71-8.11-1.47.78-1.58.62-4.97,1.3-6.28.39-.75,2.03-1.13,2.26-3.06.64-5.43-8.08-5.44-7.45,0,.15,1.3,1.34,2,1.55,2.72.14.46-.73,6.64-.96,6.91-.07.09-1.96.63-2.15.65-1.17.13-1.07-1-1.7-1.75-1.39-1.65-2.84-2.74-4.75-3.71-1.57-.79-5.48-1.64-5.94-3.5l5.27-3.14c9.45-6.32,11.56-19.89,4.43-28.84-1.33-1.67-3.33-2.91-4.53-4.57,0-.24,1.82-4.21,2.01-4.35.85-.6,2.99-.21,3.9-2.44,1.7-4.2-3.55-7.6-6.41-4.17-1.87,2.23-.08,3.94-.3,4.94-.17.78-2.1,3.4-2.34,4.57-5.21-1.71-10.44-2.34-15.82-.98-.28-.07-.87-4.49-.86-5.1.04-1.66,1.97-2.13.82-5.04-2.34-5.94-10.6.31-6.01,4.42.67.6,1.85.77,1.92.85.18.22.74,5.34.66,5.61-.11.35-3.44,2.16-4.15,2.7-11.85,9.07-12.02,27.23,1.96,34.23,2.39,1.2,4.98,1.63,7.41,2.65-.01.6-3.73,1.32-4.53,1.64-2.24.88-4.1,2.28-5.68,4.08-.38.43-1.1,1.84-1.2,1.9-.48.28-4.06-.01-5.2.15-5.74.84-9.87,7.37-10.3,12.82-.16,1.97.45,3.86.33,5.54-.08,1.21-.85,2.33-.99,3.6-.42,3.8,1.17,9.48,5.51,10.17.75.12,1.36-.31,1.94-.05.84.37,2.55,2.74,3.93,3.01l-3.87,13.88c.36.09.7.23,1.02.4l3.97-13.85c3.38.87,4.83,3.47,8.46,3.89,1.26.15,3.03-.21,4.11.1.2.06,3.32,1.6,3.72,1.81.84.45,2.3,3.11,3.15,4.01.56.59,1.44.81,1.8,1.62h1.62c-1.31-1.32-2.86-2.48-4.06-3.92-.5-.59-1.39-2.48-1.52-2.56-.32-.21-1.98-.18-2.97-.76-1.2-.7-3.15-2.82-2.81-4.36,1.26-.82,1.45,1.87,2.92,1.79.63-.69-3.28-3.57-1.42-4.21,1.57-.54,1.55,2.22,3.37,1.92-.36-1.34-1.68-1.81-2.12-3.26-.44-1.46-.29-2.27,1.16-1.17.38.29,2.61,2.82,2.75,3.13.5,1.12-1.31,2.52,0,3.58.43-.75,1.38-5.39,2.6-3.6.89,1.3-.66,4.01-.46,4.69.06.19,2.64,2.38,2.98,2.57,1.09.59,2.47.46,2.77.64.15.09,1.35,2.44,1.73,3,.79,1.17,2.08,1.34.27,2.51h3.57l1.62-8.17c-.66-.12-.77.3-.99.79-.72,1.61-.94,4.29-1.28,6.07-1.48.36-4.66-4.6-4.39-5.23,3.51-2.62,6.63-6.66,11.34-6.88,1,5.5,6.39,4.66,9.62,1.5.33-.32.62-1.13.85-1.18.81-.17,3.97,1.19,4.75,1.71,3.3,2.2,5.45,7.5,5.73,11.38h.97c-.3-2.38-1.13-5.74-2.27-7.84-1.57-2.9-4.88-5.43-8.11-6.04,7.96-3.33,13.16-9.1,12.98-18.13-.11-5.17-1.73-7.99-4.87-11.92,0-.46,3.86-5.75,4.36-6.07,1.3-.85,2.98.45,4.35-1.82,2.45-4.05-2.62-7.98-5.8-4.54ZM122.27,68.59c4.9-1.11,4.89,6.2,0,5.09-2.49-.56-2.49-4.52,0-5.09ZM116.18,82.55c-2.72,1.04-4.85,3.16-6.8,5.24-.4-3.95,4.42-13.07,6.8-5.24ZM111.12,25.84c2.99-3.01,6.99,2.27,3.44,4.61-2.8,1.85-5.74-2.29-3.44-4.61ZM86.13,27.25c-2.37-2.61,1.41-6.61,4.1-4.3,3.1,2.67-1.45,7.22-4.1,4.3ZM76.28,53.96c.2-6.17,5.39-15.49,11.35-17.64,1.2-.43,1.15,1.07,1.64.51.59-.69-1-7.37-.6-7.8.09-.1.97-.12,1.25-.37.52,2.47.75,4.99.65,7.52,1.44.35.72-.7,1.29-1.15.43-.34,4.5-.81,5.35-.83,3.48-.09,6.63.71,9.91,1.65l-.65,2.61c1.33.28.89-.46,1.28-1.48.8-2.06,1.84-3.98,2.61-6.03l1.62.66c-.57.88-3.66,7.11-3.24,7.5,1.66.44.5-1.84,2.18-1.05,2.94,1.37,6.26,7.49,7.01,10.59,7.01,29.06-42.58,33.34-41.65,5.32ZM91.54,78.48c.17-1.8.62-2.86,2.59-2.77.27.29-.6,2.32.65,1.96.02-.54-.03-1.09,0-1.63.03-.65-.03-1.31,0-1.96,1.43.79,9.65-1.27,10.05-.96.11.08-.05.5,0,.63.98,2.14,2.96,1.95,3.43,2.6.43.59-1.64,2.93-2.13,3.45-2.85,3.06-8.9,6.68-12.82,3.75-1.86-1.39-2-2.83-1.79-5.06ZM90.89,76.36c-1.42,3.97.06,8.64,4.7,9.14,3.58.39,7.1-1.3,9.74-3.59.91-.79,3.96-4.78,4.27-4.86.6-.15,3.83.81,2.8,1.94-1.46,1.61-2.61,2.35-3.37,4.7-.66,2.04-.49,4.16-1.05,6.13-.53,1.86-1.75,3.34-2.28,5.54-.45,1.87-.27,4.46-.72,5.81-.55,1.63-3.89,4.24-4.86,5.89l-2.17-5.32c-1.42-2.41-4.83-5.69-6.06-7.95-1.35-2.49-1.53-5.08-3.67-7.74-2.02-2.5-2.94-1.25-1.4-5.11.7-1.75,1.95-4.37,4.05-4.58ZM86.67,78.65l-1.62,4.57-1.94-.66c-.36-.5,2.42-4.11,3.57-3.91ZM70.02,112.56c-2.42-1.52-3.41-4.54-3.39-7.29,0-.36.42-3.93,1.23-3.11.08.09.22,1.6.83,2.27.74.81,3.4,1.27,3.4,2.47,0,1.22-1.96.9-2.74.46-.82-.47-.55-1.42-1.49-1.27,0,2.96,2.67,2.2,4.31,2.68,1.68.48.73,2.55-1.96,1.64-.19-.06-2.54-1.79-2.03-.57.57,1.36,3.52,1.94,4.87,1.8.34,2.2-1.67,1.78-3.03.92ZM90.19,116.01c-.14.42-.69.45-.81.63-.91,1.31-.05,2.58.54,3.82-2.1.03-4.43.19-6.27-1.03-.45-.3-1.56-1.12-1.03-1.58,1.2,1.01,2.55,1.1,4.06.98.17-1-.27-.51-.79-.65-.55-.15-2.85-.7-3.04-1.03-.89-1.53.91-1.33,2.01-1.21,1.51.16,4.06,1.61,4.42-.69-5.55-1.56,2.38-3.66.92.77ZM91.54,113.92c-.87.02-1.09-.86-1.87-1.22-2.42-1.12-4.59.81-2.35,2.85-1.1.03-2.36-.66-3.41-.65-.88,0-1.5.57-2.1.66v1.96c-2.65-.13-4.84-1.64-6.81-3.27-.32-.26-1.23-.64-1.27-.7-.14-.2.35-.94.3-1.41-.04-.44-.5-.74-.56-1.06-.36-1.85,2.21-.72,3.32-.72.54,0,6.2-.94,5.03-1.99-.17-.15-3.49.93-4.37.99-1.01.07-3.46.06-4.1-.8-.55-.74-.05-1.73-.6-2.67-.77-1.33-2.93-.73-4.07-3.41-6.84-16.12,14.32-28.77,21.17-11.84,3.95,9.77-.96,17.87-9.65,22.15-.47.23-.81-.07-.65.8,8.04-1.42,12.98-10.17,12.65-17.97,3.77,3.3,2.63,8.22,1.3,12.41.8.17.57-.18.84-.61,1.21-1.94,1.64-5.03,1.11-7.23,1.87,1.25,3.77,5.52,3.57,7.67-.06.66-3.61,3.97-4.1,4.06-.5.09-3.76-3.27-3.36,1.98ZM97.05,114.76c-.36-.16-1.82-2.15-1.61-2.45,4.09-2.36,6.83-6.46,10.05-9.81.06,1.64.67,3.22,1.36,4.68.4.85,1.71,1.89,1.44,2.84-.28.99-7.52,6.54-7.98,6.2-.34-3.19-2.83-1.26-3.25-1.45ZM114.55,114.88c-.12.19-3.17,1.28-4.11,1.91-1.57,1.04-5.83,5.29-7.14,5.57-.79.17-3.44-1.71-3.58-2.43-.47-2.46,4.46-4.93,6.24-6.34,1.13-.89,2.04-2.14,3.3-2.9.3-.05,2.41,1.85,2.93,2.2.49.33,2.27.97,2.34,1.08.08.13.09.82.02.92ZM124.95,116.54c-1.88,1.75-5.83,3.57-7.14.33-.22-.55-.44-1-.32-1.63,2.78.29,5.68.67,8.43,0,.26,1.14-.83,1.17-.97,1.31ZM134.03,86.97c.89.68.7-1.1,1.45-.81,1.54.6,3.85,5.83,4.23,7.5,3.45,15.05-13.92,26.36-26.67,18.69-12.66-7.62-6.59-27.27,6.55-30.12l.81.99c.54-1.12,1.33-8.18,1.66-8.46.22-.18,1.18.04,1.59-.03l-1.62,8.16c.96.15.58-.87,1.45-1,1.76-.27,7.79.81,8.96,2.14.61.69-1.04,1.38.13,2.13,1.76-2.29,2.85-5.06,4.86-7.18.52-.56,1.65-1.87,2.44-.97.35.4-6.28,7.21-5.84,8.98ZM140.51,77.52c-1.97-.66-2.28-4.42.25-5.01,5.15-1.2,4.71,6.67-.25,5.01Z"/>
                <path class="cls-1" d="M80.51,128.95h19.13c-.36-.81-1.24-1.03-1.8-1.62-.86-.9-2.32-3.57-3.15-4.01-.4-.21-3.51-1.75-3.72-1.81-1.08-.32-2.85.04-4.11-.1-3.63-.42-5.08-3.02-8.46-3.89l-3.81,13.46c.48.25,5.92-2.02,5.92-2.02Z"/>
                <path class="cls-19" d="M90.57,36.18c1.44.35.72-.7,1.29-1.15.43-.34,4.5-.81,5.35-.83,3.48-.09,6.63.71,9.91,1.65l-.65,2.61c1.33.28.89-.46,1.28-1.48.8-2.06,1.84-3.98,2.61-6.03l1.62.66c-.57.88-3.66,7.11-3.24,7.5,1.66.44.5-1.84,2.18-1.05,2.94,1.37,6.26,7.49,7.01,10.59,7.01,29.06-42.58,33.34-41.65,5.32.2-6.17,5.39-15.49,11.35-17.64,1.2-.43,1.15,1.07,1.64.51.59-.69-1-7.37-.6-7.8.09-.1.97-.12,1.25-.37.52,2.47.75,4.99.65,7.52ZM87.92,42.43c-.66-1.13-5.61,0-5.14,2.24.98-.04,1.48-1.12,2.45-1.29.9-.16,2.65.42,2.74.31.04-.05.06-1.08-.05-1.26ZM107.11,46.96c.23-.25-.26-1.29-.49-1.62-1-1.4-5.17-2.78-5.02-.34.89-.01,1.72-.07,2.61.16.93.24,2.43,2.31,2.91,1.8ZM88.29,54.14c1.27-.94-.42-5.6-3.64-5.16-2.4.33-2.52,2.12-3.48,2.69-.25.15-1.01-.32-1.3.35-.32.72.96.51,1.24.9.15.21-.13,1.25.54.89.79-.42.89-3.82,3.82-3.21,1.85.39,1.86,4.25,2.83,3.53ZM105.84,54.13c-1.08-4.59-6.53-5.07-8.43-.76-.69,1.56-.08,2.21.89.9s2.14-3.04,4.18-2.16,1.95,3.75,2.52,4c.84.37.83-.59,1.35-.92.77-.49,1.73.07,1.41-1.36l-1.92.31ZM91.21,56.11c-6.11-.74-1.82,6.41-.33,4.9.79-.8-.94-1.09-1.31-1.45-1.47-1.42-.14-2.86,1.64-2.47v-.98ZM98.67,61.01c-.95-.99-1.41,1.61-1.55,1.87-1.14,2.15-4.36,2.89-6.46,1.79-.6-.31-3.15-3.12-2.64-.94.96,4.08,9.53,3.76,10.58-1,.08-.34.17-1.62.07-1.72Z"/>
                <path class="cls-1" d="M90.89,76.36c-1.42,3.97.06,8.64,4.7,9.14,3.58.39,7.1-1.3,9.74-3.59.91-.79,3.96-4.78,4.27-4.86.6-.15,3.83.81,2.8,1.94-1.46,1.61-2.61,2.35-3.37,4.7-.66,2.04-.49,4.16-1.05,6.13-.53,1.86-1.75,3.34-2.28,5.54-.45,1.87-.27,4.46-.72,5.81-.55,1.63-3.89,4.24-4.86,5.89l-2.17-5.32c-1.42-2.41-4.83-5.69-6.06-7.95-1.35-2.49-1.53-5.08-3.67-7.74-2.02-2.5-2.94-1.25-1.4-5.11.7-1.75,1.95-4.37,4.05-4.58Z"/>
                <path class="cls-19" d="M104.84,73.74c.98,2.14,2.96,1.95,3.43,2.6.43.59-1.64,2.93-2.13,3.45-2.85,3.06-8.9,6.68-12.82,3.75-1.86-1.39-2-2.83-1.79-5.06.17-1.8.62-2.86,2.59-2.77.27.29-.6,2.32.65,1.96.02-.54-.03-1.09,0-1.63,3.37,1.33,7.75.73,10.06-2.29Z"/>
                <path class="cls-19" d="M100.3,116.21c-.34-3.19-2.83-1.26-3.25-1.45-.36-.16-1.82-2.15-1.61-2.45,4.09-2.36,6.83-6.46,10.05-9.81.06,1.64.67,3.22,1.36,4.68.4.85,1.71,1.89,1.44,2.84s-7.52,6.54-7.98,6.2Z"/>
                <path class="cls-1" d="M114.53,113.96c.08.13.09.82.02.92-.12.19-3.17,1.28-4.11,1.91-1.57,1.04-5.83,5.29-7.14,5.57-.79.17-3.44-1.71-3.58-2.43-.47-2.46,4.46-4.93,6.24-6.34,1.13-.89,2.04-2.14,3.3-2.9.3-.05,2.41,1.85,2.93,2.2.49.33,2.27.97,2.34,1.08Z"/>
                <path class="cls-19" d="M67.85,102.16c.08.09.22,1.6.83,2.27.74.81,3.4,1.27,3.4,2.47s-1.96.9-2.74.46-.55-1.42-1.49-1.27c0,2.96,2.67,2.2,4.31,2.68s.73,2.55-1.96,1.64c-.19-.06-2.54-1.79-2.03-.57.57,1.36,3.52,1.94,4.87,1.8.34,2.2-1.67,1.78-3.03.92-2.42-1.52-3.41-4.54-3.39-7.29,0-.36.42-3.93,1.23-3.11Z"/>
                <path class="cls-3" d="M86.13,27.25c-2.37-2.61,1.41-6.61,4.1-4.3,3.1,2.67-1.45,7.22-4.1,4.3Z"/>
                <path class="cls-3" d="M111.12,25.84c2.99-3.01,6.99,2.27,3.44,4.61-2.8,1.85-5.74-2.29-3.44-4.61Z"/>
                <path class="cls-19" d="M116.18,82.55c-2.72,1.04-4.85,3.16-6.8,5.24-.4-3.95,4.42-13.07,6.8-5.24Z"/>
                <path class="cls-3" d="M94.78,76.03c.03-.65-.03-1.31,0-1.96,1.43.79,9.65-1.27,10.05-.96.11.08-.05.5,0,.63-2.31,3.02-6.69,3.61-10.06,2.29Z"/>
                <path class="cls-19" d="M86.67,78.65l-1.62,4.57-1.94-.66c-.36-.5,2.42-4.11,3.57-3.91Z"/>
                <path class="cls-6" d="M105.84,54.13l1.92-.31c.32,1.44-.64.88-1.41,1.36-.51.33-.51,1.29-1.35.92-.57-.25-.41-3.09-2.52-4s-3.18.82-4.18,2.16-1.58.66-.89-.9c1.9-4.31,7.35-3.83,8.43.76Z"/>
                <path class="cls-6" d="M98.67,61.01c.09.1,0,1.38-.07,1.72-1.05,4.76-9.61,5.07-10.58,1-.52-2.18,2.04.63,2.64.94,2.1,1.1,5.32.36,6.46-1.79.14-.26.59-2.85,1.55-1.87Z"/>
                <path class="cls-6" d="M88.29,54.14c-.97.72-.98-3.15-2.83-3.53-2.93-.61-3.03,2.79-3.82,3.21-.67.36-.39-.68-.54-.89-.28-.39-1.55-.18-1.24-.9.3-.67,1.05-.2,1.3-.35.96-.57,1.09-2.37,3.48-2.69,3.22-.44,4.91,4.22,3.64,5.16Z"/>
                <path class="cls-6" d="M91.21,56.11v.98c-1.78-.39-3.1,1.06-1.64,2.47.37.36,2.1.65,1.31,1.45-1.49,1.52-5.78-5.64.33-4.9Z"/>
                <path class="cls-6" d="M107.11,46.96c-.48.5-1.98-1.56-2.91-1.8-.88-.23-1.71-.17-2.61-.16-.15-2.44,4.02-1.07,5.02.34.24.33.73,1.38.49,1.62Z"/>
                <path class="cls-6" d="M87.92,42.43c.11.18.09,1.2.05,1.26-.09.11-1.84-.48-2.74-.31-.97.18-1.47,1.25-2.45,1.29-.47-2.23,4.48-3.37,5.14-2.24Z"/>
              </g>
              <g>
                <path class="cls-7" d="M131.55,117.57c-.78-.52-3.95-1.88-4.75-1.71-.23.05-.53.86-.85,1.18-3.23,3.16-8.62,3.99-9.62-1.5-4.71.22-7.82,4.26-11.34,6.88-.28.63,2.91,5.59,4.39,5.23.34-1.78.55-4.45,1.28-6.07.22-.49.33-.92.99-.79l-1.62,8.17h2.58c0,.28.06.54.15.8,0,.02,0,.04.01.06-.12.08-.23.16-.34.26-.13.17-.26.34-.39.51-.23.39-.34.81-.34,1.27v.79c-.01.35.06.67.22.97.1.31.27.58.52.81.06.07.14.12.21.17.04.17.09.33.17.48.1.31.27.58.52.81.23.25.49.42.8.52.3.16.62.23.96.22.22-.03.44-.06.66-.09.42-.12.79-.33,1.1-.65.13-.17.26-.34.39-.51.23-.39.34-.81.34-1.27v-.45c.01-.35-.06-.67-.22-.97-.03-.1-.09-.19-.14-.29.02-.04.04-.07.06-.11.12-.28.26-.57.35-.87.03-.1.05-.21.07-.31.05-.32.11-.65.12-.97,0-.11,0-.22,0-.32-.02-.28-.06-.57-.11-.85h10.14l-.16-4.25c1.38.58.86,3.07,1.46,4.25h8.11c-.28-3.88-2.43-9.18-5.73-11.38Z"/>
                <path class="cls-15" d="M101.27,128.95c-1.31-1.32-2.86-2.48-4.06-3.92-.5-.59-1.39-2.48-1.52-2.56-.32-.21-1.98-.18-2.97-.76-1.2-.7-3.15-2.82-2.81-4.36,1.26-.82,1.45,1.87,2.92,1.79.63-.69-3.28-3.57-1.42-4.21,1.57-.54,1.55,2.22,3.37,1.92-.36-1.34-1.68-1.81-2.12-3.26s-.29-2.27,1.16-1.17c.38.29,2.61,2.82,2.75,3.13.5,1.12-1.31,2.52,0,3.58.43-.75,1.38-5.39,2.6-3.6.89,1.3-.66,4.01-.46,4.69.06.19,2.64,2.38,2.99,2.57,1.09.59,2.47.46,2.77.64.15.09,1.35,2.44,1.73,3,.79,1.17,2.08,1.34.27,2.51h-5.19Z"/>
                <path class="cls-8" d="M129.17,128.95h-1.3l-.16-4.25c1.38.58.86,3.07,1.46,4.25Z"/>
                <path class="cls-15" d="M123.65,74.73l-1.62,8.16c.96.15.58-.87,1.45-1,1.76-.27,7.79.81,8.96,2.14.61.69-1.04,1.38.13,2.13,1.76-2.29,2.85-5.06,4.86-7.18.52-.56,1.65-1.87,2.44-.97.35.4-6.28,7.21-5.84,8.98.89.68.7-1.1,1.45-.81,1.54.6,3.85,5.83,4.23,7.5,3.45,15.05-13.92,26.36-26.67,18.69-12.66-7.62-6.59-27.27,6.55-30.12l.81.99c.54-1.12,1.33-8.18,1.66-8.46.22-.18,1.18.04,1.59-.03ZM116.84,88.77c-.21-2.72-5.91-.31-4.86.65.18.17,3.93-1.26,4.86-.65ZM132.41,92.69c.83-2.18-4.55-3.91-4.53-2.45,0,.45,1.87.65,2.36.89.85.42,1.17,1.53,2.18,1.56ZM112.22,92.75c-5.32.79-5.14,12.16.86,9.7,4.5-1.84,3.92-10.41-.86-9.7ZM125.85,94.72c-7.26,1.08-4.94,14.01,1.82,10.01,4.7-2.78,3.62-10.81-1.82-10.01ZM113.63,105.79c-.88.57.23,3.5.73,4.27,2.42,3.71,8.33,2.27,8.91-1.93.49-3.56-3.43-1.36-5.29-1.36-1.1,0-3.88-1.27-4.35-.97Z"/>
                <path class="cls-12" d="M140.76,72.51c5.15-1.2,4.71,6.67-.25,5.01-1.97-.66-2.28-4.42.25-5.01Z"/>
                <path class="cls-12" d="M122.27,68.59c4.9-1.11,4.89,6.2,0,5.09-2.49-.56-2.49-4.52,0-5.09Z"/>
                <path class="cls-12" d="M117.82,116.87c-.22-.55-.44-1-.32-1.63,2.78.29,5.68.67,8.43,0,.26,1.14-.83,1.17-.97,1.31-2.27.85-4.78.85-7.14.33Z"/>
                <path class="cls-15" d="M117.82,116.87c2.35.52,4.86.52,7.14-.33-1.88,1.75-5.83,3.57-7.14.33Z"/>
                <path class="cls-8" d="M125.85,94.72c5.44-.81,6.52,7.22,1.82,10.01-6.75,4-9.08-8.93-1.82-10.01ZM126.25,100.86c.11.11,1.24.04,1.48-.31.32-.46.23-1.8-.35-1.98-1.36-.43-1.31,2.1-1.13,2.28Z"/>
                <path class="cls-8" d="M112.22,92.75c4.78-.71,5.36,7.86.86,9.7-6,2.45-6.18-8.91-.86-9.7ZM112.63,98.9c.11.11,1.24.04,1.48-.31.32-.46.23-1.8-.35-1.98-1.36-.43-1.31,2.1-1.13,2.28Z"/>
                <path class="cls-6" d="M113.63,105.79c.47-.3,3.25.97,4.35.97,1.86,0,5.77-2.19,5.29,1.36-.57,4.2-6.49,5.65-8.91,1.93-.5-.76-1.61-3.7-.73-4.27ZM121.71,109.03c-1.95-.11-4.72-.26-4.86,2.28,2.03.23,4.23-.04,4.86-2.28Z"/>
                <path class="cls-6" d="M132.41,92.69c-1-.03-1.33-1.14-2.18-1.56-.49-.24-2.35-.44-2.36-.89-.01-1.46,5.36.26,4.53,2.45Z"/>
                <path class="cls-6" d="M116.84,88.77c-.93-.6-4.68.82-4.86.65-1.05-.96,4.65-3.37,4.86-.65Z"/>
                <path class="cls-4" d="M126.25,100.86c-.18-.18-.23-2.71,1.13-2.28.58.18.66,1.52.35,1.98-.24.35-1.37.42-1.48.31Z"/>
                <path class="cls-4" d="M112.63,98.9c-.18-.18-.23-2.71,1.13-2.28.58.18.66,1.52.35,1.98-.24.35-1.37.42-1.48.31Z"/>
                <path class="cls-1" d="M121.71,109.03c-.63,2.24-2.83,2.51-4.86,2.28.14-2.55,2.91-2.4,4.86-2.28Z"/>
              </g>
              <g>
                <path class="cls-10" d="M74.99,114.25c-.32-.26-1.23-.64-1.27-.7-.14-.2.35-.94.3-1.41-.04-.44-.5-.74-.56-1.06-.36-1.85,2.21-.72,3.32-.72.54,0,6.2-.94,5.03-1.99-.17-.15-3.49.93-4.37.99-1.01.07-3.46.06-4.1-.8-.55-.74-.05-1.73-.6-2.67-.77-1.33-2.93-.73-4.07-3.41-6.84-16.12,14.32-28.77,21.17-11.84,3.95,9.77-.96,17.87-9.65,22.15-.47.23-.81-.07-.65.8,8.04-1.42,12.98-10.17,12.65-17.96,3.77,3.3,2.63,8.22,1.3,12.41.8.17.57-.18.84-.61,1.21-1.94,1.64-5.03,1.11-7.23,1.87,1.25,3.77,5.52,3.57,7.67-.06.66-3.61,3.97-4.1,4.06s-3.76-3.27-3.36,1.98c-.87.02-1.09-.86-1.87-1.22-2.42-1.12-4.59.81-2.35,2.85-1.1.03-2.36-.66-3.41-.65-.88,0-1.5.57-2.1.66-2.39.33-4.51-.99-6.81-1.31ZM79.8,85.25c-10.72.59-11.45,18.72-.06,20.14,14.84,1.85,11.85-20.79.06-20.14Z"/>
                <path class="cls-2" d="M81.8,115.56v1.96c-2.65-.13-4.84-1.64-6.81-3.27,2.31.31,4.42,1.64,6.81,1.31Z"/>
                <path class="cls-8" d="M79.8,85.25c11.78-.65,14.78,22-.06,20.14-11.38-1.42-10.65-19.55.06-20.14ZM78.48,86.56c-8.36,1.44-8.23,16.67,1.58,17.85,13.25,1.6,10.68-19.96-1.58-17.85Z"/>
                <path class="cls-5" d="M78.48,86.56c12.25-2.11,14.83,19.45,1.58,17.85-9.81-1.18-9.94-16.41-1.58-17.85ZM83.75,94.98c-.1.12,0,1.03.16,1.31,1.04,1.79,4.93-.9,2.76-2.29-.17,2.96-2.76.8-2.92.98ZM79.78,98.81c.4-.36,1.13-2.58.24-2.52-.4.03-.43,1.78-1.68,1.88-.73.06-1.74-1.25-2.05-.91-.75.81,1.97,2.91,3.48,1.55ZM85.37,99.23c-1.13.1-.75,1.26-2.25,1.5-.93.15-1.59-.58-2.44-.52-.81.88.92,1.56,1.65,1.63,1.46.15,3.38-.9,3.05-2.61Z"/>
                <path class="cls-6" d="M85.37,99.23c.33,1.71-1.59,2.76-3.05,2.61-.72-.08-2.46-.76-1.65-1.63.85-.06,1.51.67,2.44.52,1.51-.24,1.13-1.4,2.25-1.5Z"/>
                <path class="cls-6" d="M79.78,98.81c-1.52,1.37-4.23-.74-3.48-1.55.31-.34,1.32.97,2.05.91,1.24-.1,1.27-1.86,1.68-1.88.88-.06.16,2.16-.24,2.52Z"/>
                <path class="cls-6" d="M83.75,94.98c.16-.18,2.75,1.98,2.92-.98,2.16,1.39-1.73,4.08-2.76,2.29-.16-.28-.26-1.19-.16-1.31Z"/>
              </g>
            </g>
          </g>
        </g>
      </g>
    </g>
  </g>
</svg>