<?xml version="1.0" encoding="UTF-8"?>
<svg xmlns="http://www.w3.org/2000/svg" xmlns:xlink="http://www.w3.org/1999/xlink" viewBox="0 0 98.05 106.28">
  <defs>
    <style>
      .cls-1 {
        fill: #8dc23f;
      }

      .cls-2 {
        fill: #bce5f1;
      }

      .cls-3 {
        fill: #67bfeb;
      }

      .cls-4 {
        fill: #ea5537;
      }

      .cls-5 {
        fill: #fff;
      }

      .cls-6 {
        fill: #f6c514;
      }

      .cls-7 {
        mix-blend-mode: multiply;
        opacity: .25;
      }

      .cls-8 {
        fill: none;
      }

      .cls-9 {
        fill: url(#radial-gradient);
      }

      .cls-10 {
        clip-path: url(#clippath-1);
      }

      .cls-11 {
        fill: #a2cd3a;
      }

      .cls-12 {
        fill: #58ace0;
      }

      .cls-13 {
        isolation: isolate;
      }

      .cls-14 {
        fill: #df4f26;
      }

      .cls-15 {
        fill: #67a844;
      }

      .cls-16 {
        fill: #e21f26;
      }

      .cls-17 {
        mix-blend-mode: soft-light;
        opacity: .11;
      }

      .cls-18 {
        fill: #fae001;
      }

      .cls-19 {
        mix-blend-mode: screen;
        opacity: .17;
      }

      .cls-20 {
        fill: #b5d334;
      }

      .cls-21 {
        fill: #85c441;
      }

      .cls-22 {
        fill: #ffc226;
      }

      .cls-23 {
        clip-path: url(#clippath);
      }
    </style>
    <clipPath id="clippath">
      <rect class="cls-8" x="506.18" y="200.83" width="360" height="506.64"/>
    </clipPath>
    <clipPath id="clippath-1">
      <rect class="cls-8" x="95.83" y="54.2" width="1295.74" height="729.17"/>
    </clipPath>
    <radialGradient id="radial-gradient" cx="-161.04" cy="394.76" fx="-161.04" fy="394.76" r="308.95" gradientTransform="translate(1081.41 -47.05) scale(2.1 1.18)" gradientUnits="userSpaceOnUse">
      <stop offset="0" stop-color="#20366b"/>
      <stop offset=".39" stop-color="#1c3263"/>
      <stop offset="1" stop-color="#13274d"/>
      <stop offset="1" stop-color="#13274d"/>
    </radialGradient>
  </defs>
  <g class="cls-13">
    <g id="Layer_1" data-name="Layer 1">
      <g class="cls-23">
        <g class="cls-10">
          <rect class="cls-9" x="95.83" y="54.2" width="1295.74" height="729.17"/>
          <g>
            <g class="cls-17">
              <path class="cls-5" d="M1503.21,16.38l-183.71-236.13C1178.18-75.72,1075,42.23,951.93-1.33c-52.77-18.68-80.03-51.6-175.35,60.04-212.19,248.52-213.44,74.95-278.94,67.91-46.65-5.01-94.99,71.01-125.71,100.98-30.23,29.49-78.38,50.15-113.94,27.37-10.3-6.6-18.4-16.24-28.77-22.74-28.02-17.55-65.92-7.83-92.65,11.63-46.15,33.59-89.25,117.51-158.58,106.36-55.77-8.96-54.8-41.6-154.39,173.36l21.39,61.15,31.56,79.88c19.55,43.48,82.03,60.25,120.72,32.41,43.28-31.15,56.07-103.7,108.8-111.6,29.13-4.36,56.15,14.79,84.92,21.1,105.69,23.18,173.89-110.16,204.33-155.41,23.54-34.99,38.77-34.11,72.51-19.03,207.38,92.68,264.77-113.45,323.73-133.95,19.11-6.64,39.67,2.43,58.34,10.2,229.39,95.41,239.1-112.07,358.9-142.29,78.54-19.81,187.73,37.77,269.68,3.5,19.58-8.19,82.36-39.65,82.36-39.65l-57.63-113.53-162.32-174.98,162.32,174.98Z"/>
            </g>
            <g class="cls-17">
              <path class="cls-5" d="M1442.58,41.12c-70.79,71.65-192.52,49.64-282.53,94.81-40.93,20.54-69.39,67.16-105.8,94.95-98.26,74.97-144.43,37.1-186.23,29.24-166.72-31.36-201.62,139.85-292.3,152.64-75.13,10.59-115.22-63.19-162.42-46.67-55.71,19.5-73.38,119.65-153.38,156.69-80.41,37.23-200.3-66.75-262.39,62.24-18.08,37.56-55.18,74.25-96.38,68l-16.69-23.31c43.39-72.82,81.84-191.1,148.97-242.83,149.26-115.03,174.09,13.12,245.88-26.62,96.17-53.23,103.95-105.16,180.03-121.71,64.81-14.1,98.01,56.32,190.19,24.05,77.18-27.02,134.29-157.22,205.36-195.53,128.71-69.38,185.99,102.45,454.16-102.55l133.53,76.61Z"/>
            </g>
          </g>
        </g>
      </g>
      <g>
        <g>
          <path class="cls-14" d="M97.86,57.81c.03.96.03,1.9,0,2.85,0,.07,0,.12,0,.18,0,.12,0,.25-.03.37,0,.06,0,.11,0,.16-.06,1.49-.21,2.95-.41,4.4,0,.07-.02.15-.03.22-.09.54-.18,1.1-.27,1.64-.05.21-.09.44-.15.65-.03.14-.04.28-.09.42,0,.02,0,.03,0,.05-.03.11-.03.22-.06.33-.08.35-.15.71-.26,1.06,0,0-.02,0-.03,0-.37,1.53-.8,3.03-1.32,4.5-.09.24-.18.48-.27.72-.03.09-.07.18-.1.26-.18.47-.39.92-.59,1.39,0,0,.03,0,.04-.02-.16.38-.35.74-.52,1.11-.15.35-.31.68-.47,1.02-.33.68-.69,1.35-1.06,2.02-.16.3-.32.59-.49.88-.39.68-.8,1.34-1.22,1.99-.19.29-.37.58-.57.86-.4.6-.82,1.2-1.26,1.77-.13.18-.25.37-.39.55-.12.15-.25.29-.37.45-.19.24-.36.49-.55.73-1.12,1.34-2.3,2.63-3.57,3.86-.02,0-.04.02-.07.02-1.11,1.09-2.27,2.14-3.49,3.12-.09.07-.21.14-.3.22-.86.68-1.72,1.32-2.62,1.95-1.22.85-2.51,1.62-3.83,2.36-.39.22-.78.45-1.18.67-4.27,2.23-8.92,3.86-13.85,4.78-.49.09-.98.18-1.48.26-2.14.35-4.32.57-6.55.63-.97.03-1.94.02-2.89,0-.51-.02-1.01-.03-1.51-.07-2.01-.12-3.98-.35-5.91-.7-.13-.02-.25-.04-.38-.07-.36-.06-.71-.13-1.06-.21-.48-.1-.95-.21-1.43-.31-.13-.02-.25-.05-.38-.08-3.7-.91-7.24-2.2-10.56-3.87-.69-.34-1.36-.71-2.03-1.09-1.04-.58-2.05-1.18-3.04-1.83-1-.65-1.97-1.34-2.89-2.06h0s0,0,0,0c-.11-.08-.21-.18-.33-.27-.76-.59-1.49-1.2-2.21-1.84h-.02c-.35-.32-.68-.65-1.02-.97-.02,0-.04,0-.06,0h0c-.25-.24-.47-.49-.71-.72-.2-.2-.39-.39-.58-.59-.45-.45-.89-.92-1.33-1.39-.11-.12-.23-.24-.34-.36-.13-.14-.24-.29-.37-.44-.2-.22-.4-.44-.6-.67-.62-.75-1.21-1.52-1.79-2.3-.03-.04-.07-.09-.1-.13-.39-.54-.78-1.1-1.15-1.65-.05-.08-.1-.16-.15-.24-.35-.54-.7-1.07-1.03-1.62-.05-.09-.1-.18-.15-.27-.33-.54-.64-1.1-.94-1.67-.04-.08-.09-.16-.13-.25-.31-.59-.61-1.17-.89-1.77-.03-.05-.05-.11-.08-.16-.29-.63-.58-1.28-.85-1.93,0,0,0-.02,0-.02-.33-.82-.64-1.64-.94-2.47-.07-.18-.14-.37-.21-.56-.03-.09-.05-.18-.09-.27,0-.04-.03-.09-.04-.13h0c-.38-1.12-.7-2.25-.96-3.41-.08-.3-.15-.63-.23-.94-.03-.15-.05-.31-.09-.45,0,0,0,0,0,0-.06-.31-.13-.63-.19-.95-.03-.16-.04-.33-.08-.49-.12-.7-.22-1.41-.31-2.12-.03-.22-.07-.43-.09-.65,0,0,0-.02,0-.03-.03-.21-.04-.41-.06-.63-.03-.35-.07-.72-.09-1.07-.03-.16-.03-.35-.03-.52-.04-.43-.05-.85-.07-1.28-.04-1.53,0-3.04.09-4.54.06-.98.16-1.95.28-2.93.02-.08.03-.16.04-.24.03-.2.05-.4.09-.59.03-.2.08-.39.1-.59t-.02,0c.02-.08.03-.16.04-.24.03-.2.08-.39.11-.58,0-.04.02-.09.03-.13.06-.33.12-.66.19-.98.06-.29.13-.57.19-.85.07-.31.15-.63.23-.96.14-.56.29-1.12.46-1.67.12-.45.26-.88.4-1.31.09-.29.19-.59.29-.87.11-.31.22-.62.34-.92.12-.31.24-.63.36-.94.07-.16.12-.32.19-.48.05-.16.12-.32.19-.48.11-.26.21-.51.33-.76.04-.09.08-.17.12-.26.04-.07.08-.14.11-.21.02-.02.03-.05.03-.07h0c.45-.97.93-1.92,1.44-2.86.52-.96,1.09-1.89,1.68-2.8.06-.1.11-.19.19-.28.45-.72.95-1.41,1.46-2.08t0-.02s.03-.05.06-.07c.27-.35.54-.71.82-1.06h.02c1.24-1.58,2.57-3.08,3.99-4.49.33-.32.66-.64,1-.96.31-.3.63-.59.95-.86.41-.37.83-.73,1.27-1.08.09-.08.2-.16.3-.24.33-.28.68-.54,1.02-.81.21-.18.45-.36.69-.52,2.65-1.97,5.51-3.69,8.58-5.1,1.23-.57,2.48-1.08,3.77-1.57,4.96-1.81,10.32-2.88,15.93-3.05,5.68-.16,11.16.61,16.28,2.18.35.11.7.22,1.05.33,1.56.51,3.05,1.09,4.54,1.74.46.2.91.43,1.36.64,2.2,1.06,4.31,2.25,6.31,3.6.24.16.48.32.71.49.63.43,1.24.87,1.84,1.33,0,0,.02.02.03.02.13.09.26.19.37.29.39.31.77.64,1.15.96h0c1.7,1.43,3.3,2.95,4.79,4.59.79.87,1.56,1.77,2.29,2.71,0,0,.02,0,.02.02.26.33.5.67.75,1.01.04.06.09.12.13.18h0s.04.06.06.09c.04.06.09.11.12.16.15.2.29.38.43.58.03.02.04.06.06.08.04.07.08.12.13.18.17.25.32.52.48.77.05.07.1.14.15.21h0c.31.48.63.96.92,1.44.61,1.01,1.18,2.05,1.72,3.11.05.11.09.21.15.31.07.15.15.29.21.43.21.45.39.91.59,1.36,0,0,0,0,.02,0,.07.16.13.34.2.5.28.67.56,1.34.81,2.04.14.37.27.75.4,1.14.1.32.21.64.31.97.1.3.19.6.28.9.13.46.26.93.38,1.4.09.37.2.74.28,1.12.05.2.08.41.12.61.11.5.21,1,.29,1.5.06.34.14.67.2,1.01,0,.07,0,.13.02.19,0,.03,0,.06,0,.09.03.19.04.38.07.57.03.21.07.4.09.62.02.09.03.18.03.27,0,0,0,0,0,0,0,.02,0,.05,0,.08.15,1.22.26,2.46.3,3.7Z"/>
          <path class="cls-22" d="M89.01,32.07s-.05.07-.09.11c-.94,1.17-2.19,2.14-3.84,2.94-.38.17-.76.29-1.17.34-3.91.57-10.24-7.36-14.5-4.6-4.69,3.05,1.52,11.71-8.33,13.89-9.85,2.19-10.58-5.78-21.59-3.15-4.78,1.14-11.77,17.21-21.5,12.42-9.73-4.8,5.09-22.89,3.76-26.67-.76-2.17-2.58-3.01-4.31-4.03.33-.28.68-.54,1.02-.81.21-.18.45-.36.69-.52,2.65-1.97,5.51-3.69,8.58-5.1,1.23-.57,2.48-1.08,3.77-1.57,4.96-1.81,10.32-2.88,15.93-3.05,5.68-.16,11.16.61,16.28,2.18.35.11.7.22,1.05.33,1.56.51,3.05,1.09,4.54,1.74.46.2.91.43,1.36.64,2.2,1.06,4.31,2.25,6.31,3.6-.05-.07-.1-.13-.15-.2.98.65,1.95,1.33,2.88,2.04.12.1.25.19.36.3,3.09,2.42,5.85,5.18,8.24,8.25,0,0,.02,0,.02.02.23.31.46.6.69.91Z"/>
          <path class="cls-22" d="M58.44,105.42c10.39-19.97-13.26-21.26-5.9-31.54,7.88-11,17.64-1.08,23.47-6.05,8.5-7.19-7.91-14.99-3.64-21.18,8.3-12.02,19.98.2,23.58-.96,8.45,26.95-9.46,54.54-37.51,59.73Z"/>
          <path class="cls-22" d="M36.11,94.2c-.48,4.19.85,8.11,3.63,11.21,0,0,0,0,.02,0-6.64-1.06-14.87-4.41-21.4-9.46h0s0,0,0,0c-.09-.07-1.7-1.36-2.53-2.11h-.02c-.35-.32-.68-.65-1.02-.97-.02,0-.04,0-.06,0h0c-4.43-4.12-8.64-9.86-11.21-16.15,0,0,0-.02,0-.02-.73-1.78-1.24-3.36-1.27-3.44h0c-.99-2.94-1.79-6.93-1.95-9.02-.09-.08-.43-4.17-.16-8.06,11.27-.3,9.11,11.12,18.89,13.45,8.77,2.09,5.26-5.35,21.32-11.18,5.85-2.12,9.04,1.5,9.25,7.48.44,12.06-12.68,20.64-13.47,28.27Z"/>
          <g class="cls-7">
            <path class="cls-4" d="M98,60.67c0,.18-.02.36-.03.54-.08,2.19-.33,4.33-.73,6.43-.06.35-.13.71-.21,1.06-.42,2.03-.99,4.02-1.68,5.95-.12.34-.25.67-.38.99-1.61,4.16-3.83,8.05-6.52,11.57-1.07,1.39-2.21,2.7-3.44,3.97-1.42,1.48-2.97,2.89-4.6,4.2-.95.76-1.91,1.48-2.92,2.17-1.6,1.1-3.27,2.11-5.01,3.03-4.32,2.25-9.03,3.91-14.03,4.83-2.06.39-4.17.64-6.33.77-.51.03-1.01.06-1.52.07h-.15c-.97.03-1.94.02-2.89,0-.51-.02-1.01-.03-1.51-.07-2.01-.12-3.98-.35-5.91-.7-.13-.02-.27-.05-.39-.07-.35-.06-.7-.13-1.05-.21-.48-.1-.95-.21-1.43-.31-3.79-.91-7.41-2.24-10.79-3.94-1.75-.87-3.45-1.86-5.07-2.93-1-.65-1.97-1.34-2.9-2.07-.87-.66-1.71-1.37-2.53-2.11h-.02c-1.43-1.27-2.77-2.61-4.06-4.04-1.11-1.24-2.14-2.54-3.11-3.89.02.02.03.03.05.04,1.62,1.07,3.32,2.05,5.07,2.93,6,3.01,12.72,4.87,19.83,5.24,1.42.08,2.85.1,4.3.06,7.93-.24,15.35-2.27,21.87-5.67.33-.17.67-.35,1-.54,1.39-.77,2.73-1.6,4.02-2.49,1-.69,1.97-1.41,2.92-2.17,1.63-1.3,3.18-2.71,4.6-4.2,1.23-1.27,2.37-2.59,3.44-3.97.15-.2.3-.4.44-.59,2.5-3.36,4.56-7.04,6.09-10.98.13-.32.26-.65.38-.99.22-.63.44-1.25.64-1.9,0,0,0,0,0,0,.41-1.32.76-2.67,1.05-4.04.09-.35.15-.71.21-1.06.18-.92.33-1.86.44-2.8.15-1.2.25-2.4.29-3.63.02-.18.03-.36.03-.54.03-.95.03-1.9,0-2.86-.06-1.77-.22-3.53-.49-5.24,0-.1-.02-.19-.03-.28-.25-1.62-.58-3.2-1-4.76-.72-2.7-1.69-5.3-2.88-7.78-.11-.26-.23-.49-.35-.75-.96-1.91-2.05-3.77-3.25-5.53-.07-.08-.12-.17-.19-.26-.09-.13-.18-.26-.27-.38-.05-.07-.1-.13-.15-.2.98.65,1.95,1.33,2.88,2.04.12.1.25.19.36.3,3.09,2.42,5.85,5.18,8.24,8.25,0,0,.02,0,.02.02.23.31.46.6.69.91.27.37.54.75.81,1.13.07.08.12.17.19.26,1.2,1.76,2.29,3.62,3.25,5.53.12.26.24.49.35.75.92,1.91,1.7,3.9,2.34,5.95.67,2.14,1.18,4.34,1.53,6.6.02.09.03.18.03.28.27,1.72.43,3.47.49,5.24.03.96.03,1.91,0,2.86Z"/>
          </g>
          <g class="cls-19">
            <path class="cls-5" d="M72.21,37.53c0,21.94-18.51,39.72-41.35,39.72-12.12,0-23.03-5.01-30.59-13-.06-.57-.11-1.15-.15-1.73-.03-.17-.04-.35-.04-.52-.04-.43-.05-.85-.06-1.28-.08-2.54.06-5.02.38-7.46.01-.09.03-.16.04-.24.54-4.06,1.64-7.95,3.21-11.59.11-.26.22-.51.33-.75.97-2.16,2.11-4.24,3.4-6.22.06-.1.11-.18.19-.28.44-.72.95-1.41,1.45-2.08t.01-.02c2.66-3.61,5.83-6.83,9.43-9.55.22-.18.44-.36.68-.52,2.66-1.97,5.52-3.68,8.58-5.09,1.23-.57,2.48-1.08,3.77-1.57,4.96-1.81,10.31-2.88,15.93-3.05,5.68-.16,11.16.61,16.28,2.18.35.11.71.22,1.05.33,4.69,6.44,7.45,14.28,7.45,22.75Z"/>
          </g>
        </g>
        <g>
          <polygon class="cls-1" points="16.47 27.8 15.55 28.05 13.62 20.96 14.53 20.7 16.47 27.8"/>
          <polygon class="cls-1" points="26.37 23.51 25.54 23.97 22.04 17.51 22.87 17.05 26.37 23.51"/>
          <polygon class="cls-1" points="34.98 17.3 34.31 17.98 29.1 12.82 29.76 12.14 34.98 17.3"/>
          <path class="cls-15" d="M31.37,12.97c-1.24,3.33-3.64,6.24-6.98,8.08s-6.91,2.26-10.29,1.58c2.69-1.04,5.58-2.39,8.47-3.97,3.26-1.79,6.29-3.75,8.81-5.69Z"/>
          <path class="cls-1" d="M31,8.81c-.25-.06-1.42-.07-3.76.67-2.17.69-4.75,1.83-7.27,3.21s-4.87,2.95-6.62,4.41c-1.89,1.58-2.52,2.57-2.6,2.82.04-.11.08-.51-.16-.97l-4.43,2.43c-.39-.72-.51-1.56-.36-2.42.1-.59.33-1.18.69-1.8.53-.91,1.38-1.92,2.51-2.97,2.11-1.97,5.15-4.08,8.55-5.95s6.81-3.29,9.6-4c1.5-.39,2.79-.56,3.85-.51.72.03,1.33.16,1.88.39.81.34,1.44.89,1.83,1.61l-4.43,2.43c.24.45.61.63.72.66Z"/>
          <path class="cls-11" d="M30.54,8.97c-.24-.05-1.34-.03-3.58.7-2.07.68-4.54,1.78-6.95,3.1s-4.67,2.81-6.36,4.2c-1.82,1.49-2.44,2.42-2.52,2.65.04-.1.09-.48-.13-.89l-4.24,2.33c-.35-.65-.46-1.42-.29-2.22.11-.54.34-1.09.69-1.67.52-.85,1.34-1.79,2.44-2.79,2.04-1.86,4.96-3.87,8.22-5.65s6.52-3.17,9.18-3.89c1.43-.39,2.66-.57,3.65-.55.68.01,1.26.12,1.77.32.76.29,1.34.79,1.7,1.45l-4.24,2.33c.22.41.57.57.67.59Z"/>
          <g>
            <path class="cls-3" d="M28.72,5.76c.36.66.64,1.34.85,2.02.12.39.22.79.3,1.19.38,2.02.19,4.08-.51,5.96-1.82,1.4-3.99,2.8-6.34,4.09-.14.08-.29.16-.43.24-1.93,1.04-3.85,1.93-5.66,2.62-2.09-.42-4.05-1.44-5.6-3-.16-.16-.31-.32-.47-.49-.54-.62-1.03-1.3-1.44-2.05-.33-.62-.6-1.25-.81-1.89-1.4-4.34.02-9.13,3.55-11.99.5-.41,1.05-.78,1.64-1.1C18.58-1.27,24.44.05,27.7,4.2c.38.48.72,1,1.02,1.56Z"/>
            <path class="cls-12" d="M28.72,5.76c.36.66.64,1.34.85,2.02.12.39.22.79.3,1.19.38,2.02.19,4.08-.51,5.96-1.82,1.4-3.99,2.8-6.34,4.09-.14.08-.29.16-.43.24C33.11,6.78,19.95-.21,12.16,2.45c.5-.41,1.05-.78,1.64-1.1C18.58-1.27,24.44.05,27.7,4.2c.38.48.72,1,1.02,1.56Z"/>
            <path class="cls-2" d="M12.76,5.11h0c-.16-.62-.95-.82-1.37-.34-1.5,1.72-2.31,3.99-2.17,6.35.03.54.11,1.09.25,1.63.17.67.4,1.29.7,1.88.08.16.17.32.26.48.19.32.39.62.61.9-.1-.22-.18-.44-.26-.66-1.16-3.29-.43-6.94,1.8-9.52.17-.2.24-.47.17-.72Z"/>
          </g>
          <path class="cls-1" d="M34.7,5.73c.39.72.51,1.55.36,2.42-.11.59-.33,1.18-.69,1.8-.53.91-1.38,1.91-2.51,2.97-.65.61-1.39,1.23-2.21,1.86-1.82,1.4-3.99,2.8-6.34,4.09-2.07,1.14-4.15,2.11-6.09,2.86-1.24.48-2.42.87-3.51,1.15-1.5.39-2.79.56-3.85.51-.72-.03-1.33-.16-1.88-.39-.81-.34-1.44-.89-1.83-1.61l4.43-2.43c-.24-.45-.61-.63-.72-.66.14.04.55.05,1.29-.06.33-.05.73-.13,1.2-.25.38-.09.8-.21,1.28-.36,2.17-.69,4.75-1.83,7.27-3.21s4.87-2.95,6.62-4.41c.38-.32.71-.61,1-.88.69-.66,1.12-1.16,1.35-1.5.15-.21.23-.36.25-.43-.04.11-.08.51.16.97l4.43-2.43Z"/>
          <path class="cls-11" d="M34.11,6.05c.35.65.46,1.42.29,2.22-.11.54-.34,1.09-.69,1.67-.52.85-1.34,1.79-2.44,2.79-.63.57-1.35,1.16-2.13,1.76-1.75,1.32-3.84,2.66-6.09,3.9-1.99,1.09-3.98,2.03-5.83,2.76-1.18.47-2.31.85-3.35,1.13-1.43.39-2.66.57-3.65.55-.68-.01-1.26-.12-1.77-.32-.76-.29-1.34-.79-1.7-1.45l3.25-2.74c-.22-.41.42-.15.32-.18.13.03.52.04,1.22-.08.32-.05.69-.14,1.14-.25.36-.09.77-.21,1.22-.36,2.07-.68,4.54-1.78,6.95-3.1s4.67-2.81,6.36-4.2c.37-.3.69-.58.96-.83.67-.62,1.08-1.09,1.31-1.41.15-.2.26-.49.28-.56-.04.1.43-.43.65-.02l3.69-1.26Z"/>
          <path class="cls-20" d="M8.25,14.94c-1.07,1.11-2.18,2.51-2.45,4.03-.15.86-.03,1.7.36,2.42l.6-.33c-1.76-2.66,1.22-5.8,1.5-6.1v-.02Z"/>
          <path class="cls-20" d="M31.7,13.06c-5.07,4.55-21.41,13.37-24.95,8l-.6.33c1.85,3.4,7.45,1.74,11.07.34,4.84-1.87,10.76-5.25,14.48-8.67h0Z"/>
          <g>
            <ellipse class="cls-18" cx="17.17" cy="19.01" rx="1.52" ry="1.53"/>
            <path class="cls-6" d="M17.32,17.49c.27.14.5.35.65.63.4.74.13,1.67-.61,2.08-.28.15-.59.21-.89.18.43.22.96.23,1.42-.02.74-.41,1.01-1.34.61-2.08-.25-.46-.7-.74-1.18-.79Z"/>
            <g>
              <ellipse class="cls-18" cx="28.11" cy="13.01" rx="1.52" ry="1.53"/>
              <path class="cls-6" d="M28.26,11.49c.27.14.5.35.65.63.4.74.13,1.67-.61,2.08-.28.15-.59.21-.89.18.43.22.96.23,1.42-.02.74-.41,1.01-1.34.61-2.08-.25-.46-.7-.74-1.18-.79Z"/>
            </g>
            <g>
              <ellipse class="cls-18" cx="31.67" cy="6.41" rx="1.52" ry="1.53"/>
              <path class="cls-6" d="M31.83,4.89c.27.14.5.35.65.63.4.74.13,1.67-.61,2.08-.28.15-.59.21-.89.18.43.22.96.23,1.42-.02.74-.41,1.01-1.34.61-2.08-.25-.46-.7-.74-1.18-.79Z"/>
            </g>
            <g>
              <ellipse class="cls-18" cx="8.37" cy="19.19" rx="1.52" ry="1.53"/>
              <path class="cls-6" d="M8.53,17.67c.27.14.5.35.65.63.4.74.13,1.67-.61,2.08-.28.15-.59.21-.89.18.43.22.96.23,1.42-.02.74-.41,1.01-1.34.61-2.08-.25-.46-.7-.74-1.18-.79Z"/>
            </g>
            <path class="cls-21" d="M17.94,20.43c-.78.43-1.76.14-2.18-.65s-.14-1.77.64-2.19,1.76-.14,2.18.65.14,1.77-.64,2.19ZM16.48,17.74c-.7.38-.95,1.26-.57,1.96s1.26.96,1.95.58.95-1.26.57-1.96-1.26-.96-1.95-.58Z"/>
            <path class="cls-21" d="M28.88,14.43c-.78.43-1.76.14-2.18-.65s-.14-1.77.64-2.19,1.76-.14,2.18.65.14,1.77-.64,2.19ZM27.42,11.74c-.7.38-.95,1.26-.57,1.96s1.26.96,1.95.58.95-1.26.57-1.96-1.26-.96-1.95-.58Z"/>
            <path class="cls-21" d="M32.44,7.83c-.78.43-1.76.14-2.18-.65s-.14-1.77.64-2.19,1.76-.14,2.18.65.14,1.77-.64,2.19ZM30.98,5.14c-.7.38-.95,1.26-.57,1.96s1.26.96,1.95.58.95-1.26.57-1.96-1.26-.96-1.95-.58Z"/>
            <path class="cls-21" d="M9.14,20.61c-.78.43-1.76.14-2.18-.65s-.14-1.77.64-2.19,1.76-.14,2.18.65.14,1.77-.64,2.19ZM7.68,17.92c-.7.38-.95,1.26-.57,1.96s1.26.96,1.95.58.95-1.26.57-1.96-1.26-.96-1.95-.58Z"/>
          </g>
          <path class="cls-16" d="M14.8,28.22c-.38.09-.73-.24-.65-.63.14-.65.63-1.2,1.32-1.37s1.38.09,1.8.6c.25.31.1.77-.28.86l-2.18.54Z"/>
          <path class="cls-16" d="M25.42,24.82c-.42.23-.93-.09-.9-.57.03-.6.36-1.17.92-1.47s1.21-.28,1.73.02c.41.24.41.84-.01,1.07l-1.74.95Z"/>
          <path class="cls-16" d="M34.12,18.15c-.33.34-.92.19-1.03-.28-.14-.58,0-1.22.46-1.68.45-.46,1.08-.62,1.66-.49.47.11.63.69.3,1.03l-1.39,1.42Z"/>
        </g>
      </g>
    </g>
  </g>
</svg>