<?xml version="1.0" encoding="UTF-8"?>
<svg xmlns="http://www.w3.org/2000/svg" xmlns:xlink="http://www.w3.org/1999/xlink" viewBox="0 0 360 506.64">
  <defs>
    <style>
      .cls-1 {
        fill: #fff;
      }

      .cls-2 {
        fill: none;
      }

      .cls-3 {
        fill: url(#radial-gradient);
      }

      .cls-4 {
        clip-path: url(#clippath-1);
      }

      .cls-5 {
        isolation: isolate;
      }

      .cls-6 {
        mix-blend-mode: soft-light;
        opacity: .11;
      }

      .cls-7 {
        clip-path: url(#clippath);
      }
    </style>
    <clipPath id="clippath">
      <rect class="cls-2" y="0" width="360" height="506.64"/>
    </clipPath>
    <clipPath id="clippath-1">
      <rect class="cls-2" x="-410.34" y="-146.63" width="1295.74" height="729.17"/>
    </clipPath>
    <radialGradient id="radial-gradient" cx="-667.22" cy="193.93" fx="-667.22" fy="193.93" r="308.95" gradientTransform="translate(1636.69 -10.89) scale(2.1 1.18)" gradientUnits="userSpaceOnUse">
      <stop offset="0" stop-color="#20366b"/>
      <stop offset=".39" stop-color="#1c3263"/>
      <stop offset="1" stop-color="#13274d"/>
      <stop offset="1" stop-color="#13274d"/>
    </radialGradient>
  </defs>
  <g class="cls-5">
    <g id="Layer_1" data-name="Layer 1">
      <g class="cls-7">
        <g class="cls-4">
          <rect class="cls-3" x="-410.34" y="-146.63" width="1295.74" height="729.17"/>
          <g>
            <g>
              <g class="cls-6">
                <path class="cls-1" d="M997.03-184.46l-183.71-236.13c-141.33,144.04-244.51,261.99-367.58,218.43-52.77-18.68-80.03-51.6-175.35,60.04C58.21,106.4,56.96-67.18-8.54-74.21-55.19-79.22-103.54-3.2-134.26,26.77c-30.23,29.49-78.38,50.15-113.94,27.37-10.3-6.6-18.4-16.24-28.77-22.74-28.02-17.55-65.92-7.83-92.65,11.63-46.15,33.59-89.25,117.51-158.58,106.36-55.77-8.96-54.8-41.6-154.39,173.36l21.39,61.15,31.56,79.88c19.55,43.48,82.03,60.25,120.72,32.41,43.28-31.15,56.07-103.7,108.8-111.6,29.13-4.36,56.15,14.79,84.92,21.1,105.69,23.18,173.89-110.16,204.33-155.41,23.54-34.99,38.77-34.11,72.51-19.03,207.38,92.68,264.77-113.45,323.73-133.95,19.11-6.64,39.67,2.43,58.34,10.2,229.39,95.41,239.1-112.07,358.9-142.29,78.54-19.81,187.73,37.77,269.68,3.5,19.58-8.19,82.36-39.65,82.36-39.65l-57.63-113.53-162.32-174.98,162.32,174.98Z"/>
              </g>
              <g class="cls-6">
                <path class="cls-1" d="M936.41-159.71c-70.79,71.65-192.52,49.64-282.53,94.81-40.93,20.54-69.39,67.16-105.8,94.95-98.26,74.97-144.43,37.1-186.23,29.24C195.12,27.93,160.22,199.14,69.54,211.92c-75.13,10.59-115.22-63.19-162.42-46.67-55.71,19.5-73.38,119.65-153.38,156.69-80.41,37.23-200.3-66.75-262.39,62.24-18.08,37.56-55.18,74.25-96.38,68l-16.69-23.31c43.39-72.82,81.84-191.1,148.97-242.83,149.26-115.03,174.09,13.12,245.88-26.62C-130.7,106.18-122.91,54.25-46.84,37.7c64.81-14.1,98.01,56.32,190.19,24.05,77.18-27.02,134.29-157.22,205.36-195.53,128.71-69.38,185.99,102.45,454.16-102.55l133.53,76.61Z"/>
              </g>
            </g>
            <g>
              <g class="cls-6">
                <path class="cls-1" d="M-501.15,482.68c-3.07-4.14-6.14-8.28-9.22-12.42,57.2,49.73,142.8,64.12,213.1,35.82,99.35-39.99,162.42-153.87,268.22-170.47,69.03-10.83,136.56,23.74,206.01,31.42,159.95,17.68,273.57-102.07,322.93-116.63,57.18-16.86,114.12,21.81,171.62,37.52,102.03,27.87,230.61-13.46,323.54-144.76l33.66-7.06,4.52,23.22-.97,25.45.63,72.99c-56.64,78.12-164.07,117.39-251.76,157.62-180.25,82.71-248.73-31.7-376.86-4.87-97.25,20.37-165.33,129.66-264.66,127.33-83.64-1.96-157.08-85.42-238.08-64.45-47.31,12.24-77.95,56.3-114.79,88.42-144.72,126.18-338.16,26.15-294.32,20.44l6.41-99.59Z"/>
              </g>
              <g class="cls-6">
                <path class="cls-1" d="M-521.82,569.63c138.27,85.85,240.55,42.76,345.25-69.24,149.44-159.88,223.92,10.18,333.88-2.44,93.91-10.77,140.53-137.55,316.35-117.69,133.7,15.11,221.51,113.34,560.96-167.9l-9.52-48.92-4.33,24.36-13.47-24.64c-262.26,266.78-328.4,98.75-480.83,112.15-110.31,9.7-148.4,157.41-408.82,112.73-47.35-8.12-93.95-24.89-141.93-22.61-116.05,5.51-183.56,158.28-294.32,193.33-61.39,19.43-142.9-24.33-198.09-57.51l-14.64,19.46,9.52,48.92Z"/>
              </g>
            </g>
          </g>
        </g>
      </g>
    </g>
  </g>
</svg>