<?xml version="1.0" encoding="UTF-8"?>
<svg xmlns="http://www.w3.org/2000/svg" xmlns:xlink="http://www.w3.org/1999/xlink" viewBox="0 0 76 76.13">
  <defs>
    <style>
      .cls-1 {
        fill: #67bfeb;
      }

      .cls-2 {
        mix-blend-mode: screen;
        opacity: .13;
      }

      .cls-3 {
        fill: #fff;
      }

      .cls-4 {
        fill: none;
      }

      .cls-5 {
        fill: #1b4366;
      }

      .cls-6 {
        isolation: isolate;
      }

      .cls-7 {
        fill: #67a844;
      }

      .cls-8 {
        clip-path: url(#clippath);
      }

      .cls-9 {
        opacity: .22;
      }
    </style>
    <clipPath id="clippath">
      <path class="cls-4" d="M56.08,4.54C50.74,1.64,44.63,0,38.14,0c-3.03,0-5.98.36-8.81,1.04-4.7,1.13-9.07,3.14-12.91,5.84-1.17.83-2.3,1.72-3.37,2.67C5.21,16.53.27,26.72.27,38.07c0,4.46.76,8.74,2.16,12.71,1.77,5.03,4.57,9.57,8.13,13.37,6.9,7.37,16.7,11.98,27.57,11.98,3.37,0,6.63-.44,9.74-1.27,1.39-.37,2.75-.82,4.08-1.34,1.37-.54,2.69-1.15,3.98-1.84,9.92-5.31,17.21-14.94,19.4-26.39.45-2.34.68-4.75.68-7.22,0-14.5-8.06-27.1-19.92-33.53ZM39.6,59.35l.58,1.09c-.2-.35-.4-.72-.58-1.09Z"/>
    </clipPath>
  </defs>
  <g class="cls-6">
    <g id="Layer_1" data-name="Layer 1">
      <g>
        <g class="cls-8">
          <path class="cls-1" d="M56.08,4.54C50.74,1.64,44.63,0,38.14,0c-3.03,0-5.98.36-8.81,1.04-4.7,1.13-9.07,3.14-12.91,5.84-1.17.83-2.3,1.72-3.37,2.67C5.21,16.53.27,26.72.27,38.07c0,4.46.76,8.74,2.16,12.71,1.77,5.03,4.57,9.57,8.13,13.37,6.9,7.37,16.7,11.98,27.57,11.98,3.37,0,6.63-.44,9.74-1.27,1.39-.37,2.75-.82,4.08-1.34,1.37-.54,2.69-1.15,3.98-1.84,9.92-5.31,17.21-14.94,19.4-26.39.45-2.34.68-4.75.68-7.22,0-14.5-8.06-27.1-19.92-33.53ZM39.6,59.35l.58,1.09c-.2-.35-.4-.72-.58-1.09Z"/>
          <path class="cls-7" d="M33.77,35.87c-.21,1.65-.58,2.7,0,4.27.58,1.56,1.36,2.99,3.07,3.59,1.7.6,3.03-1.03,4.54-.89,2.03.19,1.93,1.53,2.06,3.29.08,1.13,1.24,2.23,1.45,3.37.21,1.15-.99,2.13-.86,3.34.27,2.55,2.14,7.05,3.15,7.73,2.11,1.42,4.59-3.1,5.21-3.93.62-.83.4-1.6.92-2.49.52-.89,1.92-1.34,2.27-2.66.35-1.32-1.14-2.5-.8-4.1.34-1.59,5.74-5.75,4.96-7.01-.78-1.26-2.4,1.26-3.74.62-1.33-.64-2.52-6.73-4.83-8.6-1.8-1.45-3.53-.41-5.5-.8-.56-.11-1.15-1.19-1.76-1.44-3.45-1.4-9.77,2.87-10.12,5.7Z"/>
          <path class="cls-7" d="M37.23,28.43c.37,1.23,1.88.59,3.09.17s1.14-1.55,2.21-2.28c1.06-.73,1.93-1.04,3.19-.8,1.26.24,4.54,3.02,5.46,3.84.92.82,1.39,1.35,2.1,2.36.71,1.01,1.62,6.78,4.03,7.35s5.1-1.92,5.21-3.63c.11-1.71-4.08-1.47-3.23-2.96.85-1.49,3.99.39,5.92,1.86,1.93,1.47,3.49,7.33,4.71,7.26.83-.04.94-5.72,3.7-6.17,2.76-.44,4.91,6.54,6.64,5.74s-.93-3.23,0-4.9,3.86-.77,4.45-2.72c.59-1.96-3.45-3.59-2.6-5.64.84-2.04,4.82.22,5.29-1.94.48-2.16-3.63-3.11-3.19-5.35.43-2.24,9.86,1.15,9.16-3.1-.7-4.24-29.52-2.85-33.15-2.45-3.63.4-7.14,2.92-8.95,2.7-1.81-.22-1.02-2.38-2.84-2.24-1.82.14-5.89,2.1-5.36,3.95.53,1.85,5.78-1.31,6.11.59.03.19-5.26,2.34-8.82,4.64-.43.28.03,1.06-.33,1.33-.3.23-1.44-.04-1.69.18-.84.78-1.3,1.53-1.11,2.18Z"/>
          <path class="cls-7" d="M11.59,41.65c1.15-.82,3.08-.49,4.29,0,1.21.49,1.82,2.08,2.42,2.32.6.24,1.08-.31,1.65,0,.57.31.56,1.27,1.21,1.83s4.74.97,5.28,2.38c.54,1.41-1.22,2.19-1.54,3.54s.46,2.6-.22,3.54c-.68.94-2.39.62-2.75,1.11-.36.49.08.97-.11,1.55s-3.59,4.55-3.96,6.3c-.37,1.75,2.32,3.88.66,4.53-1.66.65-3.39-3.55-4.4-6.41-1.01-2.87-.23-7.6-.66-8.51-.43-.91-1.22-1.01-1.87-1.77-.65-.76-2.96-3.07-2.97-4.31-.01-1.25,1.2-1.54,1.76-2.65.55-1.11.06-2.61,1.21-3.43Z"/>
          <path class="cls-7" d="M8.4,42.2c1.09-.62.75-2.64.22-3.21-.53-.57-1.43.55-1.98,0s.78-1.87,0-2.32c-.78-.45-1.84,2.45-2.86,1.66-1.02-.79-.03-3.44,1.21-4.53,1.24-1.09,3.19-.97,4.18-.55.99.42.63,2.55,1.65,2.21,1.02-.34-.52-1.95,0-2.99.52-1.04,10.9-6.17,11.11-8.18s-1.49-3.7-3.41-3.87c-1.92-.17-2.4,3.04-3.85,3.1s-3.18-.64-3.08-2.1c.1-1.46,6.08-.36,5.99-2.99-.09-2.62-5.31-3.12-7.42-3.1s-2.91,1.66-4.95,2.21c-2.04.55-10.71.58-11.88,1.22-1.17.63-2.71,1.45-2.14,2.65.57,1.2,5.64-2.27,7.53,0,1.88,2.27-1.89,5.27-1.54,8.4.35,3.13,2.32,6.26,3.19,7.41.87,1.15,1.66,1.54,2.86,2.32,1.2.79,4.08,3.27,5.17,2.65Z"/>
          <path class="cls-7" d="M20.11,14.99c.17-.69.78-.2,1.13-.33,1.46-.54,2.54-1.35,4.36-1.58,2.25-.28,7.93-2.47,8.63.73.69,3.2-5.66,2.96-7.28,4.11-1.62,1.15-2.71,3.56-3.82,3.38s-1.47-1.43-1.45-2.48c.02-1.05,1.72-1.24,1.45-2.25s-3.32-.34-3.02-1.58"/>
        </g>
        <g class="cls-9">
          <path class="cls-5" d="M59.67,6.75c4.23,6.15,6.72,13.6,6.72,21.65,0,21.02-16.95,38.06-37.87,38.06-8,0-15.42-2.5-21.53-6.75,6.83,9.92,18.24,16.42,31.15,16.42,20.91,0,37.87-17.04,37.87-38.07,0-12.98-6.47-24.44-16.33-31.31Z"/>
        </g>
        <g class="cls-2">
          <path class="cls-3" d="M56.89,20.94c-.25,17.97-14.94,32.34-32.81,32.09-9.49-.13-17.97-4.35-23.8-10.99C-2.84,17.26,21.4-8.23,51.61,2.67c3.6,5.33,5.37,11.33,5.28,18.27Z"/>
        </g>
      </g>
    </g>
  </g>
</svg>