<?xml version="1.0" encoding="UTF-8"?>
<svg id="Layer_1" data-name="Layer 1" xmlns="http://www.w3.org/2000/svg" viewBox="0 0 57.93 77.26">
  <defs>
    <style>
      .cls-1 {
        fill: #6b4d33;
      }

      .cls-2 {
        fill: #0883a4;
      }

      .cls-3 {
        fill: #f7a39a;
      }

      .cls-4 {
        fill: #88684c;
      }

      .cls-5 {
        fill: #d5d5d6;
      }

      .cls-6 {
        fill: #cb4140;
      }

      .cls-7 {
        fill: #045071;
      }

      .cls-8 {
        fill: #afafb0;
      }

      .cls-9 {
        fill: #a1a0a1;
      }

      .cls-10 {
        fill: #e5e5e5;
      }

      .cls-11 {
        fill: #a41e22;
      }

      .cls-12 {
        fill: #bfbebe;
      }

      .cls-13 {
        fill: #888788;
      }

      .cls-14 {
        fill: #422510;
      }

      .cls-15 {
        fill: #cb9865;
      }

      .cls-16 {
        fill: #bbbbbc;
      }

      .cls-17 {
        fill: #78747a;
      }

      .cls-18 {
        fill: #6b4420;
      }

      .cls-19 {
        fill: #010101;
      }

      .cls-20 {
        fill: #cecde0;
      }

      .cls-21 {
        fill: #fdcd9a;
      }
    </style>
  </defs>
  <g>
    <path class="cls-20" d="M15.82,35.5s3.47-4.42,6.56-4.23c1.96.12-.09,5.81-2.76,8.31-1.53,1.44-4.35,2.24-5.62,1.92-3.46-.89.65-4.75,1.82-6Z"/>
    <path class="cls-17" d="M14.02,35.34s.69-.82,2.07-.44c2.5.7,2.74,7.86-2.04,6.47,0,0-1.85-2.19-.03-6.03Z"/>
    <path class="cls-8" d="M16.55,35.31c.62.76.76,1.65.72,2.53-.41-.69-.44-1.73-.72-2.53Z"/>
    <path class="cls-20" d="M14.68,34.93c1.24.53,2.03,2.65,1.6,5-.5,2.72-3.96,2.12-6.92.42,0,0,1.61-4.46,2.14-5,.53-.54,1.91-.96,3.19-.42Z"/>
    <path class="cls-10" d="M13.3,40.22c.69,1.03,2.15.25,3.04-.69-.02.13-.04.26-.06.4-.5,2.72-3.96,2.12-6.92.42,0,0,.56-1.54,1.12-2.92,1.33-.1,2.23,1.7,2.82,2.8Z"/>
    <path class="cls-17" d="M10.19,33.94s2.77-.1,3.21,2.6c.44,2.7-3.15,5.88-7.28,2.4,0,0,1.46-4.82,4.07-5Z"/>
    <path class="cls-8" d="M11.6,39.2c1.07-1.39,1.35-3.67.09-4.78,2.07.89,1.91,4-.09,4.78Z"/>
    <path class="cls-7" d="M3.85,36.94s-.31-3.07,2.97-3.7c3.26-.63,5.97,2.29,4.27,4.83-1.97,2.96-6.48,1.07-7.24-1.13Z"/>
  </g>
  <path class="cls-17" d="M18.45,35.79c-.8,3.08-.02,5.93,1.74,6.37,1.76.44,3.83-1.7,4.63-4.78.8-3.08.02-5.93-1.74-6.37-1.76-.44-3.83,1.7-4.63,4.78Z"/>
  <path class="cls-16" d="M37.19,31.12c3.25.28,9.05-.55,9.26,2.65.2,3.2-1.04,16.07-4.77,19.33-3.73,3.26-8.47,2.55-12.27-1.62-3.8-4.17,7.78-20.36,7.78-20.36Z"/>
  <path class="cls-9" d="M33.64,31.72c3.25.28,9.05-.55,9.26,2.65.2,3.2-1.04,16.07-4.77,19.33-3.73,3.26-8.47,2.55-12.27-1.62-3.8-4.17,7.78-20.36,7.78-20.36Z"/>
  <path class="cls-20" d="M37.57,34.88c1.97-.08,4.14-.42,4.1,2.41-.04,2.83-1.63,7.34-1.94,9.06-.31,1.72,2.22,7.87-.86,9.91-3.08,2.04-9.96,2.31-13.45.78-3.49-1.53-9.07-5.51-8.62-8.98.45-3.47,1.8-10.86,3.01-13.3,1.21-2.44,1.74-3.41,2.6-3.61.86-.2,11.72,3.87,15.16,3.73Z"/>
  <path class="cls-16" d="M39.8,47.79c.38,2.51,1.54,6.81-.94,8.46-3.08,2.04-9.96,2.31-13.45.78-3.49-1.53-9.07-5.51-8.62-8.98.16-1.2.42-2.86.74-4.62,5.73,5.51,14.97,7.77,22.26,4.36Z"/>
  <path class="cls-12" d="M40.94,33.51c.89.67.65,1.63.17,2.01-.48.39-2.5,1.14-5.4.84-2.89-.29-8.53-1.78-10.08-2.39-1.7-.67-3.47-2.12-3.53-2.78-.06-.66-.21-1.46.25-1.73.46-.27,3.47,2.47,8.47,3.45,8.05,1.57,9.85.39,10.11.58Z"/>
  <g>
    <path class="cls-16" d="M29.77,35.69c2.47.52,5.81.92,6.17,2.02.37,1.12-.21,3.28-.51,4.76-.3,1.48-.18,4.41-3.75,3.63-3.85-.84-6.78-1.39-7.79-1.85-1.01-.45-2.38-.85-1.44-4.85.93-4,1.17-4.82,2.62-4.67,1.45.15,3.55.71,4.71.95Z"/>
    <path class="cls-5" d="M29.65,36.45c2.08.44,4.9.78,5.21,1.71.31.95-.18,2.76-.43,4.02-.25,1.25-.15,3.72-3.17,3.07-3.25-.71-5.73-1.18-6.58-1.56-.85-.38-2.01-.72-1.22-4.1.79-3.38.99-4.07,2.21-3.94,1.22.12,3,.6,3.98.81Z"/>
    <path class="cls-11" d="M30.5,39.44c-.16.85.41,1.67,1.26,1.83.85.16,1.67-.41,1.82-1.26.16-.86-.41-1.67-1.26-1.83-.85-.16-1.67.41-1.82,1.27Z"/>
    <path class="cls-6" d="M30.62,39.39c-.13.73.35,1.43,1.07,1.56.72.13,1.42-.35,1.55-1.08.13-.73-.35-1.42-1.07-1.56-.72-.13-1.42.35-1.55,1.08Z"/>
    <path class="cls-11" d="M30.05,43.19c-.12.65.31,1.28.96,1.4.65.12,1.27-.31,1.39-.96.12-.65-.31-1.28-.96-1.4-.65-.12-1.27.31-1.39.97Z"/>
    <path class="cls-6" d="M30.06,43.17c-.1.54.26,1.05.79,1.15.53.1,1.05-.26,1.15-.8.1-.54-.26-1.05-.79-1.15-.53-.1-1.05.26-1.15.8Z"/>
    <path class="cls-13" d="M24.63,37.89c-.07.35.15.7.51.78l2.21.46c.35.08.7-.15.77-.51h0c.07-.35-.15-.7-.51-.77l-2.21-.46c-.35-.07-.7.15-.77.51h0Z"/>
    <path class="cls-13" d="M24.15,40.3c-.07.35.15.7.51.77l2.21.46c.35.07.7-.15.77-.51h0c.07-.35-.15-.7-.5-.77l-2.21-.46c-.35-.07-.7.15-.77.51h0Z"/>
  </g>
  <g>
    <path class="cls-17" d="M43.69,76.12c2.98-.85,6.34-7.61,4.06-12,.77.35,1.66.73,1.91,1.86.59,2.65-.5,7.07-1.96,8.8-1.31,1.56-4.42,4.34-6.65.65.51.66,1.42,1.03,2.64.69Z"/>
    <g>
      <path class="cls-10" d="M38.82,54.71c.52,1.61.97,5.21,2.33,6.05,1.36.84,3,2.48,3.49,2.47.49,0,3.44-.11,4,2.41.56,2.52-.47,6.71-1.86,8.36-1.39,1.65-4.89,4.74-7-.81-1.09-2.86-.06-2.04-2.87-3.76-2.82-1.72-3.89-2-4.97-3.43-1.08-1.43-3.62-5.23-4.12-7.56-.32-1.47,9.67-7.91,11.01-3.74Z"/>
      <path class="cls-20" d="M33.36,58.78c1.82-1.65,5.16-2.09,5.69-.43.37,1.17.7,3.78,1.69,4.38.98.61,2.17,1.79,2.53,1.79.35,0,2.49-.08,2.9,1.75.4,1.82-.34,4.86-1.35,6.05-1.01,1.19-3.54,3.43-5.07-.59-.79-2.07-.04-1.48-2.08-2.72-2.04-1.25-2.82-1.45-3.6-2.48-.78-1.03-2.18-2.39-2.69-3.36-.61-1.14.5-3.04,1.99-4.4Z"/>
    </g>
    <path class="cls-17" d="M38.95,57.2c.73-.15,2.15-2.39.5-3.37-1.65-.97-5.11-1.6-7.57-.67-2.46.92-6.41,3.44-5.37,5.62,1.04,2.18,2.68-2.61,6.5-2.62,3.83-.01,5.19,1.19,5.94,1.03Z"/>
    <path class="cls-17" d="M37.96,63.12c-2.28,1.72-5.76,2.4-6.27,2.58-.51.18,0,1.04.97,1.69.96.65,2.93-.05,5.04-1.29,2.1-1.24,3.66-4.26,3.92-4.93.26-.67-.73-1.91-1.24-1.48-.51.43-1.38,2.65-2.42,3.43Z"/>
    <path class="cls-17" d="M43.02,62.14c-.3,1.18.34,4.39-.77,5.72-1.54,1.85-3.17,1.95-3.92,2.13-.75.18.47,1.56,1.08,1.67.61.11,4.53-1.09,5.32-3.76.78-2.67.42-4.79-.05-5.2-.47-.41-1.58-.88-1.66-.57Z"/>
  </g>
  <g>
    <g>
      <path class="cls-20" d="M16.87,50.17c-2.44.66-6.25,4.95-7.13,6.02-.98,1.2-3.17,5.72-3.17,5.72-.8-.86-4.71-1.57-6.09,1.71-1.38,3.28,6.21,8.43,8.38,9.21,2.16.78,4.37-3.53,4.91-4.8.53-1.27,1.45-3.62,2.48-4.88,1.03-1.26,4.53-5.17,6.09-6.1,0,0-.05-.15-.15-.41-2.16-1.94-4.17-3.96-5.32-6.48Z"/>
      <path class="cls-10" d="M18.39,52.7c-.73,2.04-.24,4.22-.42,6.54-.18,2.4-3.99,3.34-4.29,5.89-.36,2-1.08,4.54-2.56,5.11-3.63,1.34-7.63-2.46-9.31-6.82-.41-1.07.99-1.76,2.53-1.65.85.06,2.48.76,2.65.37,2.62-5.71,4.85-7.61,8.34-10.34.57-.47,1.28-.57,2.04-.66-.18-.31-.34-.64-.5-.97-2.44.66-6.25,4.95-7.13,6.02-.98,1.2-3.17,5.72-3.17,5.72-.8-.86-4.71-1.57-6.09,1.71-1.38,3.28,6.21,8.43,8.38,9.21,2.16.78,4.37-3.53,4.91-4.8.53-1.27,1.45-3.62,2.48-4.88,1.03-1.26,4.79-5.19,6.35-6.13-1.54-1.37-3.03-2.76-4.21-4.33Z"/>
    </g>
    <path class="cls-17" d="M10.88,72.33c-.76.78-1.62,1.28-2.47.98-2.14-.76-9.63-5.82-8.25-9.1.07-.18.16-.34.25-.49,1.87,4.38,5.75,7.88,10.47,8.61Z"/>
    <path class="cls-17" d="M16.79,47.76s1.98,3.68,3.76,5.55c1.78,1.87,4.22,3.02,4.28,3.69.06.66-1.17,1.92-4.43-.58-3.26-2.49-4.3-3.87-4.78-5.14-.41-1.1-.22-2.65,1.17-3.52Z"/>
    <path class="cls-17" d="M17.84,61.46c-1.13-.33-2.78-1.49-4.47-4.08-1.68-2.59-1.8-3.79-3.14-2.89-1.34.91-1.1,2.21-.16,3.38.94,1.17,3.74,4.48,5.96,5.31,2.22.83,1.81-1.72,1.81-1.72Z"/>
    <path class="cls-17" d="M9.44,64.78c1.61,1.68,4.03,2.52,4.73,2.29,0,0,.74,2.52-1.02,2.47-1.76-.05-6.3-3.78-7.07-6.03-.77-2.24.36-3.02.87-2.9,0,0,.66,2.25,2.5,4.16Z"/>
  </g>
  <path class="cls-10" d="M36.75,30.59c7.12.52,13.24-4.48,16.35-10.83-.04.31-.08.63-.14.94-1.71,9.39-11.29,15.5-21.4,13.64-7.35-1.35-12.96-6.54-14.82-12.89,4.83,5.69,12.68,8.82,20.01,9.13Z"/>
  <path class="cls-2" d="M36,1.48C27.07-.17,18.53,5.63,16.94,14.43c-1.59,8.8,4.36,17.28,13.29,18.92,8.93,1.65,17.47-4.15,19.06-12.96,1.6-8.8-4.35-17.28-13.29-18.92Z"/>
  <g>
    <path class="cls-17" d="M36.91,40.12c-.52,2.58.54,4.97,2.36,5.33,1.82.37,3.72-1.42,4.24-3.99.52-2.58-.54-4.97-2.36-5.34-1.82-.37-3.72,1.42-4.24,4Z"/>
    <g>
      <path class="cls-20" d="M45.6,41.9s-2.53-3.48-4.09-3.73c-1.58-.25-3.16,1.78-2.8,4.65.37,2.86,3.55,5.16,5.05,5.86,1.5.7,3.2-5.21,1.84-6.78Z"/>
      <path class="cls-10" d="M42.17,45.75c1.18-.42.46-3.91,3.43-3.84,1.36,1.57-.34,7.48-1.84,6.78-1.5-.7-4.69-3-5.05-5.86-.18-1.43.12-2.65.67-3.49-.15,2.65.86,7.16,2.79,6.41Z"/>
    </g>
    <path class="cls-17" d="M47.3,42.78s-.22-1.34-1.67-1.19c-1.45.15-2.84,3.75-2.52,6.23.3,2.25,3.63,3.83,4.45,1.02.82-2.82.11-4.95-.26-6.05Z"/>
    <g>
      <path class="cls-20" d="M46.99,49.36c.98.16,4.29-2.42,5.28-4.75l-2.58-3.33s-2.45,1.24-3.26,1.92c-1.36,1.14-2.47,5.66.55,6.16Z"/>
      <path class="cls-10" d="M47.71,47.68c1.34-.14,2.94-1.24,2.8-2.58-.5-1.21-1.33-2.51-.96-3.75.09-.04.14-.07.14-.07l2.58,3.33c-.99,2.33-4.3,4.91-5.28,4.75-1.68-.28-2.08-1.8-1.87-3.3.54.95,1.26,1.62,2.6,1.62Z"/>
    </g>
    <g>
      <path class="cls-17" d="M54.67,42.82s-.02,1.77-1.17,2.33c-.81.39-2.2-.23-3.17-1.58-.97-1.35-1.65-3.99,1.17-3.73,1.17.11,2.8,1.88,3.17,2.98Z"/>
      <g>
        <path class="cls-7" d="M56.6,42.07s-1.42,1.85-2.85,1.72c-1.43-.13-2.84-1.77-2.83-3.28.01-1.51.77-3.81,1.54-4.2,1.36-.69,6.68,1.9,4.14,5.76Z"/>
        <path class="cls-2" d="M56.15,40.37s.25-.92.14-1.31c-.11-.38.17-1.06.85-.81.81.29.95,1.15.67,1.97-.28.83-.8,1.08-1.35,1.01-.55-.07-.5-.6-.31-.86Z"/>
        <path class="cls-2" d="M55.5,39.41s.26-.96.14-1.36c-.12-.4.17-1.08.89-.85.79.26.99,1.19.7,2.06-.29.86-.83,1.12-1.4,1.05-.57-.07-.52-.63-.32-.9Z"/>
        <path class="cls-2" d="M54.48,38.48s.28-1.04.16-1.47c-.13-.43.14-.97.95-.84.8.14,1.08,1.21.77,2.15-.31.94-.9,1.22-1.52,1.14-.62-.08-.56-.68-.35-.98Z"/>
        <path class="cls-2" d="M53.21,37.81s.22-.96.09-1.39c-.13-.43.23-.84,1.03-.71.8.14,1.06,1,.74,1.93-.31.94-.9,1.22-1.52,1.14-.62-.08-.56-.68-.35-.98Z"/>
        <path class="cls-2" d="M52.27,38.61c-.25-.53-.02-1.12.69-1.02.92.12,1.68,1.08,1.67,1.81,0,.73-.92.56-1.4.14-.2-.17-.78-.55-.96-.93Z"/>
      </g>
    </g>
  </g>
  <g>
    <g>
      <path class="cls-14" d="M51.34,24.55c1.26-2.37,1.3-5.07.68-6.73-.77-2.06-3.74-2.21-3.74-2.21-1.21.19-2.48,3.83-1.13,5.47,1.35,1.64-2.35,6.03-2.48,8.03-.02.36.05.69.19,1.01,2.99-.98,4.54-3.57,6.48-5.56Z"/>
      <g>
        <path class="cls-1" d="M47.48,27.25s.33-.72,1.36-1.5c.92-.82,2.51-1.94,2.99-3.96.36-2-.54-3.85-1.61-4.6-1.06-.78-1.92-.8-1.91-.78-.02.04.81.13,1.8.92.99.74,1.81,2.52,1.47,4.41-.44,1.89-1.96,3.03-2.86,3.88-1.01.81-1.32,1.62-1.24,1.63Z"/>
        <path class="cls-1" d="M50.23,21.2c.07.03.07-1.27-.99-2.29-1.01-1.01-2.12-1.38-2.14-1.32-.04.07,1,.54,1.96,1.5,1,.96,1.1,2.14,1.17,2.12Z"/>
        <path class="cls-1" d="M47.34,28.16s-.09.25-.08.67c.05-.04.1-.08.15-.12-.03-.34-.02-.56-.06-.55Z"/>
        <path class="cls-1" d="M47.64,20.06s0,0,0,0c-.01,0,0,0,0,0Z"/>
        <path class="cls-1" d="M45.87,29.15c.07-2.92,3.19-4.41,3.26-6.52.03-1.97-1.41-2.53-1.49-2.58-.1.05,1.41.64,1.32,2.56-.05,1.99-3.2,3.37-3.33,6.57.05.19.1.38.17.55.07-.03.14-.07.21-.11-.06-.15-.1-.31-.14-.47Z"/>
      </g>
    </g>
    <g>
      <path class="cls-14" d="M27.35,8.67s-2.04-2.17-4.1-1.41c-2.06.76-4.66,3.31-5.13,6.81-.23,1.71-.82,2.83-1.51,3.35.04,1.21.13,2.32.35,3.4.98.12,1.92.02,2.56-.6,1.42-1.39,2.33-7.08,4.44-7.12,2.12-.04,4.04-3.38,3.39-4.42Z"/>
      <g>
        <path class="cls-1" d="M19.09,16.87s.33-.72.25-2.01c.02-1.23-.17-3.18,1.04-4.86,1.28-1.58,3.25-2.1,4.52-1.77,1.28.3,1.86.94,1.83.95-.02.04-.63-.54-1.87-.78-1.21-.27-3.08.26-4.29,1.75-1.14,1.57-1.01,3.47-1.07,4.71.04,1.3-.36,2.06-.42,2.01Z"/>
        <path class="cls-1" d="M21.86,10.83c-.07-.03.91-.88,2.38-.73,1.42.11,2.43.72,2.39.77-.03.07-1.06-.42-2.41-.52-1.38-.14-2.33.55-2.36.49Z"/>
        <path class="cls-1" d="M18.49,17.57c-.03-.08-.7.68-1.83.93,0,.08,0,.16.02.24,1.24-.29,1.87-1.19,1.81-1.18Z"/>
        <path class="cls-1" d="M21.5,12.6c-1.55,1.43-.64,4.78-2.8,6.73-.63.35-1.27.45-1.91.43.01.08.02.16.03.23.66.01,1.33-.1,2.02-.45,2.33-2.18,1.33-5.48,2.79-6.82,1.39-1.32,2.82-.55,2.79-.66-.09-.03-1.45-.77-2.92.54Z"/>
        <path class="cls-1" d="M24.42,12.06s0,0,0,0c0,0,0,0,0,0Z"/>
      </g>
    </g>
    <g>
      <g>
        <path class="cls-18" d="M42.3,7.35c6.17,4.04,6.75,10.59,5.35,16.18-.53.92-.95,2.39-1.41,3.04-5.98,8.5-5.87-6.46-5.53-11.28,0,0-11.19,7.45-20.67,1.22.41-1.63,1.12-3.22,2.14-4.68,4.51-6.48,12.82-9.26,20.13-4.47Z"/>
        <path class="cls-21" d="M40.71,15.29c.03,4.95,2.62,7.4,4.81,8.19.58.15.05,2.22.52,2.29.53.08.92-1.11,1.61-2.25-.41,1.64-1.12,3.24-2.14,4.71-4.51,6.48-13.39,8.05-19.83,3.52-4.99-3.51-7.05-9.65-5.64-15.25,9.48,6.23,20.67-1.22,20.67-1.22Z"/>
      </g>
      <g>
        <path class="cls-4" d="M20.18,16.41c-.1.07,5.13,1.5,11.19-.63,6-2,9.98-5.38,9.9-5.43-.05-.1-4.09,3.11-10.01,5.08-5.96,2.1-11.1.85-11.08.98Z"/>
        <path class="cls-4" d="M22.06,15.79c.15.15,2.19-3.64,6.43-6.47,4.28-2.85,8.65-2.67,8.59-2.71.09-.16-4.4-.52-8.79,2.41-4.34,2.89-6.25,6.82-6.23,6.77Z"/>
        <path class="cls-4" d="M20.64,16.48c-.1.28,4.8.25,9.02-3.56,4.04-3.87,8.63-4.42,8.62-4.16.09-.49-4.79-.03-8.84,3.87-4.17,3.75-8.83,3.91-8.79,3.85Z"/>
      </g>
      <path class="cls-4" d="M46.24,22.19c-.03.07,1.27-2.93.06-6.52-1.16-3.56-3.61-5.53-3.61-5.46-.08.03,2.27,2.05,3.4,5.53,1.18,3.51,0,6.47.15,6.46Z"/>
      <g>
        <g>
          <path class="cls-15" d="M29.82,26.03c.02.08-.59.17-1.13-.3-.52-.48-.52-1.1-.42-1.1.11-.03.27.44.68.81.4.37.88.46.87.59Z"/>
          <path class="cls-20" d="M26.68,26.27s3.05,3.12,7.39,2.06c0,0-1.34,4.02-4.94,2.53-2.09-.87-1.81-1.87-2.45-4.58Z"/>
          <path class="cls-3" d="M24.78,22.94c-.13.55-1.05.81-2.07.58-1.02-.24-1.74-.87-1.61-1.43.12-.55,1.05-.81,2.07-.57,1.02.23,1.74.87,1.61,1.42Z"/>
          <path class="cls-3" d="M40.76,26.71c-.12.55-1.05.81-2.07.57-1.02-.23-1.74-.87-1.61-1.42.13-.55,1.05-.81,2.07-.57,1.02.23,1.74.87,1.61,1.42Z"/>
        </g>
        <path class="cls-19" d="M24.76,15.76c.12.17.82-.45,1.67-.31.85.2,1.36.98,1.49.88.13-.02-.13-1.08-1.37-1.43-1.32-.15-1.89.85-1.79.86Z"/>
        <path class="cls-19" d="M37.69,19.03c.09.19.88-.32,1.7-.06.81.32,1.2,1.17,1.35,1.08.13,0,.03-1.09-1.15-1.61-1.28-.35-1.99.56-1.9.59Z"/>
        <path class="cls-19" d="M26.32,20.81c-.11.54-.63.88-1.17.77-.53-.11-.88-.64-.76-1.18.11-.54.63-.88,1.17-.77.53.11.88.64.76,1.18Z"/>
        <path class="cls-19" d="M38.8,24.01c-.11.54-.63.88-1.17.77-.53-.11-.88-.64-.76-1.18.11-.54.63-.88,1.17-.77.53.11.88.64.76,1.17Z"/>
      </g>
    </g>
    <path class="cls-21" d="M47.62,23.56s1.31-1.19,1.91.02c.53,1.08-.96,4.11-3.46,3.16l1.55-3.18Z"/>
  </g>
  <path class="cls-20" d="M37.73.33c-10.11-1.86-19.7,4.25-21.4,13.64-1.71,9.39,5.11,18.51,15.22,20.37,10.11,1.86,19.7-4.25,21.4-13.64,1.71-9.39-5.11-18.51-15.22-20.37ZM30.27,33.17c-8.66-1.6-14.42-9.81-12.88-18.34C18.93,6.31,27.2.68,35.86,2.28c8.66,1.6,14.42,9.81,12.87,18.34-1.54,8.53-9.81,14.15-18.47,12.55Z"/>
  <path class="cls-20" d="M19.77,18.01c-.17-9.53,9.7-14.11,9.7-14.11,0,0-11.68,3.73-10.57,15.04.29,2.9,1.24,5.16,2.49,6.91-.63-1.64-1.1-3.33-1.29-5.08-.19-.86-.31-1.78-.33-2.76Z"/>
  <path class="cls-20" d="M37.01,5.84c-.11.65-1.28.99-2.61.77s-2.32-.94-2.21-1.59,1.28-.99,2.61-.77,2.32.94,2.21,1.59Z"/>
  <path class="cls-20" d="M47.32,16.23s1.48,13.03-9.94,15.93c0,0,9.53-3.73,9.94-15.93Z"/>
  <g>
    <path class="cls-2" d="M5.13,36.87s.23-.93.51-1.21c.28-.28.36-1.01-.35-1.13-.85-.14-1.38.53-1.54,1.39-.16.86.17,1.33.69,1.54.51.21.73-.28.69-.6Z"/>
    <path class="cls-2" d="M6.16,36.35s.24-.97.54-1.26c.3-.29.37-1.03-.36-1.17-.82-.16-1.44.56-1.61,1.45-.17.9.18,1.39.71,1.61.53.22.76-.29.72-.63Z"/>
    <path class="cls-2" d="M7.5,36.03s.26-1.05.58-1.36c.32-.31.35-.92-.42-1.19-.77-.27-1.53.53-1.71,1.5-.18.97.2,1.5.78,1.74.58.24.82-.32.78-.68Z"/>
    <path class="cls-2" d="M8.94,36.07s.27-.95.59-1.26c.32-.31.21-.85-.56-1.12-.76-.27-1.41.35-1.59,1.32-.18.97.2,1.5.78,1.74.58.24.82-.32.78-.68Z"/>
    <path class="cls-2" d="M9.37,37.23c.48-.34.56-.97-.11-1.23-.86-.34-1.99.12-2.33.76-.35.64.53.94,1.16.81.26-.05.95-.09,1.29-.34Z"/>
  </g>
</svg>