<?xml version="1.0" encoding="UTF-8"?>
<svg id="Layer_1" data-name="Layer 1" xmlns="http://www.w3.org/2000/svg" viewBox="0 0 65.34 83.74">
  <defs>
    <style>
      .cls-1 {
        fill: #0883a4;
      }

      .cls-2 {
        fill: #41a1ba;
      }

      .cls-3 {
        fill: #bd6272;
      }

      .cls-4 {
        fill: #fff;
      }

      .cls-5 {
        fill: #d5d5d6;
      }

      .cls-6 {
        fill: #634d56;
      }

      .cls-7 {
        fill: #cb4140;
      }

      .cls-8 {
        fill: #361a26;
      }

      .cls-9 {
        fill: #045071;
      }

      .cls-10 {
        fill: #1d85a5;
      }

      .cls-11 {
        fill: #9e5332;
      }

      .cls-12 {
        fill: #afafb0;
      }

      .cls-13 {
        fill: #e5e5e5;
      }

      .cls-14 {
        fill: #a41e22;
      }

      .cls-15 {
        fill: #bfbebe;
      }

      .cls-16 {
        fill: #1c7b94;
      }

      .cls-17 {
        fill: #888788;
      }

      .cls-18 {
        fill: #107897;
      }

      .cls-19 {
        fill: #bbbbbc;
      }

      .cls-20 {
        fill: #979797;
      }

      .cls-21 {
        fill: #bc8871;
      }

      .cls-22 {
        fill: #004364;
      }

      .cls-23 {
        fill: #78747a;
      }

      .cls-24 {
        fill: #010101;
      }

      .cls-25 {
        fill: #2c131e;
      }

      .cls-26 {
        fill: #d8d9d8;
      }
    </style>
  </defs>
  <g>
    <path class="cls-4" d="M13.33,41.07c-1.44.76-5.42,4.25-5.42,4.25-.42-1.16-3.93-3.47-6.61-.86-2.68,2.62,2.58,10.75,4.36,12.4,1.78,1.65,5.69-1.62,6.72-2.63,1.04-1.01,3.06-2.65,4.41-3.71.93-.73,1.5-1.56,1.45-.08-.05,1.5,5.29,3.61,5.87,3.87,0,0,.83,2.92,1.77-5.68-.11-9.78-11.28-8.24-12.56-7.56Z"/>
    <path class="cls-23" d="M25.89,48.64c-.03-2.87-1.02-4.76-2.43-5.98-2.34-4.36-3.59,6.53-2.26,10.33,1.21,1.85,2.45,1.72,2.91,1.34,0,0,.83,2.92,1.77-5.68Z"/>
    <path class="cls-23" d="M7.83,57.2c-1.06.44-2.1.57-2.8-.07-1.77-1.62-6.97-9.64-4.28-12.24.15-.14.3-.26.44-.38.02,5.02,2.35,10.03,6.63,12.69Z"/>
    <path class="cls-23" d="M18.3,50.37c-.96-.79-1.35-3.44-1.93-6.65-.57-3.21-.2-4.43-1.87-4.1-1.67.33-1.97,1.69-1.54,3.22.43,1.53,1.79,5.9,3.61,7.62,1.82,1.72,1.72-.09,1.72-.09Z"/>
    <path class="cls-23" d="M9.52,49.28c.87,2.29,2.88,4.12,3.65,4.17,0,0-.31,2.75-2,1.98-1.69-.77-4.57-6.28-4.4-8.77.17-2.49,1.58-2.78,2.03-2.46,0,0-.28,2.46.72,5.08Z"/>
  </g>
  <g>
    <g>
      <path class="cls-4" d="M24.32,27.57s5.9-.16,7.84,2.47c1.23,1.68-4.74,3.86-8.56,3.38-2.2-.27-4.75-2.02-5.34-3.27-1.62-3.42,4.27-2.68,6.06-2.58Z"/>
      <path class="cls-23" d="M23.23,25.99s1.13,0,1.75,1.38c1.13,2.51-4.47,7.54-6.59,2.72,0,0,.51-2.99,4.84-4.1Z"/>
      <path class="cls-12" d="M24.97,28.03c-.19,1.02-.81,1.74-1.55,2.3.28-.8,1.09-1.52,1.55-2.3Z"/>
      <path class="cls-4" d="M24.01,26.25c.41,1.37-.76,3.44-2.95,4.68-2.53,1.44-4.38-1.78-5.02-5.35,0,0,4.68-1.7,5.47-1.64.79.06,2.06.9,2.49,2.31Z"/>
      <path class="cls-13" d="M18.81,28.71c-.36,1.26,1.25,1.92,2.61,2.01-.12.07-.24.15-.36.22-2.53,1.44-4.38-1.78-5.02-5.35,0,0,1.62-.59,3.11-1.06.98,1.01.14,2.96-.35,4.18Z"/>
      <path class="cls-23" d="M21.77,21.93s1.96,2.19.08,4.37c-1.88,2.18-6.86,1.42-6.86-4.3,0,0,4.87-2.07,6.78-.07Z"/>
      <path class="cls-12" d="M18.49,26.63c1.84-.07,3.86-1.38,3.91-3.16.68,2.29-1.93,4.25-3.91,3.16Z"/>
      <path class="cls-9" d="M15.07,18.8s2.26-2.32,4.99-.08c2.71,2.22,2.19,6.4-1,6.74-3.71.4-5.24-4.55-3.98-6.66Z"/>
    </g>
    <g>
      <path class="cls-1" d="M15.99,19.8s.9-.44,1.32-.4c.42.04,1.05-.39.67-1.04-.46-.78-1.37-.76-2.17-.31-.8.45-.96,1.04-.78,1.6.18.56.72.4.95.15Z"/>
      <path class="cls-1" d="M17.1,20.29s.94-.46,1.37-.41c.43.04,1.08-.39.7-1.09-.42-.78-1.42-.8-2.25-.32-.83.47-.99,1.09-.81,1.67.19.58.75.42.99.16Z"/>
      <path class="cls-1" d="M18.27,21.16s1.02-.5,1.49-.45c.47.05.97-.34.68-1.15-.3-.81-1.46-.89-2.36-.38-.9.51-1.08,1.18-.88,1.81.2.63.81.45,1.07.17Z"/>
      <path class="cls-1" d="M19.2,22.35s.95-.42,1.41-.37c.47.05.82-.41.53-1.21-.3-.81-1.24-.91-2.14-.4-.9.51-1.08,1.18-.88,1.81.2.63.81.45,1.07.17Z"/>
      <path class="cls-1" d="M18.56,23.49c.6.16,1.16-.2.92-.92-.31-.93-1.44-1.54-2.19-1.38-.75.15-.4,1.06.13,1.49.22.18.72.71,1.14.82Z"/>
    </g>
  </g>
  <path class="cls-23" d="M25.95,32.73c-1.64,2.92-1.61,6.04.06,6.96,1.67.93,4.36-.69,6-3.61,1.64-2.92,1.61-6.04-.06-6.96-1.67-.92-4.36.69-6,3.61Z"/>
  <path class="cls-4" d="M50.35,35.32c3.23,1.17,9.37,1.89,8.72,5.21-.65,3.31-4.17,17.29-8.85,19.6-4.68,2.31-10.51-.89-13.26-6.17-2.75-5.28,13.39-18.64,13.39-18.64Z"/>
  <path class="cls-13" d="M46.93,59.06c.44-5.26,2.19-14.21,5.05-18.84,1.42-2.29,5.09-2.64,5.12-2.68-1.94-1-4.84-1.53-6.75-2.22,0,0-16.14,13.36-13.39,18.64,2.74,5.26,8.54,8.45,13.21,6.19-1.62.27-3.05.04-3.23-1.09Z"/>
  <g>
    <path class="cls-4" d="M45.68,36.97c2.03.45,4.34.69,3.53,3.57-.8,2.88-3.63,7.04-4.41,8.71s-3.03,7.6-6.72,8.84c-3.69,1.24-7.59.68-10.74-1.82-1.54-1.22-3.43-3.18-4.79-5.25-1.43-2.18-2.29-4.49-1.58-6.24,1.39-3.41,4.74-10.58,6.63-12.74,1.89-2.16,2.69-3.01,3.62-2.97.93.03,10.91,7.12,14.45,7.91Z"/>
    <path class="cls-19" d="M21.88,42.68c-.35.78-.65,1.5-.9,2.09-.71,1.75.18,5.09,1.61,7.26,1.37,2.08,2.8,5.11,4.34,6.34,3.15,2.5,5.55,3.12,10.04,1.53,1.87-.66,4.5-4.31,5.63-6.2-8.21-.18-15.86-4.63-20.73-11.03Z"/>
  </g>
  <path class="cls-15" d="M49.48,36.49c.73.93.22,1.83-.37,2.1-.6.26-2.86.48-5.73-.6-2.87-1.08-8.21-4.12-9.63-5.16-1.56-1.14-2.97-3.1-2.85-3.79.12-.69.18-1.54.72-1.69.54-.15,2.87,3.46,7.71,5.81,7.78,3.78,9.94,3.07,10.15,3.34Z"/>
  <g>
    <path class="cls-19" d="M31.5,31.67c.91.69,2.29,1.35,1.92,2.39-.37,1.06-1.69,3-2.55,4.34-.86,1.34-2.22,4.04-3.52,3.02-1.41-1.1-2.51-1.87-2.77-2.37-.25-.5-.7-.99,1.67-4.6,2.38-3.61,2.89-4.34,3.49-4.08.61.26,1.32.96,1.75,1.28Z"/>
    <path class="cls-5" d="M31.08,32.35c.77.58,1.93,1.14,1.62,2.02-.31.9-1.42,2.53-2.15,3.66-.73,1.13-1.87,3.41-2.97,2.55-1.19-.93-2.12-1.58-2.34-2-.22-.42-.59-.83,1.41-3.88,2.01-3.04,2.44-3.66,2.95-3.44.51.22,1.12.81,1.48,1.08Z"/>
    <path class="cls-14" d="M30.03,35.18c-.49.77-.62,1.58-.3,1.79.32.22.98-.24,1.47-1.01.49-.77.62-1.58.3-1.79-.32-.22-.98.24-1.47,1.01Z"/>
    <path class="cls-7" d="M30.1,35.15c-.41.66-.53,1.34-.25,1.53.28.18.84-.2,1.25-.86.41-.66.53-1.34.25-1.53-.28-.19-.84.2-1.25.86Z"/>
    <path class="cls-14" d="M28,38.6c-.37.59-.47,1.2-.23,1.37.25.17.75-.18,1.12-.77.37-.59.47-1.2.23-1.37-.25-.16-.75.18-1.12.77Z"/>
    <path class="cls-7" d="M28.01,38.58c-.31.49-.39.99-.19,1.13.2.14.62-.15.93-.63.31-.49.39-.99.19-1.13-.2-.14-.62.15-.92.63Z"/>
    <path class="cls-17" d="M28.02,33.25c-.21.32-.27.66-.14.76l.81.61c.13.1.4-.08.61-.4h0c.21-.32.27-.66.14-.76l-.82-.62c-.13-.1-.4.08-.61.4h0Z"/>
    <path class="cls-17" d="M26.62,35.43c-.21.32-.27.66-.14.76l.81.62c.13.1.4-.08.61-.4h0c.21-.32.27-.66.14-.76l-.81-.62c-.13-.1-.4.08-.61.4h0Z"/>
  </g>
  <path class="cls-2" d="M52.99,29.71c4.95-6.16,5.06-17.46,1.64-22.75-3.42-5.29-9.01-4.99-10.93-5.96-.67-.34-.77-.65-.63-.91-7.41.69-13.86,5.41-16.02,12.53-2.91,9.63,3.13,20,13.5,23.18.9.27,1.8.48,2.7.63,4.03-.39,6.82-3.09,9.74-6.72Z"/>
  <path class="cls-16" d="M54.63,6.96c-3.42-5.29-9.01-4.99-10.93-5.96-.21-.11-.36-.21-.47-.31-2.08,1.44-4.25,3.08-3.57,4.91,2.23,7.27,3.42,16.83-3.45,21.32-1.76,1.43-4.14,1.57-6.54,1.03,2.49,3.58,6.25,6.43,10.88,7.85.9.27,1.8.48,2.7.63,4.03-.39,6.82-3.09,9.74-6.72,4.95-6.16,5.06-17.46,1.64-22.75Z"/>
  <g>
    <path class="cls-21" d="M53.97,28.85c-3.69,6.15-11.65,8.13-17.78,4.42-6.13-3.71-8.09-11.72-4.4-17.87,3.7-6.16,11.65-8.14,17.78-4.42,6.12,3.71,8.09,11.71,4.4,17.87Z"/>
    <g>
      <path class="cls-8" d="M49.49,23.31c-.2.05-.33-.87-1.05-1.32-.76-.41-1.65-.16-1.68-.33-.09-.09.8-.72,1.95-.17,1.08.75.86,1.87.78,1.81Z"/>
      <path class="cls-8" d="M38.3,16.57c-.2.06-.33-.87-1.05-1.32-.77-.41-1.66-.16-1.68-.33-.08-.09.8-.72,1.96-.16,1.08.75.86,1.87.78,1.81Z"/>
      <path class="cls-11" d="M38.9,25.69s-.49-.07-.75-.59c-.23-.5-.16-.96-.11-.95.05,0,.07.42.28.86.22.45.6.61.58.67Z"/>
      <path class="cls-3" d="M35.34,22.03c-.28.48-1.23.44-2.14-.09-.9-.53-1.41-1.35-1.13-1.83.28-.48,1.24-.44,2.14.09.9.53,1.41,1.35,1.13,1.83Z"/>
      <path class="cls-3" d="M48.26,28.82c-.28.48-1.23.44-2.14-.09-.9-.53-1.41-1.34-1.13-1.83.28-.48,1.24-.44,2.14.09.9.53,1.41,1.35,1.13,1.83Z"/>
      <path class="cls-4" d="M35.68,25.96l5.12,3.05s-1.3,2.81-4.03.77c-1.89-1.41-1.1-3.82-1.1-3.82Z"/>
      <path class="cls-24" d="M36.69,19.03c-.27.53-.91.75-1.45.48-.53-.27-.75-.92-.48-1.45.27-.54.91-.75,1.44-.48.53.27.75.92.48,1.45Z"/>
      <path class="cls-24" d="M47.61,25.17c-.27.54-.91.75-1.45.48-.53-.27-.75-.92-.48-1.45.27-.53.92-.75,1.45-.48.53.27.74.92.48,1.45Z"/>
    </g>
    <g>
      <path class="cls-25" d="M56.5,28.9c.24-.35.27-.77.13-1.16.16-.1.3-.23.42-.4.2-.29.27-.62.24-.95.36-.05.69-.24.9-.56.23-.35.28-.77.16-1.14.16-.11.3-.24.41-.41.36-.54.33-1.23-.02-1.75.15-.11.28-.24.39-.4.44-.65.34-1.5-.18-2.07.18-.13.34-.3.47-.5.69-1.02.4-2.43-.65-3.15-.27-.19-.56-.3-.87-.36.34-.08.65-.28.86-.58.47-.7.25-1.68-.5-2.19-.3-.21-.64-.3-.97-.3,0-.01.02-.02.02-.03.47-.7.25-1.68-.5-2.19-.39-.26-.84-.35-1.25-.28.02-.54-.23-1.09-.73-1.44-.36-.25-.77-.33-1.16-.29,0-.52-.26-1.04-.74-1.37-.41-.28-.91-.36-1.34-.25-.06-.45-.31-.88-.72-1.16-.52-.36-1.16-.39-1.67-.13-.09-.4-.33-.76-.7-1.02-.69-.47-1.57-.38-2.08.18-.71-.42-1.55-.43-2.22-.07-.12-.14-.26-.26-.42-.37-1.05-.72-2.46-.47-3.15.55-.08.12-.15.24-.2.37-.48-.04-.96.12-1.3.46-.81-.27-1.73,0-2.22.73-.16.23-.26.48-.3.74-.49,0-.97.23-1.26.67-.05.07-.09.15-.13.23-.41.12-.78.37-1.03.74-.16.23-.25.48-.29.74-.51,0-.99.22-1.28.65-.29.43-.32.96-.14,1.43-.5-.07-1.01.11-1.29.54-.27.4-.28.89-.08,1.32-.27.16-.69,3.04-.34,3.28.35.24.54-.57,1.03-1.3.2-.3.57-.65.64-.93.58.2.77-.25,1.11-.75.1-.15.15-.31.19-.47.17-.15.35-.35.51-.58,0,0,0,0,0,0,.44-.04.86-.26,1.12-.64.04-.06.07-.12.1-.19.82.23,1.69-.04,2.16-.73.03-.04.05-.09.08-.13.46.04.9-.1,1.23-.4.38.21.8.31,1.21.3.13.24.31.46.55.62.64.44,1.45.39,1.98-.05.09,0,.18.01.27.02.18.41.48.79.89,1.07.21.15.43.25.66.33.11.34.34.65.66.88.34.24.74.32,1.11.3.13.14.27.27.44.39.58.39,1.25.52,1.86.4.09.65.46,1.28,1.06,1.7.03.02.05.03.08.05.09.39.34.76.71,1.02.27.18.56.28.85.3.1.62.46,1.21,1.04,1.61-.05.58.21,1.17.74,1.54.09.06.18.11.27.15.11.61.47,1.18,1.05,1.58.03.02.06.04.09.06,0,.01-.02.03-.03.04-.41.6-.34,1.4.13,1.98-.11.09-.21.19-.3.31-.34.5-.32,1.13-.02,1.65-.05.06-.13.1-.14.17-.68,2.6-1.86,3.33-1.51,3.57.35.24,1.85.34,2.35-.39.23-.34.38-.7.43-1.01.43,0,.85-.19,1.1-.55Z"/>
      <g>
        <path class="cls-6" d="M35.93,9.53c.12.04.19-.48.64-.84.41-.41.9-.55.87-.63,0-.05-.56-.02-1.04.44-.51.43-.49,1.07-.47,1.03Z"/>
        <path class="cls-6" d="M40.61,6.92c.08.04.31-.53,1-.66.66-.14,1.24-.04,1.25-.11.02-.06-.56-.29-1.31-.13-.81.16-1.01.93-.94.9Z"/>
        <path class="cls-6" d="M55.07,26.48s.63.3,1.26-.2c.57-.51.66-1.14.59-1.14-.07-.03-.26.52-.75.95-.51.41-1.09.3-1.1.4Z"/>
        <path class="cls-6" d="M55.56,19.02c0,.09.31-.46-.07-.87-.29-.42-.65-.61-.68-.55-.05.06.23.33.47.69.31.36.16.67.28.73Z"/>
        <path class="cls-6" d="M55.72,21.86c-.06,0,.19.58.88.61.64-.02,1.03-.36.99-.41-.03-.06-.46.15-.98.16-.53,0-.81-.41-.88-.35Z"/>
        <path class="cls-6" d="M55.04,14.58s.22-.57-.29-1.03c-.5-.39-1.02-.38-1.02-.32-.01.07.45.18.86.51.4.35.37.83.46.84Z"/>
        <path class="cls-6" d="M42.22,9.85c.08.07.33-.59,1.03-.38.64.15,1.13.49,1.17.43.04-.04-.38-.5-1.12-.68-.89-.24-1.18.7-1.08.62Z"/>
        <path class="cls-6" d="M47.24,8.19s.63-.56,1.43.21c.74.58,1.25,1.18,1.3,1.13.05-.04-.37-.72-1.15-1.33-.86-.88-1.79-.09-1.58,0Z"/>
        <path class="cls-6" d="M33.28,12.37c.09.03.17-.49.58-.81.42-.32.94-.16.95-.24.05-.03-.5-.37-1.1.04-.53.45-.47,1.04-.44,1.02Z"/>
        <path class="cls-6" d="M51.87,14.29c-.03-.08-.64.86-1.35-.09-.63-.71-.96-1.45-1.03-1.41-.05.02.17.81.85,1.59.86,1.11,1.75-.14,1.53-.08Z"/>
      </g>
    </g>
    <path class="cls-21" d="M53.9,27.63s1.73-.63,1.97.53c.24,1.16-1.78,3.19-3.79,2.02l1.82-2.55Z"/>
  </g>
  <path class="cls-4" d="M28.83,16.82c.96-10,11.85-13.6,11.85-13.6,0,0-12.69,2.49-12.87,14.47-.05,3.07.68,5.55,1.78,7.54-.46-1.8-.75-3.62-.74-5.47-.1-.92-.11-1.9,0-2.93Z"/>
  <path class="cls-4" d="M49.69,6.61c-.19.67-1.46.89-2.82.49-1.37-.4-2.32-1.27-2.12-1.93.19-.67,1.46-.89,2.82-.49,1.37.4,2.32,1.27,2.12,1.93Z"/>
  <path class="cls-4" d="M54.72,18.65s-.01,13.82-12.32,15.47c0,0,10.43-2.76,12.32-15.47Z"/>
  <g>
    <path class="cls-23" d="M32.63,82.3c3.28.6,9.69-4.35,9.54-9.67.58.7,1.26,1.49.97,2.7-.68,2.84-3.79,6.59-6.01,7.57-2,.88-6.3,2.1-6.73-2.52.19.88.89,1.67,2.23,1.91Z"/>
    <g>
      <path class="cls-13" d="M37.95,59.32c-.25,1.8-1.51,5.49-.58,6.94.92,1.45,1.74,3.81,2.21,4.03.48.22,3.38,1.52,2.73,4.22-.64,2.7-3.6,6.26-5.71,7.19-2.11.93-6.94,2.27-6.38-4.1.29-3.28.9-2-1.02-4.99-1.91-2.99-2.83-3.77-3.2-5.66-.37-1.89-1.05-6.77-.44-9.25.39-1.57,13.04-3.07,12.38,1.6Z"/>
      <path class="cls-4" d="M30.77,60.67c2.53-.74,5.96.42,5.7,2.28-.18,1.3-1.09,3.98-.42,5.03.67,1.05,1.26,2.76,1.6,2.92.34.16,2.45,1.1,1.98,3.06-.46,1.95-2.6,4.53-4.13,5.21-1.53.67-5.03,1.64-4.62-2.97.21-2.38.65-1.45-.74-3.61-1.39-2.17-2.05-2.73-2.32-4.1-.27-1.37-.99-3.34-1.03-4.51-.05-1.39,1.91-2.7,3.98-3.31Z"/>
    </g>
    <path class="cls-23" d="M36.91,61.79c.77.2,3.19-1.29,2.05-3.02-1.14-1.72-4.19-3.96-7-4.23-2.81-.27-7.8.29-7.82,2.89-.02,2.6,3.81-1.25,7.51.55,3.7,1.8,4.45,3.6,5.25,3.81Z"/>
    <path class="cls-23" d="M33.18,67.04c-3.01.58-6.69-.41-7.26-.48-.58-.07-.48,1.01.15,2.09.63,1.08,2.85,1.34,5.47,1.13,2.61-.2,5.53-2.38,6.1-2.91.56-.52.19-2.18-.5-2.01-.69.17-2.58,1.91-3.94,2.17Z"/>
    <path class="cls-23" d="M38.53,68.49c-.85,1-1.73,4.4-3.42,5.15-2.36,1.05-3.97.38-4.79.21-.81-.18-.28,1.73.26,2.13.54.4,4.89,1.09,6.89-1.11,2.01-2.2,2.65-4.42,2.39-5.04-.26-.62-1.11-1.6-1.33-1.33Z"/>
  </g>
  <g>
    <path class="cls-4" d="M64.61,24.1c2.91-9.63-3.13-20.01-13.5-23.18C48.94.26,46.75-.03,44.62,0c-.52,0-1.04.04-1.55.09-.14.26-.04.57.63.91,1.92.98,7.51.68,10.93,5.96,3.42,5.29,3.31,16.59-1.64,22.75-2.91,3.63-5.7,6.33-9.74,6.72,9.48,1.59,18.69-3.53,21.35-12.33Z"/>
    <path class="cls-26" d="M43.26,36.43c-.1-.21,3.03-.13,6.31-3.34,3.35-2.98,7.03-8.45,7.02-15.5.12-3.42-.41-6.73-1.65-9.39-1.29-2.65-3.46-4.38-5.5-5.24-2.05-.89-3.88-1.15-5.1-1.57-1.38-.31-1.51-1.38-1.27-1.31-.1.03.03.77,1.36,1.03,1.2.33,3.06.51,5.21,1.37,2.14.83,4.51,2.62,5.9,5.42,1.34,2.79,1.9,6.2,1.77,9.71.03,7.22-3.92,12.97-7.4,15.85-3.5,3.22-6.77,2.95-6.66,2.96Z"/>
  </g>
  <path class="cls-23" d="M39.45,44.44c-.33-2.06.74-4.03,3.08-5.05,2.34-1.02,5.53-.65,6.18,1.64.65,2.28-4.22,5.82-6.41,5.42-2.19-.41-2.75-1.36-2.85-2Z"/>
  <g>
    <g>
      <path class="cls-10" d="M53.97,59c.04.52.44,3.39-.6,3.63-1.03.24-1.59-2.1-1.44-3.35.14-1.25,1.97-1.17,2.04-.28Z"/>
      <path class="cls-18" d="M53.24,60.34c.54.29.39,1.27.23,2.26.91-.39.54-3.09.5-3.6-.07-.88-1.9-.97-2.04.28-.04.31-.03.69.02,1.08.41-.26.85-.32,1.29-.02Z"/>
    </g>
    <g>
      <path class="cls-10" d="M60.28,54.93c.47.47,2.52,2.01,2.39,3.18-.14,1.18-1.45.44-2.59-.95-1.15-1.39-1.81-1.85-1.96-1.92-.15-.07,1.14-1.33,2.16-.32Z"/>
      <path class="cls-18" d="M61.55,56.1c-.51-.52-1.05-.95-1.27-1.17-1.02-1.01-2.32.25-2.16.32.13.06.65.42,1.55,1.44.57-.29,1.2-.5,1.88-.59Z"/>
    </g>
    <g>
      <path class="cls-10" d="M59.12,55.9c.47.47,2.52,2,2.39,3.18-.14,1.18-1.45.44-2.59-.95-1.15-1.38-1.81-1.85-1.96-1.92-.15-.07,1.14-1.33,2.16-.32Z"/>
      <path class="cls-18" d="M59.12,55.9c-1.02-1.01-2.32.25-2.16.32.13.06.62.4,1.45,1.33.45-.39.94-.72,1.47-.96-.33-.3-.62-.54-.76-.68Z"/>
    </g>
    <g>
      <path class="cls-10" d="M57.75,56.74c.47.47,2.52,2,2.39,3.18-.14,1.18-1.44.44-2.59-.95-1.15-1.38-1.8-1.85-1.96-1.92-.15-.07,1.15-1.33,2.16-.32Z"/>
      <path class="cls-18" d="M57.75,56.74c-1.02-1.01-2.32.25-2.16.32.14.07.72.47,1.73,1.65.36-.47.77-.9,1.21-1.27-.33-.31-.63-.55-.78-.7Z"/>
    </g>
    <g>
      <path class="cls-10" d="M56.05,57.27c.47.47,2.52,2,2.39,3.18-.14,1.18-1.45.44-2.59-.95-1.15-1.38-1.81-1.85-1.96-1.92-.15-.07,1.15-1.33,2.16-.32Z"/>
      <path class="cls-18" d="M57.44,58.56c-.55-.57-1.16-1.06-1.39-1.29-1.02-1.01-2.32.25-2.16.32.15.07.81.53,1.96,1.92.19.23.38.44.57.62.3-.56.64-1.09,1.02-1.57Z"/>
    </g>
    <g>
      <path class="cls-9" d="M57.64,52.94c1.02.48,2.95,1.84,3.12,2.33.17.5-1.61.4-3.17,1.58-1.56,1.18-2.16,2.3-2.43,2.55-.27.25-1.54.02-1.77-.25-.23-.27-1.03.35-1.37.56-.34.21-1.25-1.3-1.05-2.79.2-1.49,2.51-3.3,3.54-3.6,1.03-.31,2.67-.59,3.13-.37Z"/>
      <path class="cls-22" d="M59.51,54.1c-1.75.52-3.44,1.08-4.19,2.94-.77-.6-1.39.01-2.18.13-.06-.96-.12-1.92-.36-2.8-.87.72-1.7,1.69-1.81,2.56-.2,1.49.71,3.01,1.05,2.79.34-.21,1.14-.84,1.37-.56.23.27,1.5.5,1.77.25.27-.25.88-1.37,2.43-2.55,1.56-1.18,3.34-1.08,3.17-1.58-.09-.25-.62-.71-1.25-1.18Z"/>
    </g>
    <g>
      <path class="cls-4" d="M47.05,39.63c3.04,2.3,5.71,4.85,7.25,7.04,1.54,2.19,3.48,5.24,3.15,6.12-.32.89-4.78-.01-6.29,3.69,0,0-.42.31-1.77-2.47-1.35-2.78-4.07-7.1-7.08-8.14-3.01-1.04,2.64-7.83,4.73-6.24Z"/>
      <path class="cls-13" d="M42.99,41.5c-1.44,1.67-2.25,3.82-.67,4.36,3.01,1.04,5.73,5.36,7.08,8.14,1.35,2.78,1.77,2.47,1.77,2.47.37-.92.93-1.55,1.56-2-2.14-5.27-4.7-10.41-9.74-12.97Z"/>
    </g>
    <path class="cls-23" d="M43.37,45.67c.54-1.65,1.44-2.65,2.23-3.34.79-.69,1.79-1.36,3.45-1.68,1.67-.32,2.6,2.17,1.83,2.29-.77.12-2.83.61-3.71,1.34-.88.73-2.04,1.85-2.03,3.78,0,.8-2.3-.73-1.76-2.39Z"/>
    <path class="cls-20" d="M50.38,42.64c.53-.08-.11-1.8-1.26-1.58-.41.08-.76.19-1.06.32.51.36.82.93,1.05,1.57.5-.16,1-.27,1.27-.31Z"/>
    <path class="cls-23" d="M47.47,50.21c.65-1.58,1.61-2.49,2.45-3.1.84-.62,1.88-1.21,3.55-1.41,1.69-.2,2.44,2.29,1.66,2.35-.78.07-2.86.41-3.79,1.06-.93.65-2.17,1.67-2.28,3.55-.05.79-2.25-.87-1.59-2.44Z"/>
    <path class="cls-20" d="M54.53,47.68c.5-.04.01-1.63-1.06-1.5-.5.06-.91.17-1.26.32.41.4.68.9.92,1.44.54-.15,1.11-.23,1.4-.26Z"/>
    <path class="cls-23" d="M53.03,51.93c.72-.43,3.46-1.41,4.41-.67.94.75,1.61,2.05.5,2.14-1.1.09-2.93,0-4.03.72-1.1.72-2.4,1.92-2.8,2.61-.4.69-1.71-.89-1.08-1.88.63-.99,1.92-2.29,3-2.93Z"/>
    <path class="cls-20" d="M57.2,51.68c-.27-.21-.78-.2-1.29-.1.25.47.41.97.49,1.5.41-.04.81-.04,1.12-.06.69-.06.28-.87-.32-1.34Z"/>
  </g>
</svg>