<?xml version="1.0" encoding="UTF-8"?>
<svg id="Layer_1" data-name="Layer 1" xmlns="http://www.w3.org/2000/svg" viewBox="0 0 482.07 291.22">
  <defs>
    <style>
      .cls-1 {
        fill: #a171b1;
      }
    </style>
  </defs>
  <g>
    <path class="cls-1" d="M58.47,217.89c-1.73,1.33-4.29,1.11-5.71-.49-1.43-1.6-1.18-3.97.55-5.29,1.73-1.33,4.28-1.11,5.71.49,1.42,1.6,1.18,3.97-.56,5.3Z"/>
    <path class="cls-1" d="M74.5,224.19c-.96.74-2.38.61-3.16-.27-.79-.88-.65-2.19.3-2.93.96-.74,2.37-.61,3.16.27.79.88.65,2.2-.3,2.92Z"/>
    <path class="cls-1" d="M116.11,253.12c-.36,1.1-1.61,1.72-2.8,1.39-1.18-.33-1.85-1.49-1.49-2.59.35-1.09,1.61-1.72,2.8-1.39,1.19.33,1.85,1.49,1.49,2.59Z"/>
    <path class="cls-1" d="M99.41,250.53c-.59.45-1.46.37-1.94-.17-.49-.54-.4-1.35.19-1.8.59-.46,1.46-.38,1.94.17.48.54.4,1.35-.19,1.8Z"/>
    <path class="cls-1" d="M61.01,231.18c-.49.37-1.21.31-1.62-.14-.4-.45-.32-1.12.16-1.5.49-.37,1.21-.31,1.61.14.4.45.33,1.12-.16,1.49Z"/>
    <path class="cls-1" d="M105.97,255.46c-.19.57-.82.88-1.43.71-.6-.17-.94-.76-.76-1.33.18-.56.82-.88,1.43-.71.61.17.95.76.76,1.32Z"/>
    <path class="cls-1" d="M40.57,202.12c1.05.41,1.54,1.54,1.1,2.51-.45.98-1.66,1.44-2.71,1.03-1.05-.41-1.55-1.54-1.1-2.51.45-.98,1.66-1.44,2.71-1.03Z"/>
    <path class="cls-1" d="M39.9,193.89c.58.23.85.85.6,1.39-.25.54-.91.79-1.5.57-.58-.23-.85-.85-.61-1.39.25-.54.92-.8,1.51-.57Z"/>
    <path class="cls-1" d="M51.84,192.07c.58.23.85.84.6,1.39-.25.54-.92.79-1.5.57-.58-.23-.85-.85-.61-1.39.25-.54.91-.8,1.5-.57Z"/>
    <path class="cls-1" d="M90.26,256.83c.47-.43,1.22-.42,1.69,0,.46.44.46,1.14-.02,1.57-.47.43-1.23.42-1.69-.01-.46-.43-.46-1.13.01-1.57Z"/>
    <path class="cls-1" d="M43.02,158.83c.66-.05,1.23.4,1.29,1.01.05.61-.43,1.15-1.09,1.2-.66.06-1.23-.4-1.29-1-.05-.61.44-1.15,1.09-1.2Z"/>
    <path class="cls-1" d="M83.36,230.15c.45-.41,1.17-.41,1.62.01.44.42.44,1.09-.01,1.5-.45.41-1.18.41-1.62-.01-.44-.41-.44-1.09.01-1.5Z"/>
    <path class="cls-1" d="M73.28,230.28c.45-.42,1.17-.41,1.62,0,.45.41.44,1.09-.02,1.5-.45.41-1.17.41-1.61-.01-.44-.42-.44-1.09.01-1.5Z"/>
    <path class="cls-1" d="M63.47,215.87c.45-.41,1.17-.41,1.62,0,.44.42.44,1.09-.02,1.5-.45.42-1.17.41-1.62-.01-.44-.42-.44-1.09.02-1.5Z"/>
    <path class="cls-1" d="M44.94,219.05c.45-.42,1.18-.41,1.62,0,.45.42.44,1.09-.02,1.5-.45.41-1.18.41-1.62-.01-.45-.42-.44-1.09.01-1.5Z"/>
    <path class="cls-1" d="M93.93,254.23c.07-.33.42-.53.76-.47.35.07.58.38.49.71-.07.33-.41.53-.76.46-.34-.07-.57-.38-.5-.71Z"/>
    <path class="cls-1" d="M36.67,212.76c-.12.37-.54.59-.94.48-.41-.11-.64-.5-.52-.88.12-.37.54-.59.95-.48.41.1.64.5.51.88Z"/>
    <path class="cls-1" d="M98.51,264.51c.07-.33.42-.55.77-.48.36.06.59.39.52.72-.07.33-.42.54-.77.48-.36-.07-.59-.39-.52-.72Z"/>
    <path class="cls-1" d="M75.61,235.31c.42-.01.77.3.78.69,0,.39-.33.71-.74.73-.43,0-.77-.3-.78-.69-.01-.4.33-.72.75-.73Z"/>
    <path class="cls-1" d="M77.25,242.63c-.24.03-.45-.13-.48-.35-.02-.22.15-.41.38-.44.24-.03.45.14.48.35.03.22-.14.42-.38.44Z"/>
    <path class="cls-1" d="M80.03,212.04c-.34-.23-.42-.67-.17-.99.25-.32.72-.39,1.07-.17.34.23.42.68.17.99-.25.32-.73.39-1.07.16Z"/>
    <path class="cls-1" d="M130.15,262.65c.23.02.41.21.39.43-.02.22-.23.38-.47.36-.24-.01-.42-.21-.39-.43.02-.22.23-.38.47-.36Z"/>
    <path class="cls-1" d="M56.76,181.3c-.42-.07-.69-.44-.61-.83.08-.39.48-.64.89-.57.41.07.68.44.6.82-.07.39-.47.64-.89.57Z"/>
    <path class="cls-1" d="M56.79,173.81c.23.02.41.21.39.43-.03.22-.23.38-.47.36-.24-.02-.41-.21-.38-.43.03-.22.23-.38.47-.36Z"/>
    <path class="cls-1" d="M44.76,169.71c.03-.39.4-.68.82-.65.42.02.74.37.7.76-.03.39-.39.68-.82.65-.42-.02-.73-.36-.71-.76Z"/>
    <path class="cls-1" d="M52.79,168.88c0,.23-.18.41-.42.41-.24,0-.43-.17-.44-.39,0-.22.19-.41.43-.41.24,0,.43.17.43.39Z"/>
    <path class="cls-1" d="M59.07,147.34c.2-.34.67-.47,1.04-.27.36.18.5.61.29.96-.2.34-.66.47-1.04.28-.37-.18-.5-.62-.3-.96Z"/>
    <path class="cls-1" d="M66.72,149.71c-.1.2-.35.29-.57.2-.21-.09-.31-.32-.21-.53.09-.2.35-.29.57-.2.22.09.32.32.22.53Z"/>
    <path class="cls-1" d="M90.01,241.05c.41-.06.8.21.87.6.06.38-.22.75-.65.8-.42.06-.8-.2-.87-.59-.06-.39.22-.75.65-.81Z"/>
    <path class="cls-1" d="M92.63,248.13c-.23.05-.46-.09-.52-.3-.05-.22.09-.43.32-.48.23-.05.46.07.52.29.05.21-.09.42-.32.48Z"/>
    <path class="cls-1" d="M55.61,203.26c.82-.75,2.13-.74,2.93.02.8.75.79,1.97-.03,2.71-.81.74-2.13.74-2.93-.02-.8-.75-.78-1.97.03-2.72Z"/>
    <path class="cls-1" d="M62.63,193.47c.45-.41,1.17-.41,1.62.01.44.41.44,1.09-.02,1.5-.45.41-1.17.41-1.62,0-.44-.41-.43-1.09.02-1.5Z"/>
    <path class="cls-1" d="M69.17,204.82c.45-.41,1.18-.41,1.62.01.44.41.43,1.08-.02,1.5-.45.41-1.17.41-1.62-.01-.44-.41-.43-1.09.01-1.5Z"/>
    <path class="cls-1" d="M52.2,155.57c1.19.31,1.89,1.46,1.55,2.56-.34,1.1-1.57,1.76-2.76,1.45-1.19-.3-1.89-1.45-1.56-2.56.34-1.11,1.57-1.76,2.77-1.46Z"/>
    <path class="cls-1" d="M42.37,186.25c-.96.73-2.37.61-3.16-.28-.78-.88-.65-2.19.31-2.93.95-.73,2.37-.61,3.16.28.79.88.65,2.2-.3,2.93Z"/>
    <path class="cls-1" d="M40.14,173.28c-.37-.19-.5-.63-.29-.96.2-.34.67-.47,1.04-.28.37.19.5.62.29.96-.2.34-.67.47-1.03.28Z"/>
    <path class="cls-1" d="M42.75,166.19c.22.09.32.32.21.52-.1.2-.35.29-.57.2-.21-.09-.32-.33-.22-.53.1-.2.35-.29.57-.2Z"/>
    <path class="cls-1" d="M64.43,174.81c-.61,1.01-1.97,1.36-3.05.8-1.08-.56-1.46-1.83-.85-2.83.61-1,1.97-1.36,3.05-.79,1.08.56,1.46,1.83.85,2.82Z"/>
    <path class="cls-1" d="M52.71,139.92c-.12-.23-.02-.5.22-.61.24-.11.53-.02.65.2.12.22.03.49-.22.6-.24.11-.53.02-.65-.2Z"/>
    <path class="cls-1" d="M56.86,137.03c.07.12.03.28-.09.35-.13.07-.3.04-.38-.09-.07-.12-.03-.28.09-.35.14-.07.3-.04.38.08Z"/>
    <path class="cls-1" d="M52.75,148.04c-.77-.17-1.24-.89-1.05-1.61.18-.71.96-1.16,1.73-.98.77.17,1.24.88,1.06,1.6-.19.72-.96,1.16-1.74.99Z"/>
    <path class="cls-1" d="M116.06,263.21c.26-.08.54.05.62.29.09.24-.05.49-.31.57-.26.08-.53-.04-.62-.28-.08-.24.05-.49.31-.57Z"/>
    <path class="cls-1" d="M118.55,267.41c-.14.06-.3,0-.36-.13-.06-.13,0-.28.14-.33.14-.05.31,0,.37.13.06.13,0,.28-.14.33Z"/>
    <path class="cls-1" d="M107.38,262.13c.3-.69,1.13-1.02,1.87-.76.74.27,1.09,1.04.8,1.73-.29.68-1.13,1.02-1.87.75-.73-.27-1.09-1.04-.8-1.72Z"/>
    <path class="cls-1" d="M85.15,259.16c.26.06.42.31.34.56-.07.24-.34.38-.6.32-.26-.06-.41-.31-.34-.55.07-.24.34-.39.6-.32Z"/>
    <path class="cls-1" d="M123.92,260.33c-.15.03-.3-.04-.34-.18-.04-.14.04-.27.19-.31.15-.04.3.04.34.18.04.14-.05.28-.19.31Z"/>
    <path class="cls-1" d="M78.58,253.81c.65-.42,1.55-.28,2,.33.45.6.29,1.43-.36,1.85-.65.42-1.55.27-2-.33-.45-.61-.29-1.43.36-1.86Z"/>
    <path class="cls-1" d="M75.61,195.23c.15.2.1.49-.12.63-.22.14-.52.1-.68-.11-.16-.21-.1-.48.12-.63.22-.15.52-.09.68.11Z"/>
    <path class="cls-1" d="M71.98,198.66c-.1-.11-.09-.27.03-.36.12-.09.29-.08.39.03.1.11.08.27-.03.36-.12.09-.29.07-.39-.03Z"/>
    <path class="cls-1" d="M53.56,184.86c.54.53.52,1.38-.06,1.89-.58.5-1.49.48-2.03-.05-.55-.53-.52-1.38.05-1.88.58-.51,1.49-.49,2.03.04Z"/>
    <path class="cls-1" d="M58.88,134.51c.46.13.72.58.58,1.01-.14.43-.63.67-1.1.54-.47-.13-.72-.58-.57-1.01.14-.43.64-.67,1.1-.54Z"/>
    <path class="cls-1" d="M57.78,143.05c-.27-.05-.44-.3-.38-.55.05-.25.32-.4.58-.35.26.05.44.3.38.54-.06.25-.32.41-.58.35Z"/>
    <path class="cls-1" d="M54.59,161.37c.45-.6,1.34-.75,2-.33.64.42.8,1.25.35,1.86-.46.6-1.36.75-2,.33-.65-.42-.8-1.25-.35-1.86Z"/>
    <path class="cls-1" d="M3.57,173.92c.46-.6,1.35-.75,2-.33.64.42.8,1.25.35,1.86-.46.6-1.36.75-2,.33-.65-.42-.8-1.25-.35-1.85Z"/>
    <path class="cls-1" d="M17.93,195.98c.25-.34.75-.42,1.11-.18.36.24.45.7.2,1.04-.26.34-.76.42-1.12.19-.36-.24-.45-.7-.19-1.04Z"/>
    <path class="cls-1" d="M.15,190.78c.25-.34.75-.42,1.11-.18.36.23.45.7.2,1.04-.26.34-.76.42-1.12.19-.36-.24-.45-.7-.19-1.04Z"/>
    <path class="cls-1" d="M81.04,282.84c.4.63.17,1.45-.52,1.82-.68.37-1.56.16-1.96-.48-.4-.64-.16-1.45.52-1.82.69-.37,1.56-.16,1.96.48Z"/>
    <path class="cls-1" d="M53.37,285.73c.22.35.09.81-.29,1.02-.38.21-.87.09-1.1-.27-.22-.36-.09-.81.29-1.02.38-.21.87-.09,1.09.27Z"/>
    <path class="cls-1" d="M66,272.93c.22.36.09.81-.29,1.01-.38.21-.87.09-1.1-.26-.22-.36-.09-.81.29-1.02.38-.21.87-.09,1.1.27Z"/>
    <path class="cls-1" d="M35.49,233.96c.4.64.16,1.45-.52,1.82-.68.37-1.56.16-1.96-.48-.4-.64-.16-1.45.52-1.82.69-.37,1.56-.16,1.97.48Z"/>
    <path class="cls-1" d="M7.82,236.85c.22.35.09.81-.29,1.02-.38.21-.88.09-1.1-.27-.22-.36-.09-.81.29-1.02.38-.2.87-.09,1.09.27Z"/>
    <path class="cls-1" d="M20.44,224.05c.22.35.09.81-.29,1.02-.38.21-.87.09-1.09-.27-.22-.36-.09-.81.29-1.02.38-.2.87-.09,1.09.27Z"/>
    <path class="cls-1" d="M251.25,202.52c.4.64.16,1.45-.52,1.82-.68.37-1.56.16-1.96-.48-.4-.64-.16-1.45.52-1.82.69-.37,1.56-.16,1.96.48Z"/>
    <path class="cls-1" d="M223.58,205.41c.22.35.09.81-.29,1.02-.38.21-.87.09-1.1-.27-.22-.36-.09-.81.3-1.02.38-.21.87-.09,1.1.27Z"/>
    <path class="cls-1" d="M236.2,192.61c.22.36.09.81-.3,1.02-.38.21-.87.09-1.1-.27-.22-.36-.09-.81.29-1.02.38-.21.87-.09,1.1.27Z"/>
    <path class="cls-1" d="M262.18,240.83c-.19.71-.97,1.15-1.74.97-.77-.18-1.23-.9-1.04-1.61.2-.72.98-1.15,1.74-.97.77.18,1.24.9,1.04,1.61Z"/>
    <path class="cls-1" d="M240.26,225.01c-.11.4-.54.64-.97.54-.43-.1-.69-.5-.58-.9.11-.4.55-.64.98-.54.43.1.69.5.58.9Z"/>
    <path class="cls-1" d="M258.9,223.97c-.11.4-.54.64-.98.54-.43-.1-.69-.5-.58-.9.11-.4.55-.64.98-.54.43.1.69.5.58.9Z"/>
    <path class="cls-1" d="M184.94,211.87c-.55.53-1.45.56-2.03.06-.57-.5-.6-1.35-.06-1.88.55-.54,1.46-.56,2.03-.06.57.51.6,1.34.05,1.88Z"/>
    <path class="cls-1" d="M174.19,188.1c-.3.3-.81.31-1.13.03-.32-.28-.34-.75-.03-1.05.3-.3.81-.31,1.13-.03.32.28.34.75.03,1.05Z"/>
    <path class="cls-1" d="M190.96,195.63c-.31.3-.81.32-1.13.03-.32-.28-.33-.75-.03-1.05.31-.3.81-.31,1.13-.03.32.28.33.75.03,1.05Z"/>
    <path class="cls-1" d="M186.71,125.92c-.54.53-1.45.56-2.03.06-.57-.5-.6-1.34-.06-1.88.55-.54,1.46-.56,2.03-.06.58.51.6,1.35.05,1.89Z"/>
    <path class="cls-1" d="M175.96,102.15c-.3.3-.81.31-1.13.03-.32-.28-.34-.75-.03-1.05.31-.3.81-.31,1.14-.03.32.28.33.75.03,1.05Z"/>
    <path class="cls-1" d="M192.74,109.69c-.3.3-.81.32-1.13.03-.32-.28-.33-.75-.03-1.05.31-.3.81-.31,1.13-.03.32.28.34.75.03,1.05Z"/>
    <path class="cls-1" d="M160.11,47.73c-.03.73-.69,1.31-1.49,1.29-.79-.03-1.41-.64-1.38-1.37.03-.74.7-1.31,1.49-1.29.79.03,1.41.64,1.38,1.38Z"/>
    <path class="cls-1" d="M135.07,36.54c-.02.41-.39.73-.83.72-.44-.01-.79-.36-.77-.77.01-.41.39-.73.83-.72.44.01.79.36.77.77Z"/>
    <path class="cls-1" d="M153.07,31.89c-.02.41-.39.73-.83.72-.44-.02-.79-.36-.77-.77.02-.41.39-.73.83-.72.44.02.79.36.77.77Z"/>
    <path class="cls-1" d="M395.67,50.63c-.03.73-.69,1.31-1.49,1.29-.79-.03-1.41-.64-1.38-1.37.03-.74.7-1.31,1.49-1.29.8.03,1.41.64,1.39,1.38Z"/>
    <path class="cls-1" d="M370.63,39.44c-.01.41-.39.73-.83.72-.45-.01-.79-.36-.78-.77.01-.41.39-.73.83-.72.44.01.79.36.77.77Z"/>
    <path class="cls-1" d="M388.64,34.79c-.02.41-.39.73-.83.72-.44-.02-.79-.36-.77-.77.02-.41.39-.73.83-.72.44.02.79.36.77.77Z"/>
    <path class="cls-1" d="M320.93,27.28c-.03.73-.69,1.31-1.49,1.29-.79-.03-1.41-.64-1.38-1.37.03-.74.7-1.31,1.48-1.29.8.03,1.41.64,1.39,1.38Z"/>
    <path class="cls-1" d="M274.43,1.38c-.03.73-.69,1.31-1.49,1.29-.79-.03-1.41-.64-1.39-1.37.03-.74.7-1.31,1.49-1.29.8.02,1.41.64,1.39,1.38Z"/>
    <path class="cls-1" d="M295.89,16.1c-.01.41-.39.73-.83.72-.44-.01-.79-.36-.77-.77.02-.41.39-.73.83-.72.44.01.79.35.77.77Z"/>
    <path class="cls-1" d="M342.6,17.73c-.01.41-.39.73-.83.72-.44-.01-.79-.36-.77-.77.01-.41.39-.73.83-.72.44.01.79.35.77.77Z"/>
    <path class="cls-1" d="M313.9,11.45c-.02.41-.39.73-.83.72-.44-.02-.79-.36-.77-.77.02-.41.39-.73.83-.72.44.02.79.36.77.77Z"/>
    <path class="cls-1" d="M462.2,233.6c.37.65.11,1.45-.59,1.8-.7.35-1.57.11-1.94-.54-.37-.65-.1-1.46.59-1.8.7-.35,1.57-.11,1.94.54Z"/>
    <path class="cls-1" d="M407.87,232.87c.37.65.11,1.45-.59,1.8-.7.34-1.57.1-1.94-.54-.37-.65-.1-1.46.59-1.8.7-.35,1.57-.1,1.95.54Z"/>
    <path class="cls-1" d="M434.44,235.59c.21.36.06.81-.33,1.01-.39.19-.88.06-1.09-.3-.21-.36-.06-.81.33-1.01.39-.19.87-.06,1.08.31Z"/>
    <path class="cls-1" d="M475.82,215.27c.21.36.06.81-.33,1.01-.39.19-.88.06-1.09-.3-.21-.36-.06-.81.33-1.01.39-.19.87-.06,1.08.31Z"/>
    <path class="cls-1" d="M447.53,223.21c.21.36.06.81-.33,1.01-.39.19-.87.06-1.09-.3-.21-.37-.05-.82.33-1.01.39-.19.88-.06,1.09.31Z"/>
    <path class="cls-1" d="M408.63,253.26c.56-.52,1.47-.52,2.03,0,.55.52.55,1.36-.01,1.88-.57.52-1.48.51-2.04,0-.55-.53-.55-1.36.02-1.88Z"/>
    <path class="cls-1" d="M438.43,281.97c.57-.52,1.47-.51,2.03,0,.55.52.55,1.37-.01,1.88-.57.52-1.48.51-2.03,0-.56-.52-.55-1.37.02-1.88Z"/>
    <path class="cls-1" d="M418.47,277.38c.31-.29.82-.29,1.13,0,.31.29.31.76,0,1.05-.32.29-.83.29-1.14,0-.31-.29-.3-.76.01-1.05Z"/>
    <path class="cls-1" d="M385.86,246.42c.31-.29.82-.29,1.13,0,.31.29.31.76,0,1.05-.31.29-.83.29-1.14,0-.31-.29-.31-.76.01-1.05Z"/>
    <path class="cls-1" d="M401.99,269.29c.32-.29.82-.28,1.14,0,.31.29.3.76-.01,1.05-.32.29-.83.29-1.13,0-.31-.29-.31-.76.01-1.05Z"/>
    <path class="cls-1" d="M465.15,112.39c.57-.52,1.47-.51,2.03,0,.55.52.55,1.37-.01,1.88-.57.52-1.48.51-2.03,0-.56-.52-.55-1.36.02-1.88Z"/>
    <path class="cls-1" d="M479.63,160.91c.56-.52,1.47-.52,2.03,0,.55.52.55,1.36-.01,1.88-.57.52-1.48.51-2.03,0-.55-.53-.55-1.36.02-1.88Z"/>
    <path class="cls-1" d="M474.99,136.5c.31-.29.82-.29,1.13,0,.31.29.31.76,0,1.05-.32.29-.83.29-1.14,0-.31-.29-.3-.76.01-1.05Z"/>
    <path class="cls-1" d="M442.38,105.54c.31-.29.82-.29,1.13,0,.31.29.31.76,0,1.05-.32.29-.83.29-1.14,0-.31-.29-.3-.76.01-1.05Z"/>
    <path class="cls-1" d="M458.51,128.41c.32-.29.82-.29,1.13,0,.31.29.31.76-.01,1.05-.32.29-.83.29-1.13,0-.31-.29-.31-.76.01-1.05Z"/>
    <path class="cls-1" d="M354.56,171.68c.14.72-.36,1.42-1.15,1.56-.77.14-1.53-.33-1.68-1.06-.14-.73.38-1.42,1.15-1.56.78-.14,1.53.33,1.68,1.06Z"/>
    <path class="cls-1" d="M303.01,155.93c.15.72-.36,1.42-1.14,1.56-.78.14-1.53-.33-1.68-1.05-.14-.73.37-1.42,1.14-1.56.78-.13,1.53.33,1.68,1.06Z"/>
    <path class="cls-1" d="M327.46,165.89c.08.4-.2.79-.64.87-.44.08-.86-.19-.94-.59-.08-.4.21-.79.64-.87.44-.07.85.19.94.59Z"/>
    <path class="cls-1" d="M373.45,157.95c.09.4-.2.79-.63.87-.44.08-.86-.19-.94-.59-.08-.41.21-.79.64-.87.43-.07.86.19.93.59Z"/>
    <path class="cls-1" d="M343.94,157.69c.08.4-.2.79-.64.87-.43.08-.85-.18-.94-.59-.08-.41.21-.79.64-.87.44-.08.86.19.94.59Z"/>
    <path class="cls-1" d="M48.52,188.4c-.26.08-.54-.05-.61-.28-.09-.24.05-.49.31-.57.26-.08.53.05.61.29.09.24-.05.49-.31.57Z"/>
    <path class="cls-1" d="M68.15,191.35c.07-.13.23-.18.37-.12.13.06.19.21.13.34-.07.13-.23.18-.36.12-.14-.06-.2-.21-.14-.34Z"/>
    <path class="cls-1" d="M57.2,189.48c-.3.68-1.13,1.01-1.86.75-.74-.27-1.1-1.04-.81-1.72.3-.68,1.13-1.02,1.87-.75.73.27,1.1,1.04.8,1.73Z"/>
    <path class="cls-1" d="M69.22,209.71c-.13.22-.44.29-.67.17-.23-.12-.31-.4-.18-.62.14-.21.43-.29.67-.16.23.12.31.4.18.62Z"/>
    <path class="cls-1" d="M64.35,208.12c.06-.13.23-.19.37-.13.14.06.2.21.13.34-.06.13-.23.19-.37.13-.14-.06-.19-.21-.13-.34Z"/>
    <path class="cls-1" d="M76.5,205.17c.27.69-.11,1.45-.85,1.71-.75.25-1.57-.1-1.84-.79-.27-.69.11-1.46.86-1.71.74-.25,1.57.09,1.84.79Z"/>
    <path class="cls-1" d="M67.51,125.86c.46.14.73.58.58,1.01-.14.43-.63.67-1.1.54-.46-.13-.72-.58-.57-1.01.14-.44.63-.67,1.09-.54Z"/>
    <path class="cls-1" d="M66.42,134.41c-.27-.05-.44-.3-.39-.55.06-.24.33-.41.59-.35.27.05.44.3.38.55-.06.25-.33.41-.59.35Z"/>
    <path class="cls-1" d="M57.11,155.23c.45-.6,1.35-.75,2-.33.65.42.8,1.25.35,1.86-.46.6-1.35.75-2,.33-.65-.42-.81-1.25-.35-1.86Z"/>
    <path class="cls-1" d="M50.09,179.69c-.69.53-1.7.44-2.26-.19-.57-.63-.47-1.57.22-2.1.69-.53,1.7-.44,2.26.19.56.63.47,1.58-.22,2.1Z"/>
    <path class="cls-1" d="M148.96,100.44c.58-.23,1.25.01,1.5.55.25.53-.02,1.16-.6,1.4-.58.23-1.25-.02-1.5-.56-.26-.54.01-1.16.59-1.39Z"/>
    <path class="cls-1" d="M122.26,86.57c.39-.16.84,0,1,.36.17.36-.01.77-.4.93-.39.15-.84,0-1-.37-.17-.36.01-.77.4-.93Z"/>
    <path class="cls-1" d="M123.7,108.23c.88.15,1.45.92,1.29,1.73-.15.81-.99,1.35-1.87,1.21-.88-.15-1.45-.93-1.29-1.73.16-.81,1-1.35,1.87-1.2Z"/>
    <path class="cls-1" d="M49.82,209.26c-.96.73-2.37.61-3.16-.28-.79-.88-.65-2.19.31-2.93.95-.73,2.36-.61,3.15.27.78.89.65,2.19-.31,2.93Z"/>
    <path class="cls-1" d="M67.65,230.22c-.95.73-2.37.61-3.16-.27-.79-.89-.65-2.19.31-2.93.96-.73,2.37-.61,3.16.27.78.89.65,2.2-.31,2.93Z"/>
    <path class="cls-1" d="M82.71,247.14c-.96.73-2.37.61-3.16-.27-.78-.88-.65-2.19.31-2.93.96-.73,2.37-.61,3.16.27.79.88.65,2.2-.3,2.93Z"/>
  </g>
  <g>
    <path class="cls-1" d="M145.17,265.53c-.41-.02-.77-.02-1.17.09-1.6.46-1.1,2.53.46,2.58.41.02.77-.1,1.15-.21,1.53-.45,1.04-2.39-.44-2.46Z"/>
    <path class="cls-1" d="M167.67,279.48c-1.71.2-1.64,2.7.08,2.5,1.71-.2,1.64-2.7-.08-2.5Z"/>
    <path class="cls-1" d="M179.12,273.16c1.73-.21,1.67-2.74-.08-2.53-1.73.21-1.66,2.74.08,2.53Z"/>
    <path class="cls-1" d="M164.15,266.76c-1.5.18-1.44,2.37.07,2.19,1.5-.18,1.44-2.36-.07-2.19Z"/>
    <path class="cls-1" d="M192.6,284.86c-1.67.2-1.6,2.63.08,2.43,1.67-.2,1.6-2.63-.08-2.43Z"/>
    <path class="cls-1" d="M201.45,277.3c-1.89.22-1.81,2.99.09,2.76,1.9-.22,1.82-2.99-.09-2.76Z"/>
    <path class="cls-1" d="M236.28,269.36c-2.12.25-2.03,3.34.1,3.09,2.12-.25,2.03-3.35-.1-3.09Z"/>
    <path class="cls-1" d="M239.92,283.37c-1.7.2-1.63,2.68.08,2.47,1.69-.2,1.63-2.68-.08-2.47Z"/>
    <path class="cls-1" d="M249.99,274.8c-1.54.18-1.47,2.43.07,2.25,1.54-.18,1.48-2.43-.07-2.25Z"/>
    <path class="cls-1" d="M245.32,283.5c-1.76.21-1.69,2.78.08,2.57,1.76-.21,1.69-2.78-.08-2.57Z"/>
    <path class="cls-1" d="M264.19,277.16c-1.69.2-1.62,2.66.08,2.46,1.68-.2,1.61-2.65-.08-2.46Z"/>
    <path class="cls-1" d="M278.37,269.45c.13-.05.25-.08.38-.14.91-.42.54-1.76-.36-1.93-.11-.02-.23-.03-.35-.04-.86-.44-2.29.11-2.25,1.22.04,1.34,1.82,1.58,2.58.88Z"/>
    <path class="cls-1" d="M315.61,266.44c-1.16.14-1.11,1.82.05,1.68,1.15-.14,1.11-1.82-.05-1.68Z"/>
    <path class="cls-1" d="M334.47,259.73c-1.58.19-1.51,2.49.07,2.3,1.57-.19,1.51-2.49-.07-2.3Z"/>
    <path class="cls-1" d="M331.6,251.56c-1.86.22-1.78,2.93.08,2.7,1.85-.22,1.78-2.93-.08-2.7Z"/>
    <path class="cls-1" d="M320.63,254.92c-.16,0-.31-.03-.48-.03-.13,0-.63-.06-.37.02-.76-.23-1.53.46-1.5,1.14.03.86,1.1,1.38,1.87.91-.27.16.15,0,.25-.01l.3-.08c.91-.32,1.1-1.84-.07-1.96Z"/>
    <path class="cls-1" d="M361.28,245.72c-1.6.19-1.54,2.53.07,2.34,1.6-.19,1.53-2.53-.07-2.34Z"/>
    <path class="cls-1" d="M371.32,240.22c-1.46.17-1.4,2.3.07,2.12,1.46-.17,1.4-2.3-.07-2.12Z"/>
    <path class="cls-1" d="M374.08,227.86c-.47.45-.33,1.08-.28,1.64.06.66.62,1.2,1.35,1.18.94-.03,1.36-.82,1.22-1.58-.11-.6-.15-1.12-.78-1.49-.48-.27-1.13-.11-1.51.25Z"/>
    <path class="cls-1" d="M390.42,208.99c-.7.02-1.42.62-1.34,1.32.03.24.06.48.08.73.09.69.63,1.27,1.43,1.24.69-.02,1.45-.63,1.34-1.33-.04-.24-.07-.49-.11-.73-.1-.69-.61-1.26-1.41-1.23Z"/>
    <path class="cls-1" d="M392.73,192.9c-1.65.2-1.59,2.62.08,2.42,1.65-.2,1.59-2.61-.08-2.42Z"/>
    <path class="cls-1" d="M79.62,124.92c-1.23.15-1.18,1.94.06,1.8,1.23-.15,1.18-1.94-.06-1.8Z"/>
    <path class="cls-1" d="M95.08,118.27c-.03-.27-.06-.55-.09-.82-.07-.62-.55-1.11-1.26-1.09-.6.02-1.28.56-1.18,1.17.04.27.08.54.13.82.1.6.52,1.1,1.23,1.08.62-.02,1.23-.55,1.16-1.15Z"/>
    <path class="cls-1" d="M99.7,107.61c-.22,0-.43.02-.65.03-.53-.11-1.1.11-1.25.71-.23.92,1.03,1.53,1.7,1.04.16-.03.33-.06.5-.1,1.04-.21.72-1.72-.3-1.68Z"/>
    <path class="cls-1" d="M120.33,100.77c-1.5.18-1.44,2.36.07,2.18,1.5-.18,1.44-2.36-.07-2.18Z"/>
    <path class="cls-1" d="M112.74,116.71c-.06-.27-.12-.53-.23-.79-.35-.78-1.8-.96-1.97.07-.06.36-.05.7-.04,1.07.05,1.52,2.61,1.19,2.24-.35Z"/>
    <path class="cls-1" d="M108.97,109.94c-1.03.12-.99,1.63.05,1.51,1.03-.12.99-1.63-.05-1.51Z"/>
    <path class="cls-1" d="M102.7,116.4c-1.44.17-1.38,2.28.07,2.11,1.44-.17,1.38-2.28-.07-2.11Z"/>
    <path class="cls-1" d="M146.9,91.46c-1.95.23-1.87,3.07.09,2.84,1.94-.23,1.87-3.08-.09-2.84Z"/>
    <path class="cls-1" d="M144.31,82.68l.25-.02s.01,0,.01,0c.67-.07,1.49-.12,1.79-.73.16-.31.22-.77-.05-1.06-.53-.59-1.12-.52-1.81-.45,0,0-.02,0-.02,0l-.25.03c-.4.04-.74.24-.95.52-.14.17-.23.38-.22.64,0,.26.14.52.33.72.23.24.55.41.9.36Z"/>
    <path class="cls-1" d="M167.33,72.99c.01.24.05.49.07.73.06.59.54,1.08,1.21,1.06.58-.02,1.24-.54,1.15-1.13-.06-.34-.1-.68-.18-1.01-.26-1.2-2.32-.83-2.25.35Z"/>
    <path class="cls-1" d="M192.05,60.81c-1.28.15-1.23,2.03.06,1.88,1.28-.15,1.23-2.03-.06-1.88Z"/>
    <path class="cls-1" d="M218.97,54.31c-1.25.15-1.2,1.97.05,1.82,1.25-.15,1.19-1.96-.05-1.82Z"/>
    <path class="cls-1" d="M155.42,274.99c-1.89.23-1.81,2.98.09,2.76,1.89-.23,1.81-2.98-.09-2.76Z"/>
    <path class="cls-1" d="M180.31,275.65c-3.76.45-3.6,5.93.17,5.48,3.76-.45,3.6-5.93-.17-5.48Z"/>
    <path class="cls-1" d="M185.12,282.99c-.89.11-.85,1.41.04,1.31.89-.11.86-1.42-.04-1.31Z"/>
    <path class="cls-1" d="M132.64,276.32l.07.29c.2.87,1.66.6,1.63-.25v-.3c-.06-1.14-1.96-.89-1.7.27Z"/>
    <path class="cls-1" d="M294.17,277.28c-1.59.19-2.91,1.23-2.85,2.82.04,1.38,1.43,2.82,3.02,2.63,1.59-.19,2.91-1.22,2.85-2.82-.04-1.38-1.43-2.82-3.02-2.63Z"/>
    <path class="cls-1" d="M280.15,279.14c-1.77.21-1.7,2.79.08,2.58,1.77-.21,1.69-2.79-.08-2.58Z"/>
    <path class="cls-1" d="M328.15,266.98c-.99.18-.8,1.43,0,1.7.24.91,1.85.62,1.79-.32-.07-1.02-.64-1.58-1.79-1.38Z"/>
    <path class="cls-1" d="M326.04,261.17c-.14.02-.14.22,0,.21.14-.02.13-.22,0-.21Z"/>
    <path class="cls-1" d="M352.91,245.52c-.98.12-.93,1.53.05,1.42.97-.12.93-1.54-.05-1.42Z"/>
    <path class="cls-1" d="M400.2,221.01c-.25.02-.5.05-.75.07-.02,0-.03,0-.05,0l-.13.02c-.14.02-.27.06-.39.11-.03.01-.05.03-.07.04-.3.16-.51.41-.5.78,0,.12.04.24.1.36.12.32.42.57.91.52h.14s.03-.02.05-.02c.25-.03.5-.07.75-.11.13-.02.26-.06.38-.11.03-.01.05-.03.07-.04.3-.15.5-.4.49-.76,0-.12-.04-.23-.1-.34-.12-.32-.41-.56-.89-.51Z"/>
    <path class="cls-1" d="M386.43,220.02c-.13,0-.27-.01-.4-.02-.39-.17-.89.1-.87.53.02.53.66.69,1.04.4.12-.04.25-.08.37-.12.49-.15.34-.77-.14-.79Z"/>
    <path class="cls-1" d="M405.31,205.58c-.17.02-.17.28,0,.26.18-.02.17-.28,0-.26Z"/>
    <path class="cls-1" d="M401.74,193.46c-1.13.14-1.09,1.79.05,1.65,1.13-.14,1.09-1.79-.05-1.65Z"/>
    <path class="cls-1" d="M397.56,203.66c1.05-.12,1.01-1.66-.05-1.54-1.06.13-1.01,1.66.05,1.54Z"/>
    <path class="cls-1" d="M406.32,133.3c-1.11,1.2-.24,3.14,1.52,3.08.71-.02,1.37-.41,1.7-.99.38-.66.31-1.75-.41-2.22-.93-.61-1.98-.77-2.81.12Z"/>
    <path class="cls-1" d="M406.05,170.55c-1.08.13-1.03,1.69.05,1.57,1.07-.13,1.03-1.69-.05-1.57Z"/>
    <path class="cls-1" d="M408.88,156.79c-.68.08-.65,1.07.03.99.68-.08.65-1.07-.03-.99Z"/>
    <path class="cls-1" d="M404.82,147.83c-.43.13-.68.46-.98.76-.77.78.64,1.76,1.29.85.25-.35.48-.63.52-1.06.04-.38-.46-.66-.83-.55Z"/>
    <path class="cls-1" d="M130.76,90.25c-.04-1.19-1.24-2.43-2.61-2.27-1.37.16-2.5,1.06-2.46,2.43.04,1.19,1.24,2.43,2.61,2.27,1.37-.16,2.5-1.06,2.46-2.43Z"/>
    <path class="cls-1" d="M94.03,105.53c-.98.12-.93,1.54.04,1.42.97-.12.93-1.54-.04-1.42Z"/>
    <path class="cls-1" d="M90.63,115.27c-.99.12-.95,1.57.05,1.45.99-.12.95-1.57-.05-1.45Z"/>
    <path class="cls-1" d="M73.92,136.19c-.68.08-.65,1.06.03.98.68-.08.65-1.07-.03-.98Z"/>
    <path class="cls-1" d="M66.22,138.96c-.69.08-.67,1.1.03,1.01.7-.08.67-1.1-.03-1.01Z"/>
    <path class="cls-1" d="M332.43,52.88c-.03-.51.39-.94.94-.97.55-.03,1.02.36,1.05.87.03.51-.39.94-.94.97-.55.03-1.01-.36-1.04-.87Z"/>
    <path class="cls-1" d="M317.75,54.16c-.05-.89.69-1.65,1.64-1.69.96-.05,1.77.63,1.82,1.51.05.89-.68,1.65-1.64,1.69-.95.05-1.77-.63-1.82-1.51Z"/>
    <path class="cls-1" d="M274.29,46.49c-.03-.55.42-1.01,1.01-1.04.59-.03,1.09.39,1.12.93.03.55-.42,1.01-1.01,1.04-.58.03-1.09-.39-1.12-.93Z"/>
    <path class="cls-1" d="M319.3,43.19c-.02-.45.35-.84.84-.87.49-.02.9.32.93.77.02.45-.35.84-.84.87-.48.02-.9-.32-.93-.78Z"/>
    <path class="cls-1" d="M389.25,93.51c-.51.28-1.17.13-1.48-.35-.3-.47-.13-1.08.38-1.37.51-.28,1.17-.13,1.47.35.3.47.13,1.09-.37,1.36Z"/>
    <path class="cls-1" d="M405.2,114.98c-.42.23-.96.1-1.21-.29-.25-.39-.11-.89.31-1.12.42-.23.96-.1,1.21.28.25.4.11.89-.31,1.13Z"/>
    <path class="cls-1" d="M349.77,55.79c-.42.23-.97.1-1.22-.29-.24-.39-.11-.89.31-1.12.42-.23.97-.1,1.21.29.25.39.11.89-.31,1.13Z"/>
    <path class="cls-1" d="M288.6,48.33c.07.47-.28.9-.79.97-.51.07-.97-.26-1.05-.73-.07-.47.28-.9.79-.97.51-.07.97.26,1.05.72Z"/>
    <path class="cls-1" d="M376.12,65.9c-.27.41-.84.53-1.27.28-.43-.25-.57-.77-.3-1.18.27-.4.84-.53,1.27-.28.43.25.57.78.3,1.18Z"/>
    <path class="cls-1" d="M309.67,56.55c.06.45-.27.86-.75.93-.49.06-.93-.25-1-.7-.07-.45.27-.87.75-.93.48-.06.93.24,1,.7Z"/>
    <path class="cls-1" d="M314.24,50.68c.07.45-.27.86-.75.93-.48.07-.93-.24-1-.69-.07-.44.27-.86.76-.93.48-.07.93.24,1,.69Z"/>
    <path class="cls-1" d="M328.43,51.62c.07.45-.27.86-.75.93-.48.06-.93-.25-1-.7-.07-.45.27-.86.76-.93.48-.06.93.25.99.7Z"/>
    <path class="cls-1" d="M404.99,91.73c.07.45-.27.87-.75.93-.49.07-.93-.24-1-.7-.07-.45.27-.87.75-.93.48-.07.93.24,1,.69Z"/>
    <path class="cls-1" d="M288.64,51.64c.19.19.16.48-.04.65-.2.17-.52.15-.7-.04-.19-.19-.16-.48.04-.65.21-.17.52-.15.7.04Z"/>
    <path class="cls-1" d="M400.88,100.87c-.2-.23-.15-.58.11-.76.26-.18.63-.14.83.1.2.23.15.58-.11.76-.26.19-.63.14-.83-.1Z"/>
    <path class="cls-1" d="M309.79,49.72c-.19.24-.56.31-.82.13-.26-.17-.33-.51-.15-.76.19-.25.56-.31.82-.13.27.17.33.51.14.76Z"/>
    <path class="cls-1" d="M304.12,47.32c.09-.15.3-.2.46-.11.16.09.21.27.12.42-.09.15-.3.2-.45.11-.16-.09-.21-.27-.12-.42Z"/>
    <path class="cls-1" d="M323.35,62.91c.31-.09.64.07.74.36.1.29-.07.6-.38.69-.31.09-.64-.07-.74-.35-.1-.29.07-.6.39-.69Z"/>
    <path class="cls-1" d="M354.71,63.55c.24-.21.61-.2.84.02.22.22.21.57-.03.78-.23.21-.61.19-.83-.03-.22-.22-.21-.57.03-.77Z"/>
    <path class="cls-1" d="M359.72,66.99c-.12.13-.33.14-.47.03-.13-.12-.15-.31-.02-.44.12-.13.33-.14.47-.03.13.12.15.31.02.44Z"/>
    <path class="cls-1" d="M368.02,61.93c.25.2.28.54.06.77-.21.23-.58.26-.83.06-.24-.2-.27-.54-.06-.77.21-.23.58-.26.83-.06Z"/>
    <path class="cls-1" d="M364.87,66.94c-.15-.1-.18-.29-.08-.43.11-.14.32-.17.47-.07.15.1.18.29.08.43-.11.14-.31.17-.47.07Z"/>
    <path class="cls-1" d="M376.42,80.41c.13.27,0,.6-.3.72-.29.13-.64.01-.78-.27-.14-.27,0-.6.3-.72.29-.13.65,0,.78.27Z"/>
    <path class="cls-1" d="M371.29,83.74c-.09-.15-.04-.34.13-.42.16-.08.36-.03.45.12.09.14.04.33-.12.42-.17.08-.36.03-.46-.12Z"/>
    <path class="cls-1" d="M299.29,55.4c-.15.27-.51.36-.8.23-.29-.14-.39-.47-.24-.74.15-.27.51-.37.8-.23.29.14.4.47.24.74Z"/>
    <path class="cls-1" d="M293.34,53.68c.07-.16.27-.23.44-.16.17.07.25.25.17.4-.07.16-.27.23-.44.17-.17-.07-.24-.24-.18-.4Z"/>
    <path class="cls-1" d="M411.85,120.41c.08.51-.31.98-.85,1.05-.55.07-1.06-.28-1.13-.79-.08-.51.31-.98.85-1.05.55-.07,1.05.28,1.13.79Z"/>
    <path class="cls-1" d="M343.84,61.37c.07.44-.27.86-.75.93-.49.07-.93-.25-1-.7-.07-.45.27-.86.75-.93.49-.06.93.25,1,.7Z"/>
    <path class="cls-1" d="M333.2,59.95c.07.45-.27.86-.76.93-.48.06-.93-.25-1-.7-.07-.45.27-.87.75-.93.48-.07.93.25,1,.69Z"/>
    <path class="cls-1" d="M374.07,72.69c-.76.54-1.85.42-2.44-.28-.58-.7-.45-1.71.3-2.26.76-.55,1.85-.42,2.44.27.59.7.45,1.71-.3,2.26Z"/>
    <path class="cls-1" d="M398.56,110.13c-.03-.53.41-.98.98-1.01.57-.03,1.05.37,1.09.9.03.53-.41.98-.98,1.01-.57.03-1.06-.37-1.09-.9Z"/>
    <path class="cls-1" d="M367.76,57.64c.3-.13.65,0,.78.27.13.28,0,.6-.3.73-.3.12-.65,0-.78-.27-.14-.28,0-.6.29-.73Z"/>
    <path class="cls-1" d="M371.32,62.39c-.16.08-.36.03-.45-.12-.09-.15-.03-.34.13-.42.16-.08.36-.04.45.11.08.15.04.33-.13.42Z"/>
    <path class="cls-1" d="M355.52,70.94c-.39-.81,0-1.76.87-2.13.87-.36,1.9,0,2.29.81.39.81,0,1.76-.88,2.13-.87.37-1.89,0-2.29-.8Z"/>
    <path class="cls-1" d="M384.32,80.14c.21.04.34.22.31.41-.04.19-.23.31-.44.28-.21-.03-.34-.21-.3-.4.03-.19.23-.32.43-.29Z"/>
    <path class="cls-1" d="M384.35,83.86c-.12-.01-.2-.11-.19-.22.01-.11.11-.19.24-.18.11.01.2.11.19.22,0,.11-.11.19-.23.18Z"/>
    <path class="cls-1" d="M378.86,76.45c.47-.37,1.17-.31,1.57.12.39.43.33,1.08-.14,1.45-.47.37-1.17.31-1.56-.12-.39-.44-.33-1.09.14-1.45Z"/>
    <path class="cls-1" d="M289.39,44.32c-.16.12-.4.1-.53-.06-.13-.15-.1-.37.07-.49.16-.12.4-.1.52.05.13.15.1.37-.06.49Z"/>
    <path class="cls-1" d="M296.02,42.98c-.02.57-.53,1.02-1.15,1.01-.61-.02-1.09-.49-1.08-1.06.02-.57.53-1.02,1.15-1,.61.02,1.09.49,1.08,1.06Z"/>
    <path class="cls-1" d="M336.67,68.05c-.21,0-.38-.17-.37-.36,0-.19.18-.34.39-.34.21,0,.37.16.37.36,0,.19-.18.35-.38.34Z"/>
    <path class="cls-1" d="M336.04,64.39c.12,0,.22.07.23.18,0,.11-.08.2-.2.21-.11,0-.22-.08-.22-.19,0-.1.08-.2.2-.21Z"/>
    <path class="cls-1" d="M353.8,60.08c-.61.07-1.16-.33-1.24-.89-.07-.56.37-1.08.97-1.15.61-.07,1.16.33,1.24.89.07.57-.36,1.08-.97,1.15Z"/>
    <path class="cls-1" d="M385.1,86.17c-.3.21-.72.15-.94-.13-.22-.28-.16-.67.15-.88.3-.21.72-.15.94.13.22.28.15.68-.15.88Z"/>
    <path class="cls-1" d="M379.88,81.63c.16-.13.4-.12.54.03.14.14.12.37-.04.5-.15.13-.4.12-.54-.03-.14-.15-.12-.37.03-.5Z"/>
    <path class="cls-1" d="M369.08,71.41c.19.54-.12,1.12-.7,1.3-.58.18-1.21-.11-1.4-.65-.19-.54.12-1.12.7-1.31.59-.18,1.21.11,1.41.65Z"/>
    <path class="cls-1" d="M353.76,55.55c.07-.18.28-.29.47-.22.2.06.31.25.24.44-.07.18-.27.28-.47.22-.2-.06-.31-.26-.24-.44Z"/>
    <path class="cls-1" d="M342.7,65.52c.06.09.02.22-.08.27-.1.05-.23.02-.29-.08-.05-.1-.02-.21.08-.27.11-.05.24-.02.29.08Z"/>
    <path class="cls-1" d="M349.02,60.06c-.32-.48-.16-1.12.36-1.42.52-.3,1.21-.15,1.53.33.32.48.16,1.12-.36,1.42-.52.3-1.21.16-1.53-.32Z"/>
    <path class="cls-1" d="M329.9,57.74c-.08-.18,0-.38.19-.46.19-.08.42,0,.5.18.08.18,0,.38-.19.46-.19.08-.41,0-.5-.18Z"/>
    <path class="cls-1" d="M333.22,55.67c.06.09.02.22-.09.27-.1.05-.23.02-.29-.08-.05-.09-.02-.21.08-.27.1-.05.23-.01.29.08Z"/>
    <path class="cls-1" d="M329.59,64.02c-.59-.16-.92-.73-.75-1.28.17-.55.78-.86,1.37-.7.59.16.93.73.75,1.28-.18.54-.79.86-1.38.7Z"/>
    <path class="cls-1" d="M381.69,90.57c.16-.13.4-.12.55.03.13.14.12.37-.04.5-.16.13-.4.12-.54-.03-.14-.15-.13-.37.04-.5Z"/>
    <path class="cls-1" d="M372.03,75.68c.2.54-.11,1.12-.7,1.3-.58.18-1.21-.11-1.41-.65-.19-.54.12-1.12.7-1.31.58-.18,1.21.11,1.4.65Z"/>
    <path class="cls-1" d="M358.87,60.45c-.04-.64.49-1.18,1.18-1.22.69-.04,1.27.45,1.31,1.08.04.64-.49,1.18-1.18,1.22-.69.04-1.27-.45-1.31-1.08Z"/>
    <path class="cls-1" d="M348.85,66.2c-.02-.42.32-.77.77-.79.44-.02.82.29.85.71.02.41-.32.77-.77.79-.45.02-.83-.29-.85-.71Z"/>
    <path class="cls-1" d="M409.83,108c-.06-.89.68-1.64,1.64-1.69.96-.05,1.77.63,1.82,1.51.05.89-.68,1.65-1.64,1.7-.96.05-1.77-.63-1.82-1.52Z"/>
    <path class="cls-1" d="M392.46,100.12c-.03-.6.47-1.12,1.12-1.16.65-.03,1.21.43,1.24,1.03.04.61-.47,1.13-1.12,1.16-.65.03-1.21-.43-1.25-1.04Z"/>
    <path class="cls-1" d="M377.03,94.07c.26-.43-.42-.86-.68-.43-.26.43.41.86.68.43Z"/>
    <path class="cls-1" d="M378.73,88.37c.27-.44-.43-.89-.69-.45-.27.44.43.89.69.45Z"/>
    <path class="cls-1" d="M153.88,86.42h.36c.37.17.82-.1.81-.48-.02-.48-.61-.62-.96-.33l-.35.05c-.47.08-.33.79.14.76Z"/>
    <path class="cls-1" d="M154.55,81.36c.54-.06.52-.85-.02-.78-.54.07-.52.85.02.78Z"/>
    <path class="cls-1" d="M159.85,74.18c.1.21.17.44.31.62.11.15.43.19.51-.02.08-.2.1-.42.14-.64.15-.84-1.26-.6-.96.03Z"/>
    <path class="cls-1" d="M171.24,67.18c.04.21.04.52.2.69l.34-.06c.11-.19.02-.51,0-.72-.02-.38-.63-.29-.55.09Z"/>
    <path class="cls-1" d="M184.64,69.3c-.83.1-.8,1.32.04,1.22.83-.1.8-1.32-.04-1.22Z"/>
    <path class="cls-1" d="M183.11,62.01c-1.31.04-2.25,1.42-1.83,2.49-.02.49.33.96.76,1.2.99.54,1.86-.01,2.6-.6,1.35-1.1.06-3.13-1.52-3.08Z"/>
    <path class="cls-1" d="M135.31,102.5c-.96.11-.91,1.51.04,1.39.95-.11.92-1.5-.04-1.39Z"/>
    <path class="cls-1" d="M133.91,97.78c.22-.27.44-.54.66-.82.38-.44.21-.96-.14-1.24-.34-.29-.86-.36-1.22.08-.23.26-.46.53-.69.79-.01.01-.02.01-.03.03l-.12.15c-.39.45-.21.98.15,1.27.35.3.88.37,1.25-.09l.12-.14s.01-.02.02-.04Z"/>
    <path class="cls-1" d="M125.14,101.93c-.84.1-.8,1.31.04,1.22.83-.1.8-1.32-.04-1.22Z"/>
    <path class="cls-1" d="M104.3,97c-.74.09-.71,1.16.04,1.07.73-.09.7-1.16-.04-1.07Z"/>
    <path class="cls-1" d="M223.38,62.84c.21,0-.14-.14-.22-.19l-.23-.15c-.43-.27-.9.37-.52.68l.21.17c.09.07.28.33.23.16.12.39.68.49.96.2.35-.35.05-.87-.43-.88Z"/>
    <path class="cls-1" d="M206.85,60.23c.62-.07.59-.97-.03-.9-.62.07-.59.97.03.9Z"/>
    <path class="cls-1" d="M241.05,54.53c-.24.02-.46.09-.7.16-.6.17-.41.94.18.96.18,0,.38.03.56,0,.26-.04.52-.16.57-.44.03-.17,0-.28-.07-.43-.08-.16-.35-.27-.53-.26Z"/>
    <path class="cls-1" d="M256.47,43.63c-.38.05-.36.6.02.55.37-.04.36-.6-.02-.55Z"/>
    <path class="cls-1" d="M283.38,43.87c-.18-.13-.46-.16-.62.03l-.27.31c-.49.56-.13,1.46.71,1.43.75-.02,1.27-1.02.6-1.49-.14-.09-.27-.19-.41-.28Z"/>
    <path class="cls-1" d="M301.01,289.62c-1.09.13-1.05,1.72.05,1.59,1.09-.13,1.05-1.72-.05-1.59Z"/>
    <path class="cls-1" d="M315.25,280.68c-.79.07-.72,1.24.04,1.13.42-.06.8-.07,1.02-.46.1-.17.05-.33-.08-.47-.27-.29-.6-.23-.97-.2Z"/>
    <path class="cls-1" d="M308.73,277.52c-.2.02-.19.31,0,.29.2-.02.19-.31,0-.29Z"/>
    <path class="cls-1" d="M347.95,258.94c-.48.06-.46.75.02.69.48-.06.46-.75-.02-.69Z"/>
    <path class="cls-1" d="M344.06,254.82c-.78.09-.74,1.22.03,1.13.77-.09.74-1.22-.03-1.13Z"/>
    <path class="cls-1" d="M357.3,253.68c-.06.24-.02.45,0,.69.09.9,1.65.83,1.5-.05-.05-.29-.08-.57-.23-.85-.29-.51-1.14-.31-1.27.21Z"/>
    <path class="cls-1" d="M400.64,230.43c-1.05.13-1.01,1.66.05,1.53,1.05-.12,1.01-1.66-.05-1.53Z"/>
    <path class="cls-1" d="M391.23,230.59c-.65.08-.63,1.03.03.96.66-.08.63-1.04-.03-.96Z"/>
    <path class="cls-1" d="M409.1,213.33c-.89.1-.86,1.41.04,1.3.9-.1.86-1.41-.04-1.3Z"/>
    <path class="cls-1" d="M417.79,202.85c-1.03.12-.99,1.63.05,1.51,1.03-.12.99-1.63-.05-1.51Z"/>
    <path class="cls-1" d="M410.94,197.17c-.54.07-.52.85.02.78.53-.06.51-.84-.02-.78Z"/>
    <path class="cls-1" d="M419.06,177.62c-.38.05-.36.6.02.55.37-.04.36-.6-.02-.55Z"/>
    <path class="cls-1" d="M414.44,185.65c-.23-.23-.65-.12-.79.13-.15.25-.08.55-.07.82.04.79,1.33.61,1.16-.18-.06-.29-.09-.55-.3-.77Z"/>
    <path class="cls-1" d="M416.2,174.13l-.4.05c-.44.1-.3.71.13.71l.41-.02c.34.17.77-.08.76-.44-.01-.46-.57-.58-.9-.31Z"/>
    <path class="cls-1" d="M410.85,176.37c-.85.1-.82,1.35.04,1.25.86-.1.82-1.35-.04-1.25Z"/>
    <path class="cls-1" d="M146.13,280.45l-.21-.12c-.17,0-.21-.04-.13-.11-.62-.62-1.76-.04-1.73.74.02.69.67.98,1.25.86.3.43,1.2.21,1.17-.38-.01-.27-.02-.53-.16-.77l-.19-.22Z"/>
    <path class="cls-1" d="M153.1,269.94c-.93.11-.9,1.47.05,1.36.93-.11.89-1.47-.05-1.36Z"/>
    <path class="cls-1" d="M146.33,249.48c-1.03.12-.99,1.63.05,1.51,1.03-.12.99-1.63-.05-1.51Z"/>
    <path class="cls-1" d="M131.62,235.33c-.62.07-.59.97.03.9.61-.07.59-.97-.03-.9Z"/>
    <path class="cls-1" d="M125.16,242.29c-.67.08-.65,1.07.03.99.68-.08.65-1.06-.03-.99Z"/>
  </g>
</svg>