<?xml version="1.0" encoding="UTF-8"?>
<svg xmlns="http://www.w3.org/2000/svg" xmlns:xlink="http://www.w3.org/1999/xlink" viewBox="0 0 54 105.93">
  <defs>
    <style>
      .cls-1 {
        stroke: #b72025;
      }

      .cls-1, .cls-2 {
        stroke-miterlimit: 10;
        stroke-width: 10px;
      }

      .cls-1, .cls-2, .cls-3 {
        fill: none;
      }

      .cls-4 {
        fill: #bce5f1;
      }

      .cls-5 {
        fill: #8b181b;
      }

      .cls-6 {
        fill: #67bfeb;
      }

      .cls-7 {
        fill: #ea5537;
      }

      .cls-8 {
        fill: #f16064;
      }

      .cls-9 {
        fill: #ac1f23;
      }

      .cls-10 {
        fill: #fff;
      }

      .cls-11 {
        fill: #cc2027;
      }

      .cls-12 {
        fill: #e1f3f8;
      }

      .cls-13 {
        fill: #296dae;
      }

      .cls-2 {
        stroke: #df1f26;
      }

      .cls-14 {
        fill: #bfd7df;
      }

      .cls-15 {
        clip-path: url(#clippath-1);
      }

      .cls-16 {
        fill: #e49a25;
      }

      .cls-17 {
        isolation: isolate;
      }

      .cls-18 {
        fill: #3c83c5;
      }

      .cls-19 {
        fill: #df4f26;
      }

      .cls-20 {
        fill: #e6c41f;
      }

      .cls-21 {
        fill: #f04d50;
      }

      .cls-22 {
        fill: #ee3e41;
      }

      .cls-23 {
        mix-blend-mode: soft-light;
        opacity: .11;
      }

      .cls-24 {
        fill: #d78228;
      }

      .cls-25 {
        clip-path: url(#clippath);
      }
    </style>
    <clipPath id="clippath">
      <rect class="cls-3" x="720.09" y="-332.46" width="360" height="506.64"/>
    </clipPath>
    <clipPath id="clippath-1">
      <rect class="cls-3" x="309.75" y="-479.09" width="1295.74" height="729.17"/>
    </clipPath>
  </defs>
  <g class="cls-17">
    <g id="Layer_1" data-name="Layer 1">
      <g>
        <g class="cls-25">
          <g class="cls-15">
            <g class="cls-23">
              <path class="cls-10" d="M1717.12-516.92l-183.71-236.13c-141.33,144.04-244.51,261.99-367.58,218.43-52.77-18.68-80.03-51.6-175.35,60.04-212.19,248.52-213.44,74.95-278.94,67.91-46.65-5.01-94.99,71.01-125.71,100.98-30.23,29.49-78.38,50.15-113.94,27.37-10.3-6.6-18.4-16.24-28.77-22.74-28.02-17.55-65.92-7.83-92.65,11.63-46.15,33.59-89.25,117.51-158.58,106.36-55.77-8.96-54.8-41.6-154.39,173.36l21.39,61.15,31.56,79.88c19.55,43.48,82.03,60.25,120.72,32.41,43.28-31.15,56.07-103.7,108.8-111.6,29.13-4.36,56.15,14.79,84.92,21.1,105.69,23.18,173.89-110.16,204.33-155.41,23.54-34.99,38.77-34.11,72.51-19.03,207.38,92.68,264.77-113.45,323.73-133.95,19.11-6.64,39.67,2.43,58.34,10.2,229.39,95.41,239.1-112.07,358.9-142.29,78.54-19.81,187.73,37.77,269.68,3.5,19.58-8.19,82.36-39.65,82.36-39.65l-57.63-113.53-162.32-174.98,162.32,174.98Z"/>
            </g>
          </g>
        </g>
        <g>
          <polygon class="cls-19" points="23.68 70.95 23.68 70.95 0 85.69 6.7 61.61 21.72 49.85 23.2 65.7 23.68 70.95"/>
          <polygon class="cls-7" points="23.68 70.95 23.68 70.95 0 85.69 1.56 80.09 23.2 65.7 23.42 65.55 23.68 70.95"/>
          <polygon class="cls-19" points="32.23 73.07 32.24 73.07 45.19 96.89 51.89 72.81 44.93 55.6 35.39 68.72 32.23 73.07"/>
          <polygon class="cls-7" points="32.23 73.07 32.24 73.07 45.19 96.89 46.75 91.29 35.39 68.72 35.27 68.48 32.23 73.07"/>
          <path class="cls-16" d="M33.68,80.78l-7.59-2.06-7.68-1.72c-7.03,10.83-2.51,9-4.36,15.68,2.54.28,2.44-2.1,3.89-2.89-3.86,10.92.69,10.21.59,16.14,3-5.22,6.59-2.49,8.91-13.79.86,1.36-.47,3.39,1.88,4.32,1.86-6.68,4.85-2.99,4.36-15.68Z"/>
          <path class="cls-4" d="M52.23,43.18c-3.48,12.51-14.39,29.45-21.27,34.47-1.53,1.12-2.86,1.64-3.87,1.39-.33-.08-.65-.25-.95-.5-.39.08-.76.08-1.09,0-1.39-.34-2.55-2.26-3.44-5.17-2.67-8.68-2.97-26.26.22-37.72,2.38-8.56,8.94-19.01,15.01-26.37.99-1.21,1.97-2.33,2.92-3.35C43.37,2.03,46.49-.33,47.98.04c1.62.4,3.23,4.48,4.37,10.23.19.95.37,1.95.53,2.98,1.45,9.23,1.72,21.37-.66,29.93Z"/>
          <path class="cls-18" d="M35.67,44.3c-4.27-1.06-6.77-5.39-5.58-9.67,1.19-4.28,5.62-6.9,9.89-5.84,4.27,1.06,6.77,5.39,5.58,9.67-1.19,4.28-5.62,6.9-9.89,5.84Z"/>
          <path class="cls-13" d="M43.85,31.08c.45,1.41.51,2.97.07,4.53-1.19,4.28-5.62,6.9-9.89,5.84-1.55-.39-2.87-1.2-3.86-2.3.79,2.47,2.79,4.46,5.5,5.14,4.27,1.06,8.7-1.55,9.89-5.84.76-2.72.02-5.47-1.71-7.38Z"/>
          <path class="cls-2" d="M35.67,44.3c-4.27-1.06-6.77-5.39-5.58-9.67,1.19-4.28,5.62-6.9,9.89-5.84,4.27,1.06,6.77,5.39,5.58,9.67-1.19,4.28-5.62,6.9-9.89,5.84Z"/>
          <path class="cls-6" d="M30.96,77.64c18.88-27.21,20.95-44.55,16.97-65.42l4.43-1.96c.19.95.37,1.95.53,2.98,1.45,9.23,1.72,21.37-.66,29.93-3.48,12.51-14.39,29.45-21.27,34.47Z"/>
          <path class="cls-12" d="M42.51,10.68c-16.15,12.65-25.41,44.4-19.33,65.21l-1.57-2.53c-2.67-8.68-2.97-26.26.22-37.72,2.38-8.56,8.94-19.01,15.01-26.37.99-1.21,1.97-2.33,2.92-3.35,2.77.86,2.76,4.76,2.76,4.76Z"/>
          <path class="cls-22" d="M44.3,13.28c-2.48-.61-4.82-1.89-7.46-4.01C41.62,3.46,46.1-.43,47.98.04c1.88.47,3.76,5.93,4.9,13.21-3.4.62-6.11.65-8.59.03Z"/>
          <path class="cls-21" d="M44.78,11.44c-1.53-.38-3.02-1.01-4.59-1.97-.66-.4-.79-1.31-.25-1.9,3.15-3.49,5.38-5.32,6.72-6.18.62-.4,1.44-.2,1.77.44.72,1.37,1.71,4.01,2.64,8.5.16.76-.43,1.5-1.21,1.54-1.87.1-3.5-.04-5.03-.42h-.05Z"/>
          <path class="cls-1" d="M52.88,13.25c-3.4.62-6.11.65-8.59.03-2.48-.61-4.82-1.89-7.46-4.01"/>
          <g>
            <path class="cls-24" d="M18.18,88.92c-1.44.74-1.32,3.03-3.85,2.74,1.14-4.1-.3-4.87.34-7.62-1.1,3.47.66,4.03-.62,8.64,2.49.28,2.44-2.02,3.82-2.85.1-.29.2-.59.31-.91Z"/>
            <path class="cls-24" d="M29.6,95.44c-2.36-.92-1.06-2.86-1.93-4.17-.07.32-.13.63-.2.93.77,1.36-.47,3.34,1.84,4.25,1.28-4.61,3.11-4.28,3.95-7.81-.87,2.69-2.53,2.69-3.67,6.79Z"/>
            <path class="cls-24" d="M18.94,104.42c.03-5.11-3.6-5.12-1.67-12.6-2.61,8.82,1.35,8.57,1.25,14.11,2.8-4.87,6.11-2.82,8.43-11.71-2.21,7.41-5.38,5.74-8.01,10.2Z"/>
          </g>
          <path class="cls-20" d="M30.68,80.9l-4.83-1.31-4.89-1.1c-4.48,6.89-1.59,5.73-2.78,9.98,1.61.18,1.55-1.34,2.48-1.84-2.46,6.95.44,6.5.37,10.28,1.91-3.32,4.2-1.58,5.67-8.78.54.86-.3,2.16,1.2,2.75,1.18-4.25,3.09-1.9,2.78-9.98Z"/>
          <path class="cls-9" d="M33.68,80.78c-2.73.95-5.6.93-8.18.05-1.27-.2-2.49-.6-3.63-1.18-1.29-.66-2.47-1.55-3.46-2.65,1.14-1.02,2.27-2.04,3.4-3.05.76.85,1.69,1.5,2.71,1.92h0c.7.3,1.44.49,2.2.58,1.73.69,3.71.75,5.58.1.46,1.41.92,2.83,1.38,4.24Z"/>
          <path class="cls-11" d="M24.52,75.86h0s-2.65,3.78-2.65,3.78c-1.29-.66-2.47-1.55-3.46-2.65,1.14-1.02,2.27-2.04,3.4-3.05.76.85,1.69,1.5,2.71,1.92Z"/>
          <path class="cls-5" d="M28.94,76.96h0s.34,4.52.34,4.52c1.46.03,2.95-.2,4.4-.71-.46-1.41-.92-2.83-1.38-4.24-1.11.38-2.25.52-3.36.42Z"/>
          <polygon class="cls-11" points="25.19 86.64 23.43 88.24 22.75 86.04 29.33 62.41 31.04 60.97 31.77 63.01 25.19 86.64"/>
          <path class="cls-8" d="M46.97,6.07c-.31,1.11-1.45,1.78-2.56,1.51-1.1-.27-1.75-1.39-1.44-2.5.31-1.11,1.45-1.78,2.56-1.51,1.1.27,1.75,1.39,1.44,2.5Z"/>
          <path class="cls-18" d="M35.55,31.18c.25-.11.51-.21.77-.28"/>
          <path class="cls-14" d="M33.46,35.75c-.55-1.9,1.5-4.19,3.42-3.95-1.06.08-3.23,2.57-3.42,3.95Z"/>
        </g>
      </g>
    </g>
  </g>
</svg>