<?xml version="1.0" encoding="UTF-8"?>
<svg xmlns="http://www.w3.org/2000/svg" xmlns:xlink="http://www.w3.org/1999/xlink" viewBox="0 0 326.79 290.92">
  <defs>
    <style>
      .cls-1 {
        fill: #fff;
      }

      .cls-2 {
        fill: none;
      }

      .cls-3 {
        fill: #fcf49d;
        opacity: .9;
      }

      .cls-4 {
        clip-path: url(#clippath-1);
      }

      .cls-5 {
        isolation: isolate;
      }

      .cls-6 {
        mix-blend-mode: soft-light;
        opacity: .11;
      }

      .cls-7 {
        clip-path: url(#clippath);
      }
    </style>
    <clipPath id="clippath">
      <rect class="cls-2" x="-47.91" y="-599.79" width="360" height="506.64"/>
    </clipPath>
    <clipPath id="clippath-1">
      <rect class="cls-2" x="-458.25" y="-746.42" width="1295.74" height="729.17"/>
    </clipPath>
  </defs>
  <g class="cls-5">
    <g id="Layer_1" data-name="Layer 1">
      <g>
        <g class="cls-7">
          <g class="cls-4">
            <g>
              <g class="cls-6">
                <path class="cls-1" d="M-549.06-117.1c-3.07-4.14-6.14-8.28-9.22-12.42,57.2,49.73,142.8,64.12,213.1,35.82,99.35-39.99,162.42-153.87,268.22-170.47,69.03-10.83,136.56,23.74,206.01,31.42,159.95,17.68,273.57-102.07,322.93-116.63,57.18-16.86,114.12,21.81,171.62,37.52,102.03,27.87,230.61-13.46,323.54-144.76l33.66-7.06,4.52,23.22-.97,25.45.63,72.99c-56.64,78.12-164.07,117.39-251.76,157.62-180.25,82.71-248.73-31.7-376.86-4.87-97.25,20.37-165.33,129.66-264.66,127.33-83.64-1.96-157.08-85.42-238.08-64.45-47.31,12.24-77.95,56.3-114.79,88.42-144.72,126.18-338.16,26.15-294.32,20.44l6.41-99.59Z"/>
              </g>
              <g class="cls-6">
                <path class="cls-1" d="M-569.73-30.16C-431.46,55.7-329.17,12.61-224.48-99.4-75.04-259.28-.56-89.23,109.4-101.84c93.91-10.77,140.53-137.55,316.35-117.69,133.7,15.11,221.51,113.34,560.96-167.9l-9.52-48.92-4.33,24.36-13.47-24.64c-262.26,266.78-328.4,98.75-480.83,112.15-110.31,9.7-148.4,157.41-408.82,112.73-47.35-8.12-93.95-24.89-141.93-22.61-116.05,5.51-183.56,158.28-294.32,193.33-61.39,19.43-142.9-24.33-198.09-57.51l-14.64,19.46,9.52,48.92Z"/>
              </g>
            </g>
          </g>
        </g>
        <g>
          <path class="cls-3" d="M.11,86.99c6.25,1.34,6.56,1.67,7.5,10.12.02.17.26.17.28,0,.94-8.45,1.26-8.78,7.5-10.12.15-.03.15-.24,0-.28-6.24-1.34-6.56-1.67-7.5-10.12-.02-.17-.26-.17-.28,0-.94,8.45-1.26,8.78-7.5,10.12-.15.03-.15.24,0,.28Z"/>
          <path class="cls-3" d="M284.32,280.67c6.25,1.34,6.56,1.67,7.5,10.12.02.17.26.17.28,0,.94-8.45,1.26-8.78,7.5-10.12.15-.03.15-.24,0-.28-6.24-1.34-6.56-1.67-7.5-10.12-.02-.17-.26-.17-.28,0-.94,8.45-1.26,8.78-7.5,10.12-.15.03-.15.24,0,.28Z"/>
          <path class="cls-3" d="M273.08,6.56c3.89.84,4.09,1.04,4.68,6.31.01.1.16.1.17,0,.59-5.27.78-5.47,4.68-6.31.09-.02.09-.15,0-.17-3.89-.83-4.09-1.04-4.68-6.31-.01-.1-.16-.1-.17,0-.59,5.27-.79,5.47-4.68,6.31-.09.02-.09.15,0,.17Z"/>
          <path class="cls-3" d="M185.88,82.63c4.85,1.04,5.09,1.3,5.82,7.85.01.13.2.13.22,0,.73-6.56.97-6.81,5.82-7.85.12-.02.11-.19,0-.21-4.85-1.04-5.09-1.3-5.82-7.85-.01-.13-.2-.13-.22,0-.73,6.56-.98,6.81-5.82,7.85-.12.02-.12.19,0,.21Z"/>
          <path class="cls-3" d="M315.84,106.98c4.44.95,4.66,1.19,5.33,7.19.01.12.19.12.2,0,.67-6,.89-6.24,5.33-7.19.11-.02.11-.17,0-.2-4.44-.95-4.66-1.19-5.33-7.19-.01-.12-.19-.12-.2,0-.67,6-.9,6.24-5.33,7.19-.11.02-.11.17,0,.2Z"/>
          <path class="cls-3" d="M26.78,15.51c2.99.64,3.14.8,3.59,4.84,0,.08.13.08.13,0,.45-4.04.6-4.2,3.59-4.84.07-.02.07-.12,0-.13-2.99-.64-3.14-.8-3.59-4.84,0-.08-.12-.08-.13,0-.45,4.04-.6,4.2-3.59,4.84-.07.02-.07.12,0,.13Z"/>
        </g>
      </g>
    </g>
  </g>
</svg>