<?xml version="1.0" encoding="UTF-8"?>
<svg id="Layer_1" data-name="Layer 1" xmlns="http://www.w3.org/2000/svg" viewBox="0 0 223.11 117.51">
  <defs>
    <style>
      .cls-1 {
        fill: #fff;
      }

      .cls-2 {
        fill: #863f8c;
      }
    </style>
  </defs>
  <g>
    <path class="cls-2" d="M9.15,2.83h14.81l6.82,27.28h-8.88l-1.05-4.29h-8.61l-1.05,4.29H2.32L9.15,2.83ZM13.84,19.12h5.39l-2.25-9.27h-.89l-2.25,9.27Z"/>
    <path class="cls-2" d="M33.3,2.83h13.3c7.83,0,13.73,4.72,13.73,13.68s-5.89,13.6-13.73,13.6h-13.3V2.83ZM45.63,23.1c4.27,0,6.13-2.57,6.13-6.62s-1.86-6.62-6.44-6.62h-3.14v13.25h3.45Z"/>
    <path class="cls-2" d="M62.65,16.44c0-8.61,6.36-14.19,14.58-14.19s14.58,5.57,14.58,14.19-6.36,14.26-14.58,14.26-14.58-5.26-14.58-14.26ZM82.62,16.44c0-3.35-2.17-5.77-5.47-5.77s-5.47,2.42-5.47,5.77,2.17,5.81,5.47,5.81,5.47-2.42,5.47-5.81Z"/>
    <path class="cls-2" d="M94.71,2.83h16.63c5.89,0,9.5,3.51,9.5,9.12s-3.61,9.12-9.5,9.12h-7.72v9.04h-8.92V2.83ZM109.6,14.06c1.24,0,2.25-.58,2.25-2.1,0-1.6-1.01-2.1-2.25-2.1h-5.97v4.21h5.97Z"/>
    <path class="cls-2" d="M129.96,9.85h-7.75V2.83h24.43v7.02h-7.75v20.26h-8.92V9.85Z"/>
    <path class="cls-2" d="M149.15,2.83h8.92v27.28h-8.92V2.83Z"/>
    <path class="cls-2" d="M160.98,16.44c0-8.61,6.36-14.19,14.58-14.19s14.58,5.57,14.58,14.19-6.36,14.26-14.58,14.26-14.58-5.26-14.58-14.26ZM180.94,16.44c0-3.35-2.17-5.77-5.47-5.77s-5.47,2.42-5.47,5.77,2.17,5.81,5.47,5.81,5.47-2.42,5.47-5.81Z"/>
    <path class="cls-2" d="M193.04,2.83h9.31l10,14.77h.27V2.83h8.34v27.28h-9.3l-9.96-14.73h-.31v14.73h-8.34V2.83Z"/>
  </g>
  <g>
    <path class="cls-1" d="M6.82.58h14.81l6.82,27.28h-8.88l-1.05-4.29h-8.61l-1.05,4.29H0L6.82.58ZM11.52,16.87h5.39l-2.25-9.27h-.89l-2.25,9.27Z"/>
    <path class="cls-1" d="M30.98.58h13.3c7.83,0,13.73,4.72,13.73,13.68s-5.89,13.6-13.73,13.6h-13.3V.58ZM43.31,20.85c4.26,0,6.13-2.57,6.13-6.62s-1.86-6.62-6.44-6.62h-3.14v13.25h3.45Z"/>
    <path class="cls-1" d="M60.33,14.19c0-8.61,6.36-14.19,14.58-14.19s14.58,5.57,14.58,14.19-6.36,14.26-14.58,14.26-14.58-5.26-14.58-14.26ZM80.3,14.19c0-3.35-2.17-5.77-5.47-5.77s-5.47,2.42-5.47,5.77,2.17,5.81,5.47,5.81,5.47-2.42,5.47-5.81Z"/>
    <path class="cls-1" d="M92.39.58h16.63c5.89,0,9.5,3.51,9.5,9.12s-3.61,9.12-9.5,9.12h-7.72v9.04h-8.92V.58ZM107.28,11.81c1.24,0,2.25-.58,2.25-2.1,0-1.6-1.01-2.1-2.25-2.1h-5.97v4.21h5.97Z"/>
    <path class="cls-1" d="M127.64,7.6h-7.75V.58h24.43v7.02h-7.75v20.26h-8.92V7.6Z"/>
    <path class="cls-1" d="M146.83.58h8.92v27.28h-8.92V.58Z"/>
    <path class="cls-1" d="M158.65,14.19c0-8.61,6.36-14.19,14.58-14.19s14.58,5.57,14.58,14.19-6.36,14.26-14.58,14.26-14.58-5.26-14.58-14.26ZM178.62,14.19c0-3.35-2.17-5.77-5.47-5.77s-5.47,2.42-5.47,5.77,2.17,5.81,5.47,5.81,5.47-2.42,5.47-5.81Z"/>
    <path class="cls-1" d="M190.72.58h9.31l10,14.77h.27V.58h8.34v27.28h-9.3l-9.96-14.73h-.31v14.73h-8.34V.58Z"/>
  </g>
  <g>
    <path class="cls-2" d="M3.27,39.16h7.58v2.1H3.27v-2.1ZM3.27,43.3h7.58v19.49H3.27v-19.49Z"/>
    <path class="cls-2" d="M23.28,58.1c.69,0,1.1-.38,1.1-.93,0-.69-.45-.97-1.1-.97h-3.47c-4.05,0-6.69-2.1-6.69-6.11,0-4.79,3.4-6.8,6.97-6.8h10.16v4.66h-9.16c-.65,0-1.1.34-1.1.9,0,.66.45,1.04,1.1,1.04h4.12c4.08,0,6.52,2.66,6.52,6.18,0,4.28-2.54,6.73-7.04,6.73h-10.91v-4.69h9.51Z"/>
    <path class="cls-2" d="M42.01,53.03c0-6.18,4.32-10.25,10.33-10.25s10.29,4.07,10.29,10.25-4.32,10.28-10.29,10.28c-6.69,0-10.33-4.28-10.33-10.28ZM55.67,53.03c0-2.28-1.48-3.48-3.33-3.48s-3.36,1.24-3.36,3.48,1.48,3.52,3.36,3.52,3.33-1.21,3.33-3.52Z"/>
    <path class="cls-2" d="M65.03,43.3h7.55v9.97c0,2.24.93,3.28,2.37,3.28s2.4-1.04,2.4-3.24v-10h7.55v19.49h-7.41v-3.07h-.27c-.75,2.31-2.92,3.59-5.49,3.59-3.91,0-6.69-2.45-6.69-8.38v-11.63Z"/>
    <path class="cls-2" d="M96.19,63.31c-4.77,0-7.38-1.17-7.38-6.9v-8.11h-1.92v-5h1.92v-2.52l7.58-1.38v3.9h3.84v5h-3.84v6.18c0,1.59.58,2.07,2.2,2.07,1.06,0,1.54-.04,1.65-.07v6.59c-.41.1-2.33.24-4.05.24Z"/>
    <path class="cls-2" d="M110.43,53.03c0-6.18,4.32-10.25,10.33-10.25s10.29,4.07,10.29,10.25-4.32,10.28-10.29,10.28c-6.69,0-10.33-4.28-10.33-10.28ZM124.09,53.03c0-2.28-1.48-3.48-3.33-3.48s-3.36,1.24-3.36,3.48,1.48,3.52,3.36,3.52,3.33-1.21,3.33-3.52Z"/>
    <path class="cls-2" d="M145.8,44.89c-.1-.04-.58-.07-1.61-.07-1.61,0-2.2.48-2.2,2.07v.72h3.84v5h-3.84v10.18h-7.58v-10.18h-1.92v-5h1.92v-2.31c0-5.14,2.99-7,7.93-7,1.58,0,3.05.24,3.47.34v6.25Z"/>
    <path class="cls-2" d="M165.16,63.31c-4.77,0-7.38-1.17-7.38-6.9v-8.11h-1.92v-5h1.92v-2.52l7.58-1.38v3.9h3.84v5h-3.84v6.18c0,1.59.58,2.07,2.2,2.07,1.06,0,1.54-.04,1.65-.07v6.59c-.41.1-2.33.24-4.05.24Z"/>
    <path class="cls-2" d="M171.37,38.64h7.55v7.42h.27c.75-1.97,2.92-3.28,5.46-3.28,3.95,0,6.73,2.14,6.73,8.31v11.7h-7.55v-9.97c0-2.24-.93-3.28-2.44-3.28s-2.47,1.04-2.47,3.24v10h-7.55v-24.15Z"/>
    <path class="cls-2" d="M194.66,39.16h7.58v2.1h-7.58v-2.1ZM194.66,43.3h7.58v19.49h-7.58v-19.49Z"/>
    <path class="cls-2" d="M214.67,58.1c.69,0,1.1-.38,1.1-.93,0-.69-.45-.97-1.1-.97h-3.47c-4.05,0-6.69-2.1-6.69-6.11,0-4.79,3.4-6.8,6.97-6.8h10.16v4.66h-9.16c-.65,0-1.1.34-1.1.9,0,.66.45,1.04,1.1,1.04h4.12c4.08,0,6.52,2.66,6.52,6.18,0,4.28-2.54,6.73-7.04,6.73h-10.91v-4.69h9.51Z"/>
  </g>
  <g>
    <path class="cls-1" d="M1.07,36.91h7.58v2.1H1.07v-2.1ZM1.07,41.05h7.58v19.49H1.07v-19.49Z"/>
    <path class="cls-1" d="M21.07,55.85c.69,0,1.1-.38,1.1-.93,0-.69-.45-.97-1.1-.97h-3.47c-4.05,0-6.69-2.1-6.69-6.11,0-4.79,3.4-6.8,6.97-6.8h10.16v4.66h-9.16c-.65,0-1.1.34-1.1.9,0,.66.45,1.04,1.1,1.04h4.12c4.08,0,6.52,2.66,6.52,6.18,0,4.28-2.54,6.73-7.03,6.73h-10.91v-4.69h9.51Z"/>
    <path class="cls-1" d="M39.8,50.78c0-6.18,4.32-10.25,10.33-10.25s10.29,4.07,10.29,10.25-4.32,10.28-10.29,10.28c-6.69,0-10.33-4.28-10.33-10.28ZM53.46,50.78c0-2.28-1.48-3.48-3.33-3.48s-3.36,1.24-3.36,3.48,1.48,3.52,3.36,3.52,3.33-1.21,3.33-3.52Z"/>
    <path class="cls-1" d="M62.83,41.05h7.55v9.97c0,2.24.93,3.28,2.37,3.28s2.4-1.04,2.4-3.24v-10h7.55v19.49h-7.41v-3.07h-.27c-.75,2.31-2.92,3.59-5.49,3.59-3.91,0-6.69-2.45-6.69-8.38v-11.63Z"/>
    <path class="cls-1" d="M93.99,61.06c-4.77,0-7.38-1.17-7.38-6.9v-8.11h-1.92v-5h1.92v-2.52l7.58-1.38v3.9h3.84v5h-3.84v6.18c0,1.59.58,2.07,2.2,2.07,1.06,0,1.54-.04,1.65-.07v6.59c-.41.1-2.33.24-4.05.24Z"/>
    <path class="cls-1" d="M108.22,50.78c0-6.18,4.32-10.25,10.33-10.25s10.3,4.07,10.3,10.25-4.32,10.28-10.3,10.28c-6.69,0-10.33-4.28-10.33-10.28ZM121.88,50.78c0-2.28-1.48-3.48-3.33-3.48s-3.36,1.24-3.36,3.48,1.48,3.52,3.36,3.52,3.33-1.21,3.33-3.52Z"/>
    <path class="cls-1" d="M143.6,42.64c-.1-.04-.58-.07-1.61-.07-1.61,0-2.2.48-2.2,2.07v.72h3.84v5h-3.84v10.18h-7.58v-10.18h-1.92v-5h1.92v-2.31c0-5.14,2.99-7,7.93-7,1.58,0,3.05.24,3.47.34v6.25Z"/>
    <path class="cls-1" d="M162.95,61.06c-4.77,0-7.38-1.17-7.38-6.9v-8.11h-1.92v-5h1.92v-2.52l7.58-1.38v3.9h3.84v5h-3.84v6.18c0,1.59.58,2.07,2.2,2.07,1.06,0,1.54-.04,1.65-.07v6.59c-.41.1-2.33.24-4.05.24Z"/>
    <path class="cls-1" d="M169.16,36.39h7.55v7.42h.27c.75-1.97,2.92-3.28,5.46-3.28,3.95,0,6.73,2.14,6.73,8.31v11.7h-7.55v-9.97c0-2.24-.93-3.28-2.44-3.28s-2.47,1.04-2.47,3.24v10h-7.55v-24.15Z"/>
    <path class="cls-1" d="M192.46,36.91h7.58v2.1h-7.58v-2.1ZM192.46,41.05h7.58v19.49h-7.58v-19.49Z"/>
    <path class="cls-1" d="M212.46,55.85c.69,0,1.1-.38,1.1-.93,0-.69-.45-.97-1.1-.97h-3.47c-4.05,0-6.69-2.1-6.69-6.11,0-4.79,3.4-6.8,6.97-6.8h10.16v4.66h-9.16c-.65,0-1.1.34-1.1.9,0,.66.45,1.04,1.1,1.04h4.12c4.08,0,6.52,2.66,6.52,6.18,0,4.28-2.54,6.73-7.04,6.73h-10.91v-4.69h9.51Z"/>
  </g>
  <g>
    <path class="cls-2" d="M5.7,77.15h13.42l4.27,24.04h.79l8.25-13.6h.79l8.25,13.6h.79l4.27-24.04h13.48l-8.09,39.51h-12.41l-6.29-9.93h-.79l-6.29,9.93h-12.35l-8.09-39.51Z"/>
    <path class="cls-2" d="M60.56,96.85c0-12.47,9.21-20.54,21.11-20.54s21.11,8.07,21.11,20.54-9.21,20.66-21.11,20.66-21.11-7.62-21.11-20.66ZM89.48,96.85c0-4.85-3.14-8.35-7.92-8.35s-7.92,3.5-7.92,8.35,3.14,8.41,7.92,8.41,7.92-3.5,7.92-8.41Z"/>
    <path class="cls-2" d="M106.99,77.15h25.32c8.54,0,13.98,4.85,13.98,12.98,0,5.53-2.47,9.31-6.68,11.12l6.06,15.41h-13.64l-4.94-14.05h-8.14v14.05h-11.96v-39.51ZM129.34,93.86c2.36,0,3.99-.85,3.99-3.33s-1.63-3.22-3.99-3.22h-10.39v6.55h10.39Z"/>
    <path class="cls-2" d="M150.51,77.15h12.92v29.35h15.55v10.16h-28.47v-39.51Z"/>
    <path class="cls-2" d="M183.19,77.15h19.26c11.34,0,19.88,6.83,19.88,19.81s-8.54,19.7-19.88,19.7h-19.26v-39.51ZM201.04,106.5c6.18,0,8.87-3.73,8.87-9.6s-2.7-9.59-9.32-9.59h-4.55v19.19h5Z"/>
  </g>
  <g>
    <path class="cls-1" d="M3.5,74.9h13.42l4.27,24.04h.79l8.25-13.6h.79l8.25,13.6h.79l4.27-24.04h13.48l-8.09,39.51h-12.41l-6.29-9.93h-.79l-6.29,9.93h-12.35L3.5,74.9Z"/>
    <path class="cls-1" d="M58.35,94.6c0-12.47,9.21-20.54,21.11-20.54s21.11,8.07,21.11,20.54-9.21,20.66-21.11,20.66-21.11-7.62-21.11-20.66ZM87.27,94.6c0-4.85-3.14-8.35-7.92-8.35s-7.92,3.5-7.92,8.35,3.14,8.41,7.92,8.41,7.92-3.5,7.92-8.41Z"/>
    <path class="cls-1" d="M104.79,74.9h25.32c8.54,0,13.98,4.85,13.98,12.98,0,5.53-2.47,9.31-6.68,11.12l6.06,15.41h-13.65l-4.94-14.05h-8.14v14.05h-11.96v-39.51ZM127.14,91.61c2.36,0,3.99-.85,3.99-3.33s-1.63-3.22-3.99-3.22h-10.39v6.55h10.39Z"/>
    <path class="cls-1" d="M148.3,74.9h12.92v29.35h15.55v10.16h-28.47v-39.51Z"/>
    <path class="cls-1" d="M180.98,74.9h19.26c11.34,0,19.88,6.83,19.88,19.81s-8.54,19.7-19.88,19.7h-19.26v-39.51ZM198.84,104.25c6.18,0,8.87-3.73,8.87-9.6s-2.7-9.59-9.32-9.59h-4.55v19.19h5Z"/>
  </g>
</svg>